<svg xmlns="http://www.w3.org/2000/svg" viewBox="0 0 87.98 98.05"><defs><style>.cls-1{fill:#020202;}.cls-2{fill:#010101;}</style></defs><title>资源 32</title><g id="图层_2" data-name="图层 2"><g id="图层_1-2" data-name="图层 1"><path class="cls-1" d="M77,101c-.89-.38-1.78-.78-2.68-1.12A20,20,0,1,1,99.88,74.32c.34.9.74,1.79,1.12,2.68,0,7.17-.11,14.34.07,21.5.05,2.15-.42,2.62-2.57,2.57C91.34,100.89,84.17,101,77,101ZM97,81.08A16,16,0,1,0,80.67,97,16.05,16.05,0,0,0,97,81.08Z" transform="translate(-13.09 -3.02)"/><path class="cls-2" d="M58.48,90.33c3.22,3,1.74,5-1.33,6.91a11.74,11.74,0,0,1-17.89-8.95c-.3-3.61-1.78-4-4.5-4.13a43.52,43.52,0,0,1-15.53-3.4c-6.2-2.69-8.75-8.4-2.66-13.5,6.81-5.72,7.44-14.17,8.26-22.32.24-2.31.08-4.66.2-7,.54-10.72,5.09-18.81,15.39-23,1.89-.76,2.73-1.51,2.73-3.84,0-4.84,3.33-8,7.67-8.12,4.54-.11,8,3.13,8,8.27,0,2.45,1,3,2.87,3.73,9.68,3.9,14.41,11.49,15.15,21.57.44,6.13.2,12.32,1.84,18.33.38,1.42.11,2-1.44,2.4-1.88.47-2.22-.39-2.59-1.87C73.29,49.76,73.09,44,73,38.12,72.73,28.62,68,21.67,60,18.64c-2.06-.79-4-1.34-6.24-.3a6.86,6.86,0,0,1-3.38.58c-13.48-1-21.13,6-21.35,19.91a91.29,91.29,0,0,1-1,13.43c-1.15,6.86-3.28,13.33-8.73,18-3.72,3.21-1.85,5.1,1.27,6.61,6.6,3.2,13.84,3.38,21,3.9,4.14.3,8.32.11,12.49.18,1.39,0,3-.52,3.13,2,.14,2.64-1.59,2-2.94,2a62.37,62.37,0,0,1-7.49,0c-4.48-.45-4.19,2-3.1,4.85C46.11,96.41,53.31,96.66,58.48,90.33Z" transform="translate(-13.09 -3.02)"/><path d="M91,80.89c.28,2.72-1.68,2.26-3,2.06-4.1-.65-5.75.8-5.07,5,.21,1.25.72,3-1.85,3.09s-2.26-1.51-2-2.92c.57-3.88-.44-5.95-4.88-5.2-1.17.2-3.06.89-3.2-1.72-.15-2.87,1.82-2.37,3.29-2.16,3.84.55,5.39-.82,4.81-4.76-.21-1.42-.8-3.46,2.11-3.33,2.59.11,2,2,1.76,3.16-.73,4.35,1.2,5.52,5.16,4.93C89.41,78.85,91.36,78.44,91,80.89Z" transform="translate(-13.09 -3.02)"/></g></g></svg>