<svg xmlns="http://www.w3.org/2000/svg" viewBox="0 0 79.38 79.29">
    <defs>
        <style>
            .cls-1 {
                fill: #fec007;
            }

            .cls-2 {
                fill: #43a047;
            }

            .cls-3 {
                fill: #fefdfb;
            }
        </style>
    </defs>
    <title>资源 33</title>
    <g id="图层_2" data-name="图层 2">
        <g id="图层_1-2" data-name="图层 1">
            <path class="cls-1"
                d="M55,84.77c-1.1,1-2.18,2-3.3,3-4.11,3.6-8.56,3.7-12.45-.11Q26.56,75.3,14.16,62.62c-3.77-3.87-3.7-8.49.17-12.4C26.62,37.79,39,25.49,51.36,13.09a6.19,6.19,0,0,1,4.91-1.82c8,.06,16-.07,24,.05,7.26.11,10.29,3.14,10.39,10.41.12,8-.2,16,.11,24,.19,4.77-4.1,6.11-6,9.25-10.64-7.78-21-8-29-.55C47,62.58,46.69,73.53,55,84.77ZM82.11,23.62c-.38-2.41-1.77-3.84-4.3-3.68A3.67,3.67,0,0,0,74,24.17,3.71,3.71,0,0,0,78.29,28C80.79,27.79,82,26.19,82.11,23.62Z"
                transform="translate(-11.38 -11.26)" />
            <path class="cls-2"
                d="M55,84.77c-8.28-11.24-8-22.19.83-30.37,8-7.42,18.33-7.23,29,.55,5.17,6.5,7.28,13.58,4.56,21.79C85.61,88,69.77,96.87,55,84.77Zm27.1-15c.71-3.33-.72-4.68-4-4.14-3.81.63-4.6-1.41-4.14-4.58.43-2.92-.52-4.24-3.76-4-2.67.18-5.14,0-4.53,3.8.56,3.56-.66,5.47-4.56,4.79-3.57-.62-3.94,1.32-4.06,4.3-.14,3.44,1.2,4.49,4.31,4,3.55-.57,4.88,1,4.31,4.4-.63,3.72,1.59,3.81,4.4,3.89,3,.09,4.43-.68,3.89-3.86s.51-5.06,4.19-4.43C81.45,74.52,82.8,73.11,82.07,69.82Z"
                transform="translate(-11.38 -11.26)" />
            <path
                d="M82.11,23.62C82,26.19,80.79,27.79,78.29,28A3.71,3.71,0,0,1,74,24.17a3.67,3.67,0,0,1,3.77-4.23C80.34,19.78,81.73,21.21,82.11,23.62Z"
                transform="translate(-11.38 -11.26)" />
        </g>
    </g>
</svg>