<svg xmlns="http://www.w3.org/2000/svg" viewBox="0 0 98.24 87.18"><defs><style>.cls-1{fill:#dadbdc;}.cls-2{fill:#5a6169;}.cls-3{fill:#e6fcf1;}.cls-4{fill:#acf8d1;}.cls-5{fill:#444c54;}.cls-6{fill:#454c54;}.cls-7{fill:#454c55;}</style></defs><title>资源 9</title><g id="图层_2" data-name="图层 2"><g id="图层_1-2" data-name="图层 1"><path class="cls-1" d="M48,101a7.87,7.87,0,0,0,0-.84L88,100a5.35,5.35,0,0,0,0,1Z" transform="translate(-2.76 -13.82)"/><path class="cls-2" d="M101,99c-.48.06-1.07,0-1.42.21-1.32.92-2.58,1.54-3.6-.28a2,2,0,0,1,.39-2.65c1.67-1.13,3-.68,3.86,1.21.11.24.51.34.77.51Z" transform="translate(-2.76 -13.82)"/><path class="cls-3" d="M101,41c-.31,0-.61,0-.92,0,0-2,0-4,0-6.07.3,0,.6,0,.9,0Z" transform="translate(-2.76 -13.82)"/><path class="cls-4" d="M100.1,35c0,2,0,4,0,6.07-1.72,10.4-7.84,17.23-17.87,19.56-9.81,2.27-18.25-1-24.37-9.32A8.93,8.93,0,0,1,57,49c2.85,2.19,6.17-.48,9.14.95,4.27,2,7.33,1,9.82-3.31s6.38-5.44,11.19-3.79c1.72.59,3.85,2.3,5.5.25s-.11-4.16-1-6C87,27,78.9,20.43,68.76,16.17,83.16,10.66,97.06,19,100.1,35Z" transform="translate(-2.76 -13.82)"/><path class="cls-5" d="M68.76,16.17C78.9,20.43,87,27,91.69,37.12c.86,1.85,2.62,4,1,6s-3.78.34-5.5-.25c-4.81-1.65-8.78-.43-11.19,3.79S70.42,52,66.15,50c-3-1.43-6.29,1.24-9.14-.95-.48-2.94,1.33-3.88,3.75-4.06,1.93-.14,3.88,0,6.25,0a51.3,51.3,0,0,0-9.11-14.6c-1.28-1.46-4.17-3.05-1.57-5.23,2.44-2,3.77.91,5.11,2.35A48.46,48.46,0,0,1,70,40.25c1.08,2.34,1.8,3.69,4.24,1,3.09-3.44,7.35-4.22,12.51-3.39-6.5-12-16.24-17.53-28.73-18.78a38.22,38.22,0,0,0-17.68,2.19c-4.28,1.66-5.33-.68-6.23-3.83-.33-1.14-.49-2.41.7-3.14s2.34-.71,3,.54c.82,1.44,1.86,1.65,3.32,1.22C50.39,13.35,59.58,13.86,68.76,16.17Z" transform="translate(-2.76 -13.82)"/><path class="cls-6" d="M88,100,48,100.16c-5-1.86-9.86-3.61-15.3-1.24-1.92.84-4.25,0-6.28-.92-6.53-3-12.92-2.78-19,1.09a4.61,4.61,0,0,1-4.23.68c-1-2.64.42-4,2.52-5.14,6.46-3.61,13.19-4.51,20.17-1.87,3.37,1.28,6.51,2,10.1.5a8.5,8.5,0,0,1,7.32.23c5.16,2.91,10.7,1.85,16.13,2.11,2.83.13,2.93-1,2-3.32-2.94-7.77-5.69-15.61-8.48-23.44-.59-1.64-2-3.69.47-4.72,2.8-1.15,3.19,1.42,3.86,3.25,2.92,7.95,6,15.85,8.66,23.9,1.14,3.53,2.93,4.62,6.46,4.39,4.48-.29,9-.16,13.49,0C89.07,95.72,90.22,97.12,88,100Z" transform="translate(-2.76 -13.82)"/><path class="cls-7" d="M31.09,57.93c4.07-3.75,7.65-6.59,13.22-5.31,2.85.66,1.78-2,1.36-3.29-1.86-5.51-3.92-10.94-5.89-16.42-.64-1.8-2.19-4.15.4-5.19,3-1.21,3.23,1.92,3.92,3.76,2.79,7.47,5.47,15,8.23,22.46.52,1.41,1.26,2.79-.12,4.12-1.2,1.15-2.51.6-3.73.1-6.87-2.75-11.76-.7-15.47,5.66-2,3.51-4.06,3.18-5.4-.54A58.61,58.61,0,0,1,24,39.77c.11-1.86.13-4,2.77-3.77,2.23.22,2.12,2.21,2,3.9C28.55,45.9,28.86,51.82,31.09,57.93Z" transform="translate(-2.76 -13.82)"/><path class="cls-7" d="M11.19,64.67c2-1.32,3.68-2.61,5.53-3.63,1.22-.67,2.65-.7,3.45.81a2.08,2.08,0,0,1-1,3c-2.86,1.4-4.34,4-6.07,6.42-2,2.84-3.78,2.94-5.26-.64-6.34-15.35,2-38.91,16.48-46.73,1.25-.67,2.38-1.31,3.53,0,1.39,1.58.48,2.84-.79,3.77a44.18,44.18,0,0,0-9.7,9.26C11.36,45.22,8.91,54.32,11.19,64.67Z" transform="translate(-2.76 -13.82)"/></g></g></svg>