<svg xmlns="http://www.w3.org/2000/svg" viewBox="0 0 95.21 87.18"><defs><style>.cls-1{fill:#fbfcfc;}.cls-2{fill:#e2f2fe;}.cls-3{fill:#d9dadc;}.cls-4{fill:#5a6169;}.cls-5{fill:#d8dbde;}.cls-6{fill:#454c54;}.cls-7{fill:#444b54;}.cls-8{fill:#454c55;}.cls-9{fill:#71c1fd;}</style></defs><title>资源 12</title><g id="图层_2" data-name="图层 2"><g id="图层_1-2" data-name="图层 1"><path class="cls-1" d="M58,101H50a5.67,5.67,0,0,0-3.17-1.94c-1.45-1.28-2.89-2.57-4.35-3.83-1.91-1.64-4.62-2.86-3.18-6.21,3.33-.68,5,1.77,7,3.68C49.67,96,52.73,99.78,58,100.19A7.32,7.32,0,0,0,58,101Z" transform="translate(-5.79 -13.82)"/><path class="cls-2" d="M46.83,99.06A5.67,5.67,0,0,1,50,101H21c0-.27,0-.54,0-.81l2.72-.37C31.44,99.64,39.19,101.07,46.83,99.06Z" transform="translate(-5.79 -13.82)"/><path class="cls-3" d="M58,101a7.32,7.32,0,0,1,0-.81l29.06-.1c0,.3,0,.6,0,.91Z" transform="translate(-5.79 -13.82)"/><path class="cls-4" d="M101,99c-.48.06-1.07,0-1.42.21-1.32.92-2.58,1.54-3.6-.28a2,2,0,0,1,.39-2.65c1.67-1.13,3-.68,3.86,1.21.11.24.51.34.77.51Z" transform="translate(-5.79 -13.82)"/><path class="cls-5" d="M21,100.19c0,.27,0,.54,0,.81H11a5.93,5.93,0,0,0,0-.94Z" transform="translate(-5.79 -13.82)"/><path class="cls-6" d="M66.86,44.66A48.36,48.36,0,0,0,57.58,30c-1.24-1.38-3.63-2.9-1.3-4.89s3.55.57,4.82,1.93a54.45,54.45,0,0,1,9.37,14.06c.7,1.47,1.25,2.83,3,.8,3.33-3.78,7.69-5,13.27-4.07C80.27,25.88,70.52,20.3,58,19.06a45.68,45.68,0,0,0-17.74,2.09C36.34,22.34,34.43,21,34,16.9c-.1-1-.13-2,.85-2.65s2.29-.63,2.73.2c1.49,2.89,3.61,1.55,5.59,1.09,20.75-4.78,40,3.63,48.4,21.34.93,1.95,3,4.17,1,6.4-1.71,1.9-3.82.13-5.56-.44-4.87-1.6-8.73-.23-11.16,4s-5.15,5.12-9.42,3.28A10.2,10.2,0,0,0,60,49.91c-1.44.34-2.7-.14-3-1.81a2.35,2.35,0,0,1,2.21-2.81C61.64,44.9,64.11,44.87,66.86,44.66Z" transform="translate(-5.79 -13.82)"/><path class="cls-7" d="M21,100.19l-10-.13c-2.26-2.76-1.3-4.74,1.94-4.34,7.67,1,12.78-2.57,17.71-7.87,5.35-5.75,11.78-5.34,17.64,0,2.91,2.63,4.91,6.44,9.13,7.44,1.44.34,3.19,1,4.28-.2s-.26-2.49-.68-3.69q-4.06-11.49-8.26-22.94c-.56-1.57-1.57-3.35.58-4.3,2.45-1.08,3.11.94,3.75,2.71,3.06,8.42,6.2,16.81,9.15,25.27.89,2.56,2.13,3.72,5,3.56,4.64-.26,9.32-.18,14,0,3.49.13,4.08,1.79,1.82,4.45l-29.06.1c-5.23-.41-8.29-4.18-11.67-7.49-1.95-1.91-3.66-4.36-7-3.68-2.82-.62-4.58,1.13-6.35,2.87-2.89,2.84-5.59,5.91-9.2,7.93Z" transform="translate(-5.79 -13.82)"/><path class="cls-8" d="M31,58c4.09-3.78,7.69-6.69,13.23-5.42,3,.67,1.9-1.94,1.49-3.18-1.7-5-3.62-10-5.45-15C39.8,33.2,39.34,32,39,30.67c-.39-1.44-.08-2.77,1.48-3.23a2.18,2.18,0,0,1,2.71,1.62c3.23,8.72,6.53,17.41,9.58,26.2.86,2.49-.54,3.79-3.25,3.25-.65-.13-1.28-.36-1.92-.52-7.67-2-9.21-1.42-13.87,5-1,1.42-1.75,3.54-4.09,3-2-.45-2-2.5-2.51-4A57.93,57.93,0,0,1,24,40.88c.11-2-.61-5,2.67-4.84,2.85.14,2.17,2.84,2.11,4.75A49.88,49.88,0,0,0,31,58Z" transform="translate(-5.79 -13.82)"/><path class="cls-8" d="M11.15,64.81c1.94-1.4,3.33-2.58,4.88-3.49,1.3-.75,2.94-1.31,4,.33s.07,2.77-1.44,3.57a12.72,12.72,0,0,0-4.73,5c-.84,1.38-1.56,3.16-3.63,2.93C7.79,72.88,7.77,70.56,7.35,69,3.5,54.13,6.72,41,17.35,29.89a75.45,75.45,0,0,1,7.22-6.09c1.16-.95,2.42-1.11,3.46.27s.32,2.5-.74,3.44c-2.49,2.2-5.26,4.13-7.47,6.57C12,42.72,8.76,52.78,11.15,64.81Z" transform="translate(-5.79 -13.82)"/><path class="cls-9" d="M23.74,99.82c3.61-2,6.31-5.09,9.2-7.93,1.77-1.74,3.53-3.49,6.35-2.87-1.43,3.35,1.28,4.57,3.19,6.21,1.46,1.26,2.9,2.55,4.35,3.83C39.19,101.07,31.44,99.64,23.74,99.82Z" transform="translate(-5.79 -13.82)"/></g></g></svg>