<svg xmlns="http://www.w3.org/2000/svg" viewBox="0 0 98.24 87.18"><defs><style>.cls-1{fill:#dadbdc;}.cls-2{fill:#5a6169;}.cls-3{fill:#d5ecfe;}.cls-4{fill:#71c1fe;}.cls-5{fill:#444b54;}.cls-6{fill:#454c54;}.cls-7{fill:#454c55;}</style></defs><title>资源 10</title><g id="图层_2" data-name="图层 2"><g id="图层_1-2" data-name="图层 1"><path class="cls-1" d="M48,101a7.87,7.87,0,0,0,0-.84L88,100a5.35,5.35,0,0,0,0,1Z" transform="translate(-2.76 -13.82)"/><path class="cls-2" d="M101,99c-.48.06-1.07,0-1.42.21-1.32.92-2.58,1.54-3.6-.28a2,2,0,0,1,.39-2.65c1.67-1.13,3-.68,3.86,1.21.11.24.51.34.77.51Z" transform="translate(-2.76 -13.82)"/><path class="cls-3" d="M101,41a5,5,0,0,1-.86,0q0-3,0-6.11A4,4,0,0,1,101,35Z" transform="translate(-2.76 -13.82)"/><path class="cls-4" d="M100.16,34.94q0,3.06,0,6.11C98.26,51.45,92.2,58.4,82,60.65c-9.73,2.14-18.07-1.1-24.12-9.32A8.63,8.63,0,0,1,57,49.08c3.19,2,6.86-.53,10.12,1.11,3.6,1.82,6,.67,8.23-2.75,3.49-5.38,6.22-6.08,12.25-4.4,1.66.47,3.54,2,5,.08,1.35-1.69.11-3.48-.61-5.12C87.44,27.38,79.2,20.59,68.76,16.16,83.07,10.71,97,19,100.16,34.94Z" transform="translate(-2.76 -13.82)"/><path class="cls-5" d="M68.76,16.16C79.2,20.59,87.44,27.38,92.07,38c.72,1.64,2,3.43.61,5.12-1.5,1.87-3.38.39-5-.08-6-1.68-8.76-1-12.25,4.4-2.22,3.42-4.63,4.57-8.23,2.75-3.26-1.64-6.93.86-10.12-1.11-.54-2.94,1.24-3.91,3.67-4.1,1.94-.15,3.9,0,6.26,0A48.67,48.67,0,0,0,57.58,30c-1.24-1.39-3.63-2.91-1.3-4.9s3.54.57,4.81,1.93A54.26,54.26,0,0,1,70.47,41.1c.68,1.44,1.22,2.87,3,.82,3.33-3.78,7.68-5,13.27-4.07-6.48-12-16.21-17.54-28.69-18.79a38.11,38.11,0,0,0-17.69,2.19c-4.27,1.64-5.35-.65-6.25-3.81-.32-1.15-.5-2.42.69-3.16s2.34-.71,3,.53A2.47,2.47,0,0,0,41.18,16C50.38,13.34,59.58,13.86,68.76,16.16Z" transform="translate(-2.76 -13.82)"/><path class="cls-6" d="M88,100,48,100.16c-5-1.86-9.86-3.61-15.3-1.24-1.92.84-4.25,0-6.28-.92-6.53-3-12.92-2.78-19,1.09a4.61,4.61,0,0,1-4.23.68c-1-2.64.42-4,2.52-5.14,6.46-3.61,13.19-4.51,20.17-1.87,3.37,1.28,6.51,2,10.1.5a8.5,8.5,0,0,1,7.32.23c5.16,2.91,10.7,1.85,16.13,2.11,2.83.13,2.93-1,2-3.32-2.94-7.77-5.69-15.61-8.48-23.44-.59-1.64-2-3.69.47-4.72,2.8-1.15,3.19,1.42,3.86,3.25,2.92,7.95,6,15.85,8.66,23.9,1.14,3.53,2.93,4.62,6.46,4.39,4.48-.29,9-.16,13.49,0C89.07,95.72,90.22,97.12,88,100Z" transform="translate(-2.76 -13.82)"/><path class="cls-7" d="M31.09,57.93c4.07-3.75,7.65-6.59,13.22-5.31,2.85.66,1.78-2,1.36-3.29-1.86-5.51-3.92-10.94-5.89-16.42-.64-1.8-2.19-4.15.4-5.19,3-1.21,3.23,1.92,3.92,3.76,2.79,7.47,5.47,15,8.23,22.46.52,1.41,1.26,2.79-.12,4.12-1.2,1.15-2.51.6-3.73.1-6.87-2.75-11.76-.7-15.47,5.66-2,3.51-4.06,3.18-5.4-.54A58.61,58.61,0,0,1,24,39.77c.11-1.86.13-4,2.77-3.77,2.23.22,2.12,2.21,2,3.9C28.55,45.9,28.86,51.82,31.09,57.93Z" transform="translate(-2.76 -13.82)"/><path class="cls-7" d="M11.38,64.54c1.79-1.19,3.49-2.48,5.34-3.5,1.22-.67,2.65-.7,3.45.81a2.08,2.08,0,0,1-1,3c-2.86,1.4-4.34,4-6.07,6.42-2,2.84-3.78,2.94-5.26-.64-6.34-15.35,2-38.91,16.48-46.73,1.25-.67,2.38-1.31,3.53,0,1.39,1.58.48,2.84-.79,3.77a46.81,46.81,0,0,0-9.71,9.25A32.37,32.37,0,0,0,11.38,64.54Z" transform="translate(-2.76 -13.82)"/></g></g></svg>