<svg xmlns="http://www.w3.org/2000/svg" viewBox="0 0 95.33 87.19"><defs><style>.cls-1{fill:#444b54;}.cls-2{fill:#fefbef;}.cls-3{fill:#d9dadc;}.cls-4{fill:#5a6169;}.cls-5{fill:#dbdcdd;}.cls-6{fill:#fbecca;}.cls-7{fill:#454c54;}.cls-8{fill:#454c55;}.cls-9{fill:#fcedb1;}.cls-10{fill:#efb532;}</style></defs><title>资源 11</title><g id="图层_2" data-name="图层 2"><g id="图层_1-2" data-name="图层 1"><path class="cls-1" d="M11,100.07c-2.25-2.76-1.3-4.77,1.93-4.34,7.93,1,13-2.87,18.06-8.22s11.53-5,16.89,0c2.2,2,4.22,4.24,6.39,6.29,2,1.9,5,2.38,7,1.34,2.13-1.15-.21-3.52-.77-5.2C58,82.67,55.33,75.53,52.72,68.37c-.57-1.57-1.53-3.35.64-4.27,2.46-1,3.08,1,3.72,2.77,3.06,8.41,6.2,16.8,9.15,25.25.89,2.57,2.16,3.69,5,3.54,4.64-.26,9.31-.18,14,0,3.5.13,4.07,1.79,1.82,4.45-6.49,0-13-.18-19.49,0-2.51.06-5.24-1-7.53.94H57c-.22-1.19-1.21-1-2-1.15-3.68-1.92-6.44-4.91-9.29-7.82-1.72-1.76-3.44-3.58-6.27-3.15-2.81-.44-4.64,1.2-6.42,3-2.9,2.91-5.66,6-9.33,8l-2.63.34Z" transform="translate(-5.67 -13.81)"/><path class="cls-2" d="M21,100.17l2.63-.34H47.17l1.79.32c0,.28,0,.56,0,.84H21Z" transform="translate(-5.67 -13.81)"/><path class="cls-3" d="M60,101c2.29-2,5-.88,7.53-.94,6.49-.15,13,0,19.49,0,0,.3,0,.6,0,.91Z" transform="translate(-5.67 -13.81)"/><path class="cls-4" d="M101,99c-.48.06-1.07,0-1.42.21-1.32.92-2.58,1.54-3.6-.28a2,2,0,0,1,.39-2.65c1.67-1.13,3-.68,3.86,1.21.11.24.51.34.77.51Z" transform="translate(-5.67 -13.81)"/><path class="cls-5" d="M21,100.17l0,.83H11a7.22,7.22,0,0,0,0-.93Z" transform="translate(-5.67 -13.81)"/><path class="cls-6" d="M49,101c0-.28,0-.56,0-.84l6-.31c.82.14,1.81,0,2,1.15Z" transform="translate(-5.67 -13.81)"/><path class="cls-7" d="M66.91,45A46,46,0,0,0,57.27,29.7c-1.2-1.3-3.1-2.75-1-4.57s3.28.23,4.51,1.5c4.62,4.81,7.88,10.56,11.08,16.94,3.92-4.64,8.5-6.85,14.91-5.77C80.29,25.89,70.55,20.32,58.08,19.06a38.17,38.17,0,0,0-17.7,2.18C35.68,23.06,34.92,20.15,34,17a2.26,2.26,0,0,1,.76-2.68c.91-.61,2.32-.67,2.74.14,1.67,3.16,4,1.47,6.05,1,20.61-4.64,40,4.11,48.18,21.86.84,1.83,2.69,3.93.82,6s-3.82.19-5.56-.4c-5.38-1.81-9.16.24-11.79,4.72-1.95,3.3-4.21,4.26-7.82,2.79a11.38,11.38,0,0,0-7.35-.45,2.22,2.22,0,0,1-3-1.76c-.34-1.68.84-2.46,2.15-2.88C61.57,44.5,64.08,44.84,66.91,45Z" transform="translate(-5.67 -13.81)"/><path class="cls-8" d="M31,58c4.17-3.84,7.75-6.68,13.32-5.4,2.85.66,1.78-2,1.36-3.29-1.86-5.51-3.92-10.94-5.89-16.41-.64-1.81-2.19-4.16.4-5.19,3-1.22,3.23,1.91,3.92,3.75,2.79,7.47,5.47,15,8.23,22.46.52,1.41,1.26,2.79-.12,4.12-1.2,1.15-2.51.6-3.73.1-6.87-2.75-11.76-.7-15.47,5.66-2,3.51-4.06,3.18-5.4-.54A58.61,58.61,0,0,1,24,39.77c.11-1.86.13-4,2.76-3.77,2.24.22,2.15,2.21,2.06,3.9A49.14,49.14,0,0,0,31,58Z" transform="translate(-5.67 -13.81)"/><path class="cls-8" d="M11.21,64.55c2-1.24,3.85-2.55,5.85-3.63a2.16,2.16,0,0,1,3.05.8,2.06,2.06,0,0,1-.78,3c-3,1.49-4.52,4.25-6.39,6.79s-3.66,2.38-5-.79C1.44,55.72,9.63,32.16,24.22,24c1.41-.8,2.76-1.54,3.86.2,1.26,2-.33,3-1.67,4-8.83,6.5-14.57,14.86-15.91,26A29.46,29.46,0,0,0,11.21,64.55Z" transform="translate(-5.67 -13.81)"/><path class="cls-9" d="M47.17,99.84H23.66c3.67-2,6.43-5.06,9.33-8,1.78-1.78,3.61-3.42,6.42-3a3.86,3.86,0,0,0,1.4,5.05A84.27,84.27,0,0,1,47.17,99.84Z" transform="translate(-5.67 -13.81)"/><path class="cls-10" d="M47.17,99.84a84.27,84.27,0,0,0-6.36-5.91,3.86,3.86,0,0,1-1.4-5.05c2.83-.43,4.55,1.39,6.27,3.15,2.85,2.91,5.61,5.9,9.29,7.82l-6,.31Z" transform="translate(-5.67 -13.81)"/></g></g></svg>