<svg xmlns="http://www.w3.org/2000/svg" viewBox="0 0 100.11 76.12"><defs><style>.cls-1{fill:#444b54;}.cls-2{fill:#71c2fe;}.cls-3{fill:#71c1fe;}</style></defs><title>资源 43</title><g id="图层_2" data-name="图层 2"><g id="图层_1-2" data-name="图层 1"><path class="cls-1" d="M1,66c4.63-1.19,5-4.54,4.85-8.63-.27-7-.15-14,0-21C5.91,29.2,9.72,25.2,16.93,25.16q34.22-.15,68.44,0c6.93,0,10.69,4.07,10.82,11,.12,6,.08,12,0,18,0,4.92-.89,10.08,4.79,12.83,0,10-.19,20,.1,30,.11,3.44-.66,4.68-4.11,4a22.12,22.12,0,0,0-4,0c-1.57-2.56-1.47-5.42-1.24-8.2.26-3.23-.81-4.3-4.17-4.28q-36.42.21-72.85,0c-3.41,0-4.83.86-4.51,4.43.26,2.87.69,6-2.23,8-7,0-7,0-7-7Zm85-2c4.67,1.24,6.09-.57,5.83-5.28-.39-7.15,0-14.33-.12-21.49-.08-5.47-1.82-7.2-7.2-7.21q-33.49,0-67,0c-5.39,0-7.13,1.73-7.2,7.21-.09,7.16.27,14.34-.12,21.49C9.94,63.39,11.34,65.2,16,64H86ZM51.24,69h-35c-9.9,0-9.64,0-9.94,9.87C6.16,83.35,7.89,84,11.77,84c24.33-.15,48.66-.07,73-.07,11.12,0,11,0,10.9-11,0-3.06-.83-4-3.93-3.92C78.23,69.1,64.73,69,51.24,69Z" transform="translate(-1 -25.08)"/><path class="cls-2" d="M55,64c1.05-6.5,4.56-9.75,10.81-9.9,3.14-.08,6.28-.09,9.41,0,6.52.18,9.65,3.1,10.72,9.89Z" transform="translate(-1 -25.08)"/><path class="cls-3" d="M16,64c1-6.54,4.44-9.73,10.75-9.89q4.69-.12,9.39,0c6.25.16,9.74,3.4,10.8,9.9Z" transform="translate(-1 -25.08)"/></g></g></svg>