<svg xmlns="http://www.w3.org/2000/svg" viewBox="0 0 90.39 76.57"><defs><style>.cls-1{fill:#444b54;}.cls-2{fill:#fe5677;}</style></defs><title>资源 15</title><g id="图层_2" data-name="图层 2"><g id="图层_1-2" data-name="图层 1"><path class="cls-1" d="M5.8,66.48A17.32,17.32,0,0,1,21.59,49c2.75-.29,3.4-1.19,3.74-3.83,1.81-14.2,12.28-23.83,25.6-23.88S74.82,30.81,76.63,45c.38,3,1.3,3.7,4.14,4,9.08,1,15.51,8.63,15.42,17.85A17.63,17.63,0,0,1,80.82,84.34c-1.86.24-4,.74-4.57-1.63C75.67,80,78,80.17,79.82,79.8,87.37,78.24,92,72.74,91.58,66c-.44-7.17-5.7-12.5-13.59-12.54-5,0-6.06-1.81-6.06-6.41a20.92,20.92,0,1,0-41.83-.13c0,5.06-1.45,6.49-6.46,6.57A12.93,12.93,0,0,0,10.42,65.83c-.48,6.78,4.17,12.41,11.63,14,1.77.36,4.17.12,3.72,2.8-.41,2.43-2.6,2-4.47,1.77A17.64,17.64,0,0,1,5.8,66.48Z" transform="translate(-5.8 -21.25)"/><path class="cls-2" d="M61.26,77.52c-5.08,6.92-10,13.61-14.88,20.3l-1.18-.57c.85-3.48,1.54-7,2.61-10.41s.58-5.39-3.64-4.72a17.21,17.21,0,0,1-3.61-.36L55.1,57.65c1.75,1.29.84,2.8.71,4a59,59,0,0,1-1.14,5.87C52.92,75.77,52.92,75.77,61.26,77.52Z" transform="translate(-5.8 -21.25)"/></g></g></svg>