<svg xmlns="http://www.w3.org/2000/svg" viewBox="0 0 100 98.91"><defs><style>.cls-1{fill:#020202;}</style></defs><title>资源 53</title><g id="图层_2" data-name="图层 2"><g id="图层_1-2" data-name="图层 1"><path d="M1,39.6A31.66,31.66,0,0,0,7.52,25.44c1.77-9.06,9.05-12.2,17.14-7.39C30,21.24,34,26,38.16,30.46c1.11,1.17,2.15,2.41,3.87,4.35-1-7.15-2.11-13.24-2.26-19.47C39.5,4.57,48.32-1.74,57.58,4.63c3.73,2.56,8.37,3,12.74,4,8.44,1.92,11.31,8.76,6.76,16.15-3,4.85-7.3,8.52-11.39,12.39-1,1-2.59,1.53-3.06,3.38,5.72-.59,11.19-2,16.84-2.11C88.3,38.24,96.35,44.36,90,54.93a22.23,22.23,0,0,0-2.94,9.85c-.72,8.78-7.69,12.45-15.62,8.09-6-3.32-10.8-8.22-15.57-13.05a26.67,26.67,0,0,1-2.56-3.61L52.2,57c.43,4.64.81,9.28,1.31,13.91A42.26,42.26,0,0,1,53,83.74c-1.7,8.64-9.15,11.72-16.4,6.68A32.9,32.9,0,0,0,24.47,85c-8.69-1.83-11.34-9.4-5.76-16.51C23.16,62.87,29.1,58.84,35,54.77c1.2-.83,2.38-1.68,4.84-3.43-5.36.64-9.32,1.07-13.27,1.6a65.87,65.87,0,0,1-13.46.37A15.34,15.34,0,0,1,1,46.53Z" transform="translate(-1 -2.08)"/><path class="cls-1" d="M92,101C80.43,92.93,69.55,84.14,61.16,72.66c1.77-1.08,2.88,0,4,1C75.59,83,87.2,90.43,101,94.06,101,101,101,101,92,101Z" transform="translate(-1 -2.08)"/></g></g></svg>