<svg xmlns="http://www.w3.org/2000/svg" viewBox="0 0 57.24 82.68"><defs><style>.cls-1{fill:#454b54;}.cls-2{fill:#859db6;}.cls-3{fill:#637488;}.cls-4{fill:#637487;}.cls-5{fill:#88cbed;}.cls-6{fill:#f16d6e;}.cls-7{fill:#484d56;}.cls-8{fill:#535861;}.cls-9{fill:#51575f;}.cls-10{fill:#494f57;}.cls-11{fill:#494e57;}</style></defs><title>资源 41</title><g id="图层_2" data-name="图层 2"><g id="图层_1-2" data-name="图层 1"><path class="cls-1" d="M50.9,9.69c4.16,0,8.32,0,12.48,0,4.76,0,7,2.47,7.17,7.05a25,25,0,0,1,0,3A22.89,22.89,0,0,0,75,35.88c6.84,9.49,6,22.88-1.16,32.22-2.39,3.12-3.63,6.13-3.24,10a46,46,0,0,1,0,6c-.17,6.48-1.92,8.2-8.49,8.24-7.66,0-15.31.07-23,0-5.57-.06-7.4-1.94-7.67-7.53a29.26,29.26,0,0,1,0-4.49c.48-5-.83-9-3.93-13.28-7.13-9.71-6.68-23.51.69-33.09,2.41-3.13,3.63-6.13,3.25-10a46,46,0,0,1,0-6c.17-6.5,1.89-8.17,8.48-8.24C43.57,9.65,47.23,9.68,50.9,9.69ZM65.8,80.21c.65-3.53-.18-4.56-3.78-2.77-7,3.52-14.45,3.74-21.46.23-4.79-2.4-4.9-.24-4.47,3.41C36,87.9,36,87.9,42.78,87.91H58.61C66.17,87.91,66.17,87.9,65.8,80.21Zm0-58.42c.36-7.7.36-7.7-7.33-7.7h-15c-7.68,0-7.68,0-7.31,7.7-.66,3.59.22,4.52,3.8,2.75a23.85,23.85,0,0,1,22,0C65.59,26.32,66.46,25.36,65.81,21.79Zm-15,5.1a24.11,24.11,0,1,0,24,24.19A24,24,0,0,0,50.83,26.89Z" transform="translate(-22.41 -9.67)"/><path class="cls-2" d="M36.2,21.79c-.37-7.7-.37-7.7,7.31-7.7h15c7.69,0,7.69,0,7.33,7.7A32.06,32.06,0,0,0,36.2,21.79Z" transform="translate(-22.41 -9.67)"/><path class="cls-2" d="M65.8,80.21c.37,7.69.37,7.7-7.19,7.7H42.78c-6.77,0-6.77,0-6.69-6.83a19.36,19.36,0,0,1,3.36.62A32.2,32.2,0,0,0,65.8,80.21Z" transform="translate(-22.41 -9.67)"/><path class="cls-3" d="M65.8,80.21A32.2,32.2,0,0,1,39.45,81.7a19.36,19.36,0,0,0-3.36-.62c-.43-3.65-.32-5.81,4.47-3.41C47.57,81.18,55,81,62,77.44,65.62,75.65,66.45,76.68,65.8,80.21Z" transform="translate(-22.41 -9.67)"/><path class="cls-4" d="M36.2,21.79a32.06,32.06,0,0,1,29.61,0c.65,3.57-.22,4.53-3.81,2.76a23.85,23.85,0,0,0-22,0C36.42,26.31,35.54,25.38,36.2,21.79Z" transform="translate(-22.41 -9.67)"/><path class="cls-5" d="M45.7,51.05c-2.45-2.43-4.93-4.83-7.34-7.31-1.69-1.74-2.19-4-.49-5.73,1.91-2,4.17-1.45,6.11.36,2.64,2.46,5.26,4.93,7.89,7.4C48.25,45.69,46.15,47.41,45.7,51.05Z" transform="translate(-22.41 -9.67)"/><path class="cls-6" d="M56.31,50.84c2,1.95,4,3.92,6,5.84s3,4.28,1,6.45-4.47,1.24-6.42-.79-3.9-4-5.85-6A5.64,5.64,0,0,0,56.31,50.84Z" transform="translate(-22.41 -9.67)"/><path class="cls-7" d="M56.31,50.84A5.64,5.64,0,0,1,51,56.37a5.63,5.63,0,0,1-5.27-5.32c.45-3.64,2.55-5.36,6.17-5.28C54.58,46.39,55.87,48.24,56.31,50.84Z" transform="translate(-22.41 -9.67)"/><path class="cls-8" d="M51.09,33.48a2.07,2.07,0,0,1-2.22-2.08,2.14,2.14,0,1,1,4.26-.29C53.25,32.5,52.46,33.23,51.09,33.48Z" transform="translate(-22.41 -9.67)"/><path class="cls-9" d="M72.75,51.2c-.41,1.27-1.14,2.1-2.53,1.93a2.13,2.13,0,1,1,.47-4.22A2.18,2.18,0,0,1,72.75,51.2Z" transform="translate(-22.41 -9.67)"/><path class="cls-10" d="M30.8,48.91c1.46.23,2.24.94,2.12,2.29a2,2,0,0,1-2.34,1.89,2.09,2.09,0,0,1,.22-4.18Z" transform="translate(-22.41 -9.67)"/><path class="cls-11" d="M51.07,73c-1.58-.26-2.2-1.1-2.16-2.39s1-2,2.27-1.88A1.84,1.84,0,0,1,53.08,71,2.11,2.11,0,0,1,51.07,73Z" transform="translate(-22.41 -9.67)"/></g></g></svg>