<svg xmlns="http://www.w3.org/2000/svg" viewBox="0 0 66.6 88.14"><defs><style>.cls-1{fill:#444b54;}.cls-2{fill:#464d56;}.cls-3{fill:#f9f9f9;}.cls-4{fill:#77c4fe;}.cls-5{fill:#78c4fe;}.cls-6{fill:#535961;}</style></defs><title>资源 42</title><g id="图层_2" data-name="图层 2"><g id="图层_1-2" data-name="图层 1"><path class="cls-1" d="M50.51,96.19A33.41,33.41,0,0,1,17.19,62.61C17.34,44.1,32.48,29,50.72,29.09c18,.12,33,15.21,33.07,33.47A33.42,33.42,0,0,1,50.51,96.19Zm-.22-62.28a28.75,28.75,0,0,0-28.44,29C22,78.74,35.13,91.86,50.7,91.66A29,29,0,0,0,79.14,62.5,28.73,28.73,0,0,0,50.29,33.91Z" transform="translate(-17.19 -8.05)"/><path class="cls-2" d="M59,16.65a8.5,8.5,0,0,1-17-.09,8.5,8.5,0,1,1,17,.09ZM50.61,20.4c2.31-.3,3.79-1.61,3.67-3.92a3.49,3.49,0,0,0-3.92-3.58,3.49,3.49,0,0,0-3.65,3.86C46.78,19.06,48.32,20.27,50.61,20.4Z" transform="translate(-17.19 -8.05)"/><path class="cls-3" d="M50.61,20.4c-2.29-.13-3.83-1.34-3.9-3.64a3.49,3.49,0,0,1,3.65-3.86,3.49,3.49,0,0,1,3.92,3.58C54.4,18.79,52.92,20.1,50.61,20.4Z" transform="translate(-17.19 -8.05)"/><path class="cls-4" d="M39.78,75.91c-2-.61-2.65-1.79-1.84-3.42a7.23,7.23,0,0,1,2.23-2.56c1.94-1.38,2.8-5,6.21-3.4A1.73,1.73,0,0,1,47,69.1C45.12,72,42.91,74.55,39.78,75.91Z" transform="translate(-17.19 -8.05)"/><path class="cls-5" d="M63.32,51.23c0,2.46-5.47,8.37-7.23,8.17S53,58,54,56.4A16.3,16.3,0,0,1,60.64,50,1.77,1.77,0,0,1,63.32,51.23Z" transform="translate(-17.19 -8.05)"/><path class="cls-6" d="M52.78,62.59c-.05,1.3-.64,2.25-2,2.36a2.08,2.08,0,0,1-2.43-2.36,2,2,0,0,1,2.18-2.13A2.14,2.14,0,0,1,52.78,62.59Z" transform="translate(-17.19 -8.05)"/></g></g></svg>