<svg xmlns="http://www.w3.org/2000/svg" viewBox="0 0 82.77 74.39"><defs><style>.cls-1{fill:#fdd700;}.cls-2{fill:#fed400;}.cls-3{fill:#fdda01;}.cls-4{fill:#fed201;}.cls-5{fill:#e3650a;}.cls-6{fill:#e26002;}</style></defs><title>资源 14</title><g id="图层_2" data-name="图层 2"><g id="图层_1-2" data-name="图层 1"><path class="cls-1" d="M50.83,39c-.2,2.92.94,4,4.05,3.85,4.46-.3,9-.14,13.44-.06,5.35.1,6.65,2.05,4.43,6.82-.81,1.75-1.1,3.84-2.83,5.09-8.65-1.56-17.38-.28-26.06-.7-4.9-.24-9.89.73-14.69-1a100.78,100.78,0,0,1,6.56-14.1Z" transform="translate(-9.62 -13.8)"/><path class="cls-2" d="M29.17,53c4.8,1.73,9.79.76,14.69,1,8.68.42,17.41-.86,26.06.7A111,111,0,0,1,62.74,71C59,69.48,55,70.13,51.16,70c-.56-10.77-.56-10.77-11.57-10.78a51.8,51.8,0,0,1-7.48-.09C28.43,58.58,26.66,56.72,29.17,53Z" transform="translate(-9.62 -13.8)"/><path class="cls-3" d="M50.83,39l-15.1-.1,10.2-22.71c.65-1.45,1.44-2.75,3.31-2.3S51,16.06,51,17.54Q50.93,28.28,50.83,39Z" transform="translate(-9.62 -13.8)"/><path class="cls-4" d="M51.16,70c3.88.13,7.82-.52,11.58,1q-3.26,7.23-6.5,14.46c-.7,1.56-1.42,3.19-3.56,2.63C50.75,87.58,51,85.87,51,84.4,51,79.6,51.11,74.8,51.16,70Z" transform="translate(-9.62 -13.8)"/><path class="cls-5" d="M14.5,53.12c-1.87-.41-4.87.91-4.88-2,0-3.34,3.19-2,5.07-2.08s4.78-1,4.79,1.88C19.49,54.24,16.25,52.58,14.5,53.12Z" transform="translate(-9.62 -13.8)"/><path class="cls-5" d="M87.4,53.11c-1.76-.49-5,1.06-4.87-2.32C82.65,48,85.63,49,87.43,49s5.1-1.22,4.95,2.19C92.25,54.05,89.26,52.7,87.4,53.11Z" transform="translate(-9.62 -13.8)"/><path class="cls-6" d="M27.74,29.26c-2.26-.2-7-5.24-6.64-6.59a1.92,1.92,0,0,1,2.13-1.6c1.52.09,6.25,5.29,6,6.63A1.69,1.69,0,0,1,27.74,29.26Z" transform="translate(-9.62 -13.8)"/><path class="cls-6" d="M79.27,21.09c1.2.26,2.2,1.27,1.53,2.38-1.52,2.47-3.25,5-6.32,5.71-1.1.27-1.72-.69-1.71-1.85C72.79,25.76,77.7,20.94,79.27,21.09Z" transform="translate(-9.62 -13.8)"/><path class="cls-6" d="M22.85,80.94a1.84,1.84,0,0,1-1.76-1.72c-.24-1.4,4.54-6.36,6.16-6.44a1.69,1.69,0,0,1,2,1.63C29.41,75.83,24.64,80.89,22.85,80.94Z" transform="translate(-9.62 -13.8)"/><path class="cls-6" d="M80.94,79.08c-.1,1.17-1,2.29-2.16,1.77a11.08,11.08,0,0,1-6-6.11c-.4-1,.42-1.84,1.58-2C75.83,72.59,80.89,77.36,80.94,79.08Z" transform="translate(-9.62 -13.8)"/></g></g></svg>