<svg xmlns="http://www.w3.org/2000/svg" viewBox="0 0 68.03 83"><defs><style>.cls-1{fill:#464c55;}.cls-2{fill:#c7d6e1;}.cls-3{fill:#c9d8e2;}.cls-4{fill:#c6d6e1;}.cls-5{fill:#c8d7e2;}</style></defs><title>资源 3</title><g id="图层_2" data-name="图层 2"><g id="图层_1-2" data-name="图层 1"><path class="cls-1" d="M17,49.5c0-10-.06-20,0-30C17.08,12,21,8.06,28.44,8q22.5-.12,45,0C81,8.06,84.94,11.94,85,19.37q.11,30,0,60c0,7.45-4,11.48-11.41,11.53q-22.5.17-45,0C20.88,90.85,17.06,86.82,17,79,17,69.16,17,59.33,17,49.5Zm63.19,0c0-9.65,0-19.31,0-29,0-6.43-1.25-7.7-7.52-7.71q-21.72-.06-43.44,0c-6.05,0-7.41,1.33-7.42,7.3q0,29.22,0,58.43c0,6,1.41,7.48,7.26,7.49q22,.06,43.95,0c5.62,0,7.13-1.49,7.16-7.08C80.25,69.16,80.2,59.34,80.2,49.51Z" transform="translate(-16.99 -7.96)"/><path class="cls-2" d="M51.32,30c-6.64,0-13.29-.18-19.93.07-3.61.14-4.77-1.24-4.4-4.61A29.12,29.12,0,0,0,27,21c-.09-2.12.88-3,3-2.95q20.93,0,41.85,0c2.42,0,3.26,1,3.14,3.31a36,36,0,0,0,0,5c.24,2.83-1,3.79-3.75,3.73C64.61,29.9,58,30,51.32,30Z" transform="translate(-16.99 -7.96)"/><path class="cls-3" d="M49.92,45.93c-5.81,0-11.62,0-17.44,0-1.82,0-4.13-.24-4.22-2.51C28.17,40.89,30.5,41,32.34,41q17.94,0,35.87,0c1.57,0,3.69-.46,3.68,2.11,0,2.17-1.92,2.69-3.54,2.72-6.14.13-12.28.05-18.43.05Z" transform="translate(-16.99 -7.96)"/><path class="cls-4" d="M49.8,52.94c6.17,0,12.33,0,18.5,0,1.57,0,3.71-.4,3.55,2.22-.12,2.19-2,1.83-3.45,1.84q-18.24,0-36.49,0c-1.72,0-3.7-.1-3.62-2.38S30.43,53,31.8,53C37.8,52.9,43.8,52.94,49.8,52.94Z" transform="translate(-16.99 -7.96)"/><path class="cls-5" d="M40.46,69c-3,0-6,0-9,0-1.61,0-3.14-.39-3.29-2.28s1.26-2.62,2.9-2.64q9.47-.06,18.93,0c1.44,0,2.7.64,2.79,2.25.11,1.94-1.25,2.6-2.9,2.63C46.77,69,43.62,69,40.46,69Z" transform="translate(-16.99 -7.96)"/></g></g></svg>