<svg xmlns="http://www.w3.org/2000/svg" viewBox="0 0 83.32 100"><defs><style>.cls-1{fill:#1f1f1f;}</style></defs><title>资源 49</title><g id="图层_2" data-name="图层 2"><g id="图层_1-2" data-name="图层 1"><path d="M42,1h6c1.77,1.44,3.51,2.92,5.32,4.3C67.84,16.39,80.64,28.9,88.46,45.86,97.53,65.53,91.45,92.72,70,101H58c6.21-8.7,10.45-18.09,9.86-29.07A39.16,39.16,0,0,0,62,52.27C61.31,58.7,60.28,64,55.2,67.05c-5.34,3.26-10.07,1.31-14.38-2.48-3.45,9.09-2.62,17,3.27,26.26,2,3.25,3.22,6.41,2.91,10.17H41c-1.54-1.59-3.43-1.09-5.27-.87C23.4,98.37,14.89,91.71,11.06,79.86c-4-12.43-1.26-24,6-34.53,4-5.71,8.49-11.08,13-16.43C36.9,20.78,41.29,11.69,42,1ZM72.75,89.53c8.89-5.82,13.68-20.25,10.59-31.92C78.09,37.82,63.89,24.9,48.29,12.25c-3,10.69-9.18,18.88-15.82,26.79-2.88,3.44-5.72,6.93-8.33,10.58A33,33,0,0,0,18,73.17c1,9.4,7.23,16.24,16.42,17.53-7.48-16.16-5.32-30.65,7-43.54,1.53,3.47,2.86,6.83,4.5,10,.81,1.57,2.06,3.36,4.2,2.93s2.58-2.37,3-4.2c1.17-5.58-.29-10.85-1.86-16.15-.49-1.67-2.44-4-1-5,1.92-1.25,4.84-1.07,7.15.12a20,20,0,0,1,4,2.93c5.53,4.8,9.14,10.85,11.68,17.68C77.29,66.76,76.59,78,72.75,89.53Z" transform="translate(-9.21 -1)"/><path class="cls-1" d="M36,101a3.37,3.37,0,0,0-.27-.87c1.84-.22,3.73-.72,5.27.87Z" transform="translate(-9.21 -1)"/></g></g></svg>