<svg xmlns="http://www.w3.org/2000/svg" viewBox="0 0 66.28 80.22"><defs><style>.cls-1{fill:#d9dadc;}.cls-2{fill:#474e57;}.cls-3{fill:#72c2fe;}.cls-4{fill:#73c2fe;}.cls-5{fill:#51575f;}</style></defs><title>资源 45</title><g id="图层_2" data-name="图层 2"><g id="图层_1-2" data-name="图层 1"><path class="cls-1" d="M27,101c0-.28,0-.57,0-.85l40.08,0c0,.27,0,.55,0,.82Z" transform="translate(-25.18 -20.78)"/><path class="cls-2" d="M67,100.18l-40.08,0c-2.81-2.32-2.2-4,1.16-4.46a37.48,37.48,0,0,1,8.47-.06C40.17,96,41,94.53,41,91.12c-.14-21.27-.07-42.56-.07-63.83,0-1.33,0-2.66,0-4,0-1.56.74-2.57,2.39-2.52,1.42,0,2,1.07,2.13,2.32.13,1.49.14,3,.14,4.49,0,21.11.09,42.22-.08,63.34,0,3.75,1,4.95,4.75,4.73,5.14-.31,10.31-.08,15.46,0,1.19,0,2.44.19,2.94,1.45C69.3,98.62,68.37,99.54,67,100.18Z" transform="translate(-25.18 -20.78)"/><path class="cls-3" d="M83.62,39.79c-2.69-1.61-7.27.9-7.05-2.82.22-3.88,4.6-1.48,7.08-2.14a1.16,1.16,0,0,1,.49,0c2.36.4,5.56-1.29,6.94,1.27,1.52,2.82-2,4.14-3.28,6-3.75,5.49-3.63,8.68,1.08,14.26C90,57.76,92,59,91.2,61c-.88,2.39-3.26,1.86-5.2,1.86q-11.25,0-22.48,0c-2,0-4.5.28-4.33-2.68.15-2.54,2.51-2.18,4.3-2.19,6.48,0,13,0,20,0C80.13,51.74,79.57,45.76,83.62,39.79Z" transform="translate(-25.18 -20.78)"/><path class="cls-4" d="M69.9,37.12c0,13.89,0,14-13.84,13.8-2.44,0-6.88,1.77-6.77-2.43.1-4,4.48-2.22,7-2.28C65,46,65,46.13,65,37.57c0-9.7,0-9.7-9.56-9.77a20.67,20.67,0,0,1-2.49,0c-1.78-.24-4-.18-3.9-2.78.11-2.44,2.23-2,3.81-2,4.32-.05,8.64.07,13,0,3-.08,4.16,1.35,4.08,4.24C69.83,30.48,69.9,33.8,69.9,37.12Z" transform="translate(-25.18 -20.78)"/><path class="cls-5" d="M78.52,100.08a2.24,2.24,0,0,1-2.45-2A1.92,1.92,0,0,1,78,95.76c1.51-.17,2.64.54,2.65,2.13A2.12,2.12,0,0,1,78.52,100.08Z" transform="translate(-25.18 -20.78)"/></g></g></svg>