<svg xmlns="http://www.w3.org/2000/svg" viewBox="0 0 67.36 86.15"><defs><style>.cls-1{fill:#444b54;}</style></defs><title>资源 47</title><g id="图层_2" data-name="图层 2"><g id="图层_1-2" data-name="图层 1"><path class="cls-1" d="M50.58,45.18c-7.65-2-13.93-.65-20.18,1.17-2.18.63-1.86,2.28-1.73,4Q30,68.79,31.25,87.23c.12,1.83,1.19,4.48-1.86,4.76s-2.46-2.54-2.6-4.35q-2.94-38-5.77-76.1c-.08-1-.1-2-.1-3,0-1.24.21-2.37,1.69-2.63,1.64-.3,2.73.55,2.72,2.08,0,4.11,2.36,3.33,4.88,2.66,10.44-2.77,20.73-2,30.93,1.32,2.74.9,4.42,2.19,3.81,5.33s1.21,3.19,3.5,3.09a38.39,38.39,0,0,0,13.1-2.78c2.9-1.2,4.46-.52,4.69,2.75q1,14,2,27.88c.17,2.17-.73,3.32-2.78,4.06a53.29,53.29,0,0,1-38-.13c-1.33-.5-2.53-1-2.55-2.62,0-1.36,1-2,2.06-2.53C47.82,46.61,48.68,46.15,50.58,45.18Zm-22.36-3a44.85,44.85,0,0,1,27.64-.78c2.35.69,2.59-.38,2.72-2,.49-6.79.94-13.6,1.46-20.39.14-1.84-.62-2.59-2.37-3.1a50.69,50.69,0,0,0-29,0c-1.76.51-2.38,1.24-2.21,3.14C27.15,26.57,27.64,34.17,28.22,42.13Z" transform="translate(-20.91 -5.86)"/></g></g></svg>