<svg xmlns="http://www.w3.org/2000/svg" viewBox="0 0 70.03 62.02"><defs><style>.cls-1{fill:#020202;}.cls-2{fill:#060606;}.cls-3{fill:#070707;}.cls-4{fill:#040404;}.cls-5{fill:#0c0c0c;}.cls-6{fill:#474747;}.cls-7{fill:#4d4d4d;}.cls-8{fill:#3d3d3d;}.cls-9{fill:#0e0e0e;}</style></defs><title>资源 7</title><g id="图层_2" data-name="图层 2"><g id="图层_1-2" data-name="图层 1"><path class="cls-1" d="M18.89,24.72c1.85-3.36,5.1-4.58,8.52-4.61,15.64-.17,31.27-.14,46.91,0,3.59,0,6.81,1.31,8.79,4.65l-.18,2.46c-3.55-4.29-8.07-5.43-13.58-5.29-13.08.35-26.17.18-39.26.08-4.3,0-8.08.87-11,4.2Z" transform="translate(-15.98 -19.99)"/><path class="cls-1" d="M83.1,77.27C81,80.75,77.59,81.94,73.82,82,58.53,82,43.24,82,28,82A8,8,0,0,1,22,80l0-1.09c4.35,1.39,8.85,1.1,13.31,1.1,11.31,0,22.63-.25,33.93.11,5.53.18,10.08-1,13.65-5.28Z" transform="translate(-15.98 -19.99)"/><path class="cls-1" d="M22,78.89,22,80c-4.26-2-5.9-5.67-6-10C15.92,57.26,16,44.53,16,31.8c0-2.67.65-5.22,2.85-7.08l.18,1.45C18.64,29.09,17.91,31.94,18,35q.21,16.4,0,32.79C17.91,72.07,18.88,75.83,22,78.89Z" transform="translate(-15.98 -19.99)"/><path class="cls-1" d="M83.1,77.27l-.17-2.45A20.7,20.7,0,0,0,84,67.48q-.09-16.48,0-33a20.68,20.68,0,0,0-1.09-7.33l.18-2.46C85.56,26.89,86,29.8,86,32.83Q86,51,86,69.16C86,72.19,85.56,75.1,83.1,77.27Z" transform="translate(-15.98 -19.99)"/><path class="cls-2" d="M77.58,77c-17.74.11-35.48.07-53.22,0V75.57h53.2Z" transform="translate(-15.98 -19.99)"/><path class="cls-3" d="M48.06,65.66c-.19,1.56-1.93,3.63,1.86,3.41a140.55,140.55,0,0,1,16.42,0c3.8.23,1.66-1.85,1.63-3.18,1.51.63,1.9,2.17,3,3.64-2.33.94-4.63.44-6.84.45-11.31.07-22.62,0-33.93,0-.9,0-2,.5-2.68-.52-.15-.24.15-.91.4-1.26,1.52-2.1.95,1,2.19.89,4.63-.34,9.31-.16,14-.12C46.34,69,46.44,66.42,48.06,65.66Z" transform="translate(-15.98 -19.99)"/><path class="cls-3" d="M21.63,73.56V28.43h.79V73.62Z" transform="translate(-15.98 -19.99)"/><path class="cls-4" d="M24.27,25.74H69.14l0,.28H24.3Z" transform="translate(-15.98 -19.99)"/><path class="cls-5" d="M80.6,54.58c-.08,6.34,1.43,12.85-.84,19.15C80.55,67.39,79.6,61,80.6,54.58Z" transform="translate(-15.98 -19.99)"/><path class="cls-6" d="M67.7,33.28a23.68,23.68,0,0,0-5.31-.22C64.09,31.7,65.85,31.32,67.7,33.28Z" transform="translate(-15.98 -19.99)"/><path class="cls-6" d="M59.08,41.73c-1.39-1.87-1.67-3.74.39-6.71C59.35,38,58.72,39.92,59.08,41.73Z" transform="translate(-15.98 -19.99)"/><path class="cls-7" d="M62.39,44.52l5.86.48C65.69,46.52,63.94,46.52,62.39,44.52Z" transform="translate(-15.98 -19.99)"/><path class="cls-8" d="M71.47,41.93l-1.1-6.3C72.6,37.54,72.13,39.12,71.47,41.93Z" transform="translate(-15.98 -19.99)"/><path class="cls-9" d="M80.53,46.27a5.14,5.14,0,0,1,0,4.56A4.7,4.7,0,0,1,80.53,46.27Z" transform="translate(-15.98 -19.99)"/></g></g></svg>