<svg xmlns="http://www.w3.org/2000/svg" viewBox="0 0 74.56 99.13"><title>资源 48</title><g id="图层_2" data-name="图层 2"><g id="图层_1-2" data-name="图层 1"><path d="M43,1h1c.69,1.7,2.47,2,3.8,2.81A89.64,89.64,0,0,1,74,27.25C85.3,42.61,90.62,59.69,86.89,78.74c-2.35,12-14,21.51-24.89,21.26,18.86-16.81,14.5-47.65-6.55-62.7-2,20.39-3.18,25.18-8,31.63-1.5-5.12-2.78-10.32-7.25-13.24C33,70.43,24.48,84.93,38,100.13,28,99.49,18.38,91.49,15.15,80.72c-3.92-13.08-.41-24.92,6.52-36.09C30.24,30.8,39,17,43,1Z" transform="translate(-13.51 -1)"/></g></g></svg>