<svg xmlns="http://www.w3.org/2000/svg" viewBox="0 0 94.11 94.12"><defs><style>.cls-1{fill:#010101;}.cls-2{fill:#040404;}.cls-3{fill:#050505;}.cls-4{fill:#0c0c0c;}.cls-5{fill:#0f0f0f;}.cls-6{fill:#3e3e3e;}.cls-7{fill:#1b1b1b;}.cls-8{fill:#191919;}.cls-9{fill:#181818;}.cls-10{fill:#1a1a1a;}.cls-11{fill:#f8f8f8;}.cls-12{fill:#fafafa;}</style></defs><title>资源 4</title><g id="图层_2" data-name="图层 2"><g id="图层_1-2" data-name="图层 1"><path class="cls-1" d="M97.79,51.1c1.07,5.55-1.41,8.2-7,9.15s-8.17,7.73-5,12.47c3,4.4,2.55,7.65-1.4,11.25-5.65,5.15-5.64,5.38-11.9,1.72-4.9-2.87-11.42-.29-12.35,5.39s-4.16,7-9.43,7-8.07-1.35-9-6.83A8,8,0,0,0,29.17,86c-4.8,3.34-7.89,1.88-11.61-1.84S13,77.34,16,72.86a8,8,0,0,0-5.25-12.64c-5.89-1-6.8-4.37-6.86-9.52s1.62-8,7-8.91A8.07,8.07,0,0,0,16,29.06c-3.4-4.87-1.58-7.9,2-11.59s6.84-4.36,11.26-1.37a8.06,8.06,0,0,0,12.56-5.42C42.81,4.73,46.33,4,51.42,4c4.92,0,7.76,1.34,8.73,6.56,1.17,6.3,7.65,9.06,12.89,5.43,4.66-3.23,7.65-1.78,11.19,1.77s5.07,6.52,1.85,11.2a8.11,8.11,0,0,0,5.35,12.93C97,42.86,98.67,45.92,97.79,51.1Zm-12.67-27c-1.05-2.68-3.58-4.18-5.45-6.19s-3.34-.08-4.79.76C67.26,23,59,19.79,57.14,11.24c-.82-3.78-2.79-4.16-6-4.14s-5.5.21-6.34,4.31c-1.72,8.34-10.32,12-17.35,7.28C24,16.36,22.34,17.74,20,20s-3.6,4-1.29,7.47c4.65,7,.95,15.57-7.32,17.36-3.59.78-4.45,2.48-4.3,5.84.14,3.15-.09,5.88,4.2,6.43,2.16.27,5.38.06,6.2,2.44,1.77,5.06,6.56,10.11.87,15.78-3.13,3.13.24,4.83,2,6.85C22.22,84.42,24,85.89,27,83.59c1.76-1.35,3.62-3.17,6.09-3C38.23,81,43.94,85.75,44.91,91c.73,4,3.2,3.82,6.16,3.88,3.12.07,5.51-.09,6-4.05.29-2.18.09-5.44,2.38-6.23,5-1.74,10.08-6.7,15.76-1,3.13,3.13,4.88,0,6.88-1.84s3.92-3.49,1.54-6.62c-1.41-1.86-4-4.06-2.85-6.48,2.31-4.82,2.39-11.81,10.51-11.8,4.23,0,3.35-3.54,3.54-6.3.21-3-.36-5.19-3.94-5.56-4.24-.44-6.65-2.4-8.38-6.87s-2-7.68,1-11.25A18,18,0,0,0,85.12,24.08Z" transform="translate(-3.93 -3.95)"/><path class="cls-2" d="M23,48.05c.16-5.67,3.3-12.59,9.48-18,1.07-.94,2.35-3.25,4-1.22,1.4,1.71-.88,2.45-1.85,3.36-12.83,12.15-11,31.7,3.75,40.38a25.53,25.53,0,0,0,10.82,3.41c1.27.11,3.17-.26,3.11,1.56-.06,2.25-2.16,1.52-3.5,1.49C34.79,78.65,22.79,65.44,23,48.05Z" transform="translate(-3.93 -3.95)"/><path class="cls-3" d="M47.94,39c0,8.6-5.27,15.47-13.66,18-2,.59-2.67-.14-3.19-1.88-2.59-8.83,4.25-20.7,13.3-23.32,2.79-.8,3.67,0,3.56,2.69C47.88,36,47.94,37.52,47.94,39ZM34.07,52.83c7.78-2,11.4-7.47,10.83-14.3-.22-2.7-.78-3.32-3.11-1.72C36.15,40.67,33.32,45.83,34.07,52.83Z" transform="translate(-3.93 -3.95)"/><path class="cls-2" d="M50.75,71.19a19.2,19.2,0,0,1-13.15-5c-1.47-1.26-2.38-2.64-.06-3.79,4.61-2.3,8.44-6,14.45-5.53,5.41.44,9,3.81,13.19,6.16,1.82,1,.12,2.25-.82,3.07A19.11,19.11,0,0,1,50.75,71.19Zm10.09-6.73c-6.43-6.42-14.59-5.69-19.55.22C48.71,69.46,53.85,69.4,60.84,64.46Z" transform="translate(-3.93 -3.95)"/><path class="cls-3" d="M71.2,51c-.06,7-.87,7.2-7.26,3.94-10.81-5.5-10.14-12-9.86-21.26.1-3.06,2-2.29,3.84-1.73C65.59,34.37,71.28,42.52,71.2,51Zm-3.64,1.78a15.61,15.61,0,0,0-7.2-15.94c-2.84-1.81-3-.71-3.27,2C56.57,45,59.81,50.57,67.56,52.81Z" transform="translate(-3.93 -3.95)"/><path class="cls-4" d="M49.12,22.94c1.25.1,3.05-.52,3.2,1.38S50.71,26,49.41,26.09c-.66.05-1.32.16-2,.15-1.89,0-4.84,2.57-5.38-.56-.43-2.54,3.21-1.92,5.09-2.58A8,8,0,0,1,49.12,22.94Z" transform="translate(-3.93 -3.95)"/><path class="cls-5" d="M54.06,50.92C53.91,52.84,52.94,54,51,54a2.76,2.76,0,0,1-3-3.16A2.72,2.72,0,0,1,50.79,48C52.76,47.89,53.81,49,54.06,50.92Z" transform="translate(-3.93 -3.95)"/><path class="cls-6" d="M77.79,52.8c-1.43-.11-3.27.17-3.26-2,0-1.39,1.4-1.62,2.6-1.62,1.45,0,3.32-.21,3.51,1.7C80.81,52.62,79.11,52.69,77.79,52.8Z" transform="translate(-3.93 -3.95)"/><path class="cls-7" d="M59,28.74c-1.23-.12-2.08-.83-1.75-1.88.45-1.43.17-3.48,2.22-3.95,1.28-.29,1.75.6,1.63,1.74C60.91,26.27,60.56,27.85,59,28.74Z" transform="translate(-3.93 -3.95)"/><path class="cls-8" d="M68.89,28.86c-.86,1.2-1.22,3.28-3.47,3.24a1.18,1.18,0,0,1-1.15-1.69c.78-1.52,1.29-3.51,3.53-3.5C68.75,26.91,69.12,27.68,68.89,28.86Z" transform="translate(-3.93 -3.95)"/><path class="cls-9" d="M75.14,34.82a5.26,5.26,0,0,1-4,3,1.22,1.22,0,0,1-1.28-1.62,4.56,4.56,0,0,1,4-3.11C74.81,32.88,75.17,33.71,75.14,34.82Z" transform="translate(-3.93 -3.95)"/><path class="cls-7" d="M79.09,42.74c-.75,1.78-2.71,1.75-4.37,2a1.33,1.33,0,0,1-1.39-1.6c.74-2,2.67-2.15,4.45-2.26C78.72,40.84,79.24,41.46,79.09,42.74Z" transform="translate(-3.93 -3.95)"/><path class="cls-10" d="M77.4,61.18c-1.68-.45-3.59-.46-4.07-2.34a1.4,1.4,0,0,1,1.84-1.6c1.42.47,3.47.21,3.91,2.29C79.38,60.92,78.29,61.05,77.4,61.18Z" transform="translate(-3.93 -3.95)"/><path class="cls-9" d="M71.26,64.12c1.53.71,3.31,1.28,3.84,3.24A1.16,1.16,0,0,1,73.83,69a4.57,4.57,0,0,1-4-3.11C69.63,65,70.18,64.3,71.26,64.12Z" transform="translate(-3.93 -3.95)"/><path class="cls-8" d="M65.63,69.8c1.94.4,2.71,2,3.32,3.69a1.19,1.19,0,0,1-1.24,1.64C65.55,75,65,73.07,64.25,71.5,63.84,70.58,64.69,70.09,65.63,69.8Z" transform="translate(-3.93 -3.95)"/><path class="cls-10" d="M59.07,79c-1.58-.68-1.57-2.63-1.84-4.29a1.34,1.34,0,0,1,1.62-1.39c2,.74,2.13,2.67,2.24,4.45C61.14,78.69,60.58,79.28,59.07,79Z" transform="translate(-3.93 -3.95)"/><path class="cls-11" d="M34.07,52.83c-.75-7,2.08-12.16,7.72-16,2.33-1.6,2.89-1,3.11,1.72C45.47,45.36,41.85,50.81,34.07,52.83Z" transform="translate(-3.93 -3.95)"/><path class="cls-12" d="M60.84,64.46c-7,4.94-12.13,5-19.55.22C46.25,58.77,54.41,58,60.84,64.46Z" transform="translate(-3.93 -3.95)"/><path class="cls-11" d="M67.56,52.81c-7.75-2.24-11-7.82-10.47-14,.22-2.69.43-3.79,3.27-2A15.61,15.61,0,0,1,67.56,52.81Z" transform="translate(-3.93 -3.95)"/></g></g></svg>