<svg xmlns="http://www.w3.org/2000/svg" viewBox="0 0 91.97 91.97"><defs><style>.cls-1{fill:#e9e9e9;}.cls-2{fill:#ececec;}.cls-3{fill:#eaeaea;}</style></defs><title>资源 17</title><g id="图层_2" data-name="图层 2"><g id="图层_1-2" data-name="图层 1"><path d="M51,5A46,46,0,1,1,5,51.16,46.08,46.08,0,0,1,51,5ZM51,65c5.37,0,10.63-.72,15.47-3.2C74,58,77.14,49.31,73.31,41.9a10.37,10.37,0,0,1-.8-8c.53-2.05,1.35-4.71-.73-6-1.86-1.18-4.29.15-5.9,1.37-2.41,1.82-4.51,1.89-7.29.91a21,21,0,0,0-13.27-.45c-3.79,1.17-7,1.27-10.65-.93C30,26,28.51,27.38,29.12,32.84c.32,2.87,1.44,5.41-.33,8.59C24.24,49.59,27.46,58.22,36,62.19,40.72,64.42,45.81,65,51,65ZM15.68,51.07c1.66,0,3.33-.08,5,0s2.27-.33,2.31-2.18c.14-6.81,3.65-13.09,2.3-20.33-.82-4.42,2.71-7,6.54-5.14C38,26.51,44,26.22,50.33,25.09a13.07,13.07,0,0,1,5.92.46,12.64,12.64,0,0,0,10.23-1.06c7.2-3.63,11.4-.53,10.28,7.45-.54,3.92-.89,7.51,1.28,11,1.6,2.53-.92,6.65,2,8,2.49,1.12,6-.12,8.87.33,4,.6,4.33-1.12,4-4.37a42.11,42.11,0,0,0-83.79.06c-.36,3.47.41,5,4.09,4.22A12.25,12.25,0,0,1,15.68,51.07ZM60.33,68.33c6,6.39,4.32,14.31,4.88,22.16,11.68-4.55,19.59-12.13,24.36-23,4-9,3.66-9.49-6.17-10.21-2.36-.17-5.51-1.58-7,.75C72.61,63.78,67.05,66.35,60.33,68.33ZM61,84.88c0-1.83.13-3.66,0-5.47-.58-6.74-3.92-10.26-9.62-10.29-6,0-9.58,3.64-10.26,10.34-1.24,12.26.34,14,12.21,13.5C61,92.62,61,92.62,61,84.88Zm-19-16.45c-5.75-1.61-11.32-3.1-14.53-7.85-2.28-3.37-4.86-3.93-8.34-3.4-2.3.35-4.62.64-6.94.8-1.7.12-2.2.77-2.06,2.51C11,71.94,25.34,87.8,37,89.89a17.6,17.6,0,0,1,0-3c.79-4.53-.54-6.54-5.62-6-4.42.43-7.44-2.27-9.07-6.41-1-2.47-1.89-5-4-6.78-1.07-.93-1.69-2.06-.56-3.46a3,3,0,0,1,3.59-1c2.63.86,4.42,2.84,6.25,4.78C31.32,71.94,36.7,72.25,41.91,68.43Zm36-13.63c4.23.44,8.47.9,12.7,1.32,1,.09,2.07.19,2.21-1.23a1.34,1.34,0,0,0-1.37-1.64C87,53.13,82.47,52.41,77.94,54.8Zm-54.18,0c-4.47-2.39-9.11-1.71-13.7-1.45-.69,0-1,.79-.92,1.51.13,1.39,1.15,1.39,2.15,1.29C15.45,55.69,19.6,55.22,23.76,54.77Zm3,17.72c1.38,5,7,6.32,11.11,2.76C34.1,74.55,30,75.83,26.77,72.49Z" transform="translate(-5.01 -5.01)"/><path class="cls-1" d="M77.94,54.8c4.53-2.39,9-1.67,13.54-1.55a1.34,1.34,0,0,1,1.37,1.64c-.14,1.42-1.23,1.32-2.21,1.23C86.41,55.7,82.17,55.24,77.94,54.8Z" transform="translate(-5.01 -5.01)"/><path class="cls-2" d="M23.76,54.77c-4.16.45-8.31.92-12.47,1.35-1,.1-2,.1-2.15-1.29-.07-.72.23-1.47.92-1.51C14.65,53.06,19.29,52.38,23.76,54.77Z" transform="translate(-5.01 -5.01)"/><path class="cls-3" d="M26.77,72.49c3.23,3.34,7.33,2.06,11.11,2.76C33.72,78.81,28.15,77.51,26.77,72.49Z" transform="translate(-5.01 -5.01)"/></g></g></svg>