<svg xmlns="http://www.w3.org/2000/svg" viewBox="0 0 91.92 89.65"><title>资源 18</title><g id="图层_2" data-name="图层 2"><g id="图层_1-2" data-name="图层 1"><path d="M55.07,67.06c7.59-1.4,14.61-2.88,19.1-9.4.9-1.3,2.5-.64,3.75-.58a119.06,119.06,0,0,0,14.28.28C87,55.24,81.39,55.19,75.86,54.24c5.54-2.13,11.39-.77,17-1.33l.06-2c-4.1,0-8.2-.18-12.28.06-2.83.17-4.4-.2-3.89-3.59A7.19,7.19,0,0,0,76,43.06c-2.08-3.55-1.8-7.06-1.2-11,1-6.64-2.14-9-7.94-5.57-3.8,2.25-6.95,1.86-10.67,1a16.56,16.56,0,0,0-5.94-.42c-6.29.84-12.4,2.22-18.45-1.65-2.8-1.79-5.27.71-4.6,3.55,1.66,7-1.81,13.2-2.15,19.81-.14,2.72-1.48,2.34-3.15,2.35-4.21,0-8.47-.39-12.61,1.22C14.62,54,20.35,52,25.71,54.73c-2.79.25-5.61.34-8.37.8s-5.83-.11-8.43,2.24c5.16,1.1,9.84-1,14.61-.7,1.29.07,2.93-.66,3.8.55C32,64.16,39.11,65.84,46.54,67,37.26,78.19,28.7,72.7,20.23,64.4l-.13,2c.53.62,1.29,1.17,1.54,1.9C24.21,75.78,28.36,80.86,37.32,79c.89-.18,1.66.17,1.66,1.29,0,3.83.3,7.71-.21,11.47-.45,3.33-3,2.77-5.33,1.71C19,87,9.35,76.24,6.15,60.69,2.27,41.84,8.2,25.9,23.53,14.35c15-11.29,31.71-12.77,48.4-4.13C89,19,97.25,33.79,96.9,53c-.31,17.42-12.47,34.36-28.52,40.61C64.69,95.05,63,94,63,90.09c0-2-.11-4,0-6C63.49,77.16,61.37,71.4,55.07,67.06Z" transform="translate(-5 -4.66)"/></g></g></svg>