<svg xmlns="http://www.w3.org/2000/svg" viewBox="0 0 100 99.14"><defs><style>.cls-1{fill:#f7f7f7;}.cls-2{fill:#e8e8e8;}.cls-3{fill:#090909;}.cls-4{fill:#080808;}.cls-5{fill:#070707;}</style></defs><title>资源 55</title><g id="图层_2" data-name="图层 2"><g id="图层_1-2" data-name="图层 1"><path d="M1,42.57V21.78C6.22,12.67,14.74,8,24.39,5.05,29.83,3.39,35.46,2.32,41,1H61c.87,1.46,2.37.76,3.58,1C78.91,4.64,92.72,8.22,101,21.78V60.4c-3.37,5.91-8.93,9.21-14.91,11.81-17.14,7.41-35,8.9-53.23,5.36C20.72,75.22,9.1,71.64,1,61.39V47.52C7.55,57,16.92,62,28,64.48a106.08,106.08,0,0,0,32.72,2c9.71-.86,19-2.95,27.54-7.82a28.26,28.26,0,0,0,9.54-8.09c-6.91.5-12.89-.55-16.89,6-2.26,3.68-6.62,4.81-11.12,3.12-2.47-.93-5.16-1.54-7.38-2.89-3.31-2-6-1.47-8.36,1.16-5.94,6.74-13.29,6.38-20-.2-2.62-2.59-4.76-2.59-7.89-1.41-6.55,2.47-9.45,1.25-13.2-4.81-.75-1.2-1-3-2.9-3.05C5.73,48.43,3.32,45.59,1,42.57Zm54,4.84c5.46-1.2,9.87,1.81,14.61,3.54,1.73.63,3.62,2,5.39-.07,2.14-2.57,4.3-5.13,7.18-8.55A158.64,158.64,0,0,1,55,46.59c-12.75-.22-25.42-1.1-38.18-5.4C21,48.88,21,48.94,28.24,47a8.13,8.13,0,0,1,8.28,1.94q2.17,2,4.42,4c2.38,2.07,4.53,2.27,6.78-.41C49.66,50.25,52.37,48.84,55,47.41Zm-4-9.35a109.88,109.88,0,0,0,20.33-1.73,53,53,0,0,0,12.38-3.61c3.56-1.69,8.35-3,8.64-7.29s-4.09-6.65-7.6-8.33c-22.49-10.77-45.1-10.72-67.58,0-3.52,1.68-7.92,4-7.56,8.35s5,5.73,8.68,7.24C28.77,37.06,39.84,37.91,51,38.06ZM81.8,42.44,82,43.6l10.94-1.21a3.67,3.67,0,0,0-1.45-4.06Z" transform="translate(-1 -0.99)"/><path d="M1,68.32c3.63,3.14,8.53,4.84,9.32,10.89.41,3.1,4.41,4.69,7.44,6.1,12.06,5.62,24.91,6.84,38,6.31,9.33-.38,18.59-1.71,27.15-5.68,4.75-2.21,9.31-4.44,10.19-11,.41-3.11,5.29-4.31,7.92-6.64V80.2c-3.93,7.88-10.71,12.29-18.84,14.94-20.06,6.53-40.27,6.55-60.44.66C13,93.23,5.21,88.9,1,80.2Z" transform="translate(-1 -0.99)"/><path class="cls-1" d="M55,47.41c0-.27,0-.55,0-.82a158.64,158.64,0,0,0,27.18-4.26c-2.88,3.42-5,6-7.18,8.55-1.77,2.12-3.66.7-5.39.07C64.87,49.22,60.46,46.21,55,47.41Z" transform="translate(-1 -0.99)"/><path class="cls-2" d="M81.8,42.44l9.67-4.11a3.67,3.67,0,0,1,1.45,4.06L82,43.6Z" transform="translate(-1 -0.99)"/><path class="cls-3" d="M39.48,31.61c-2.2-.34-3.63-1.41-3.67-3.79A3.31,3.31,0,0,1,39,24.15a3.47,3.47,0,0,1,4,3.4C43.16,29.91,41.57,31,39.48,31.61Z" transform="translate(-1 -0.99)"/><path class="cls-4" d="M43.35,20.22c-2.17-.3-3.49-1.34-3.41-3.56s1.49-3.8,3.79-3.6a3.44,3.44,0,0,1,3.34,4.08C46.85,19.35,45.26,20.08,43.35,20.22Z" transform="translate(-1 -0.99)"/><path class="cls-5" d="M35.66,20.29c-.42,2.08-1.4,3.68-3.83,3.62a3.43,3.43,0,0,1-3.69-3.69,3.37,3.37,0,0,1,3.49-3.39C34,16.69,35.18,18.12,35.66,20.29Z" transform="translate(-1 -0.99)"/></g></g></svg>