<?xml version="1.0" standalone="no"?>
<!DOCTYPE svg PUBLIC "-//W3C//DTD SVG 20010904//EN"
 "http://www.w3.org/TR/2001/REC-SVG-20010904/DTD/svg10.dtd">
<svg version="1.0" xmlns="http://www.w3.org/2000/svg"
 width="100.000000pt" height="100.000000pt" viewBox="0 0 100.000000 100.000000"
 preserveAspectRatio="xMidYMid meet">

<g transform="translate(0.000000,100.000000) scale(0.100000,-0.100000)"
fill="#000000" stroke="none">
<path d="M703 893 c-12 -2 -36 -20 -54 -40 -44 -51 -38 -96 26 -186 27 -37 52
-67 56 -67 13 0 41 33 82 95 32 50 38 66 34 98 -3 21 -14 48 -24 59 -17 20
-74 49 -90 47 -4 -1 -18 -4 -30 -6z m77 -63 c29 -29 25 -70 -11 -118 -17 -23
-32 -42 -34 -42 -2 0 -17 19 -34 42 -38 51 -41 100 -9 122 31 22 64 20 88 -4z"/>
<path d="M185 566 c-60 -26 -116 -114 -115 -181 1 -11 7 -36 14 -55 15 -42
165 -250 181 -250 14 0 161 198 180 243 8 20 15 51 15 69 -1 68 -60 153 -123
177 -38 15 -115 13 -152 -3z m138 -37 c73 -38 107 -109 84 -177 -17 -49 -137
-217 -147 -205 -22 26 -100 133 -119 163 -29 48 -28 116 2 161 39 59 125 86
180 58z"/>
<path d="M672 568 c-16 -16 -15 -48 2 -48 20 0 39 27 32 45 -7 18 -18 19 -34
3z"/>
<path d="M595 459 c-10 -30 8 -44 29 -24 9 9 16 23 16 31 0 22 -38 17 -45 -7z"/>
<path d="M576 382 c-3 -6 3 -21 13 -33 16 -20 22 -22 33 -11 9 9 10 17 2 30
-13 20 -39 27 -48 14z"/>
<path d="M662 298 c-16 -16 3 -48 28 -48 24 0 26 23 4 44 -18 19 -17 19 -32 4z"/>
<path d="M735 210 c-4 -7 2 -22 14 -33 16 -17 23 -19 33 -9 9 9 10 17 2 30
-14 21 -40 27 -49 12z"/>
<path d="M816 121 c-10 -16 5 -41 26 -41 14 0 19 6 16 22 -3 24 -32 36 -42 19z"/>
<path d="M350 99 c0 -16 5 -20 27 -17 17 2 29 10 31 21 3 13 -3 17 -27 17 -25
0 -31 -4 -31 -21z"/>
<path d="M465 110 c-4 -7 -3 -16 3 -22 14 -14 57 -6 57 12 0 18 -50 26 -60 10z"/>
<path d="M582 103 c4 -22 47 -30 59 -12 12 20 1 29 -32 29 -24 0 -30 -4 -27
-17z"/>
<path d="M702 103 c2 -11 14 -19 31 -21 22 -3 27 1 27 17 0 17 -6 21 -31 21
-24 0 -30 -4 -27 -17z"/>
</g>
</svg>
