<?xml version="1.0" standalone="no"?>
<!DOCTYPE svg PUBLIC "-//W3C//DTD SVG 20010904//EN"
 "http://www.w3.org/TR/2001/REC-SVG-20010904/DTD/svg10.dtd">
<svg version="1.0" xmlns="http://www.w3.org/2000/svg"
 width="100.000000pt" height="100.000000pt" viewBox="0 0 100.000000 100.000000"
 preserveAspectRatio="xMidYMid meet">

<g transform="translate(0.000000,100.000000) scale(0.100000,-0.100000)"
fill="#000000" stroke="none">
<path d="M383 819 c-46 -13 -99 -67 -113 -116 -22 -71 -15 -76 103 -71 101 4
137 14 199 55 22 14 30 15 40 5 10 -10 10 -17 0 -32 -18 -29 -15 -37 19 -49
32 -11 32 -11 26 -70 -6 -69 -26 -108 -72 -139 -96 -66 -222 -7 -242 113 -4
26 -10 35 -26 35 -17 0 -19 -5 -15 -44 7 -57 40 -111 91 -144 34 -23 52 -27
108 -27 59 0 73 4 110 30 23 17 53 50 66 74 20 38 23 58 23 152 0 101 -2 109
-25 138 -14 16 -36 33 -48 37 -12 4 -32 17 -45 29 -34 34 -125 45 -199 24z"/>
<path d="M410 274 c-30 -8 -79 -30 -108 -49 -51 -35 -112 -105 -112 -132 0
-27 38 -12 64 26 111 160 381 160 492 0 26 -38 64 -53 64 -26 0 27 -61 97
-112 131 -55 36 -149 67 -203 65 -16 0 -55 -7 -85 -15z"/>
</g>
</svg>
