<?xml version="1.0" standalone="no"?>
<!DOCTYPE svg PUBLIC "-//W3C//DTD SVG 20010904//EN"
 "http://www.w3.org/TR/2001/REC-SVG-20010904/DTD/svg10.dtd">
<svg version="1.0" xmlns="http://www.w3.org/2000/svg"
 width="100.000000pt" height="100.000000pt" viewBox="0 0 100.000000 100.000000"
 preserveAspectRatio="xMidYMid meet">

<g transform="translate(0.000000,100.000000) scale(0.100000,-0.100000)"
fill="#000000" stroke="none">
<path d="M645 840 c-18 -20 -18 -22 45 -85 l64 -65 -50 0 c-199 0 -372 -138
-413 -328 -16 -77 -15 -82 18 -82 29 0 40 18 41 65 0 36 50 129 93 173 66 68
126 95 227 100 l85 4 -65 -66 c-64 -66 -64 -66 -44 -86 19 -20 20 -20 124 85
l105 105 -100 100 c-55 55 -102 100 -106 100 -3 0 -14 -9 -24 -20z"/>
<path d="M160 410 l0 -250 340 0 340 0 0 90 0 90 -30 0 -30 0 0 -60 0 -60
-280 0 -280 0 0 220 0 220 -30 0 -30 0 0 -250z"/>
</g>
</svg>
