<?xml version="1.0" standalone="no"?>
<!DOCTYPE svg PUBLIC "-//W3C//DTD SVG 20010904//EN"
 "http://www.w3.org/TR/2001/REC-SVG-20010904/DTD/svg10.dtd">
<svg version="1.0" xmlns="http://www.w3.org/2000/svg"
 width="100.000000pt" height="100.000000pt" viewBox="0 0 100.000000 100.000000"
 preserveAspectRatio="xMidYMid meet">

<g transform="translate(0.000000,100.000000) scale(0.100000,-0.100000)"
fill="#000000" stroke="none">
<path d="M160 343 c0 -16 39 -71 76 -108 22 -21 68 -52 104 -69 59 -28 74 -31
160 -31 86 0 101 3 160 31 36 17 82 48 104 69 37 37 76 92 76 108 0 4 -67 7
-149 7 l-149 0 -6 -24 c-11 -46 -76 -41 -76 5 0 18 -10 19 -150 19 -82 0 -150
-3 -150 -7z"/>
</g>
</svg>
