<?xml version="1.0" standalone="no"?>
<!DOCTYPE svg PUBLIC "-//W3C//DTD SVG 20010904//EN"
 "http://www.w3.org/TR/2001/REC-SVG-20010904/DTD/svg10.dtd">
<svg version="1.0" xmlns="http://www.w3.org/2000/svg"
 width="100.000000pt" height="100.000000pt" viewBox="0 0 100.000000 100.000000"
 preserveAspectRatio="xMidYMid meet">

<g transform="translate(0.000000,100.000000) scale(0.100000,-0.100000)"
fill="#000000" stroke="none">
<path d="M345 881 c-91 -24 -165 -83 -205 -166 -33 -69 -33 -170 -2 -241 85
-190 337 -237 480 -91 114 117 114 303 -1 415 -71 69 -188 105 -272 83z m190
-75 c196 -115 145 -411 -80 -459 -43 -9 -66 -8 -103 1 -229 60 -260 367 -47
469 68 33 162 28 230 -11z"/>
<path d="M325 776 c-34 -15 -92 -76 -106 -113 -16 -43 -11 -83 10 -83 14 0 22
12 30 46 15 58 57 99 120 118 60 17 70 46 14 46 -21 -1 -52 -7 -68 -14z"/>
<path d="M253 484 c-7 -20 17 -37 34 -23 15 13 6 39 -13 39 -8 0 -17 -7 -21
-16z"/>
<path d="M633 354 c-3 -8 -1 -20 6 -27 6 -6 11 -23 11 -38 0 -15 3 -35 6 -43
10 -26 143 -136 165 -136 26 0 69 44 69 71 0 13 -28 50 -72 95 -60 62 -77 74
-104 74 -18 0 -36 5 -39 10 -9 15 -35 12 -42 -6z m154 -106 c55 -54 64 -74 37
-85 -19 -7 -124 93 -124 119 0 32 33 19 87 -34z"/>
</g>
</svg>
