<?xml version="1.0" standalone="no"?>
<!DOCTYPE svg PUBLIC "-//W3C//DTD SVG 20010904//EN"
 "http://www.w3.org/TR/2001/REC-SVG-20010904/DTD/svg10.dtd">
<svg version="1.0" xmlns="http://www.w3.org/2000/svg"
 width="100.000000pt" height="100.000000pt" viewBox="0 0 100.000000 100.000000"
 preserveAspectRatio="xMidYMid meet">

<g transform="translate(0.000000,100.000000) scale(0.100000,-0.100000)"
fill="#000000" stroke="none">
<path d="M590 815 c-10 -13 -50 -15 -240 -15 -195 0 -229 -2 -241 -16 -9 -11
-10 -20 -2 -32 9 -15 38 -17 238 -20 181 -2 231 -5 248 -17 31 -21 60 -18 85
8 27 29 28 61 2 87 -24 24 -72 26 -90 5z"/>
<path d="M765 768 c2 -32 4 -33 51 -36 60 -4 95 17 78 45 -8 14 -26 19 -71 21
l-61 3 3 -33z"/>
<path d="M280 563 c-8 -3 -22 -12 -30 -19 -9 -7 -45 -14 -80 -16 -62 -3 -65
-4 -65 -28 0 -24 3 -25 65 -28 42 -2 71 -9 82 -19 23 -21 74 -21 95 0 20 20
21 73 2 91 -18 17 -50 26 -69 19z"/>
<path d="M430 500 l0 -30 233 2 232 3 0 25 0 25 -232 3 -233 2 0 -30z"/>
<path d="M464 285 c-15 -11 -54 -14 -180 -15 -135 0 -164 -3 -175 -16 -9 -11
-10 -20 -2 -32 9 -15 34 -17 173 -20 127 -2 165 -6 177 -17 15 -16 60 -20 79
-7 13 9 34 46 34 62 0 18 -47 60 -68 60 -10 0 -27 -7 -38 -15z"/>
<path d="M630 235 l0 -36 126 3 c106 3 129 6 137 20 8 12 7 21 -2 32 -11 13
-36 16 -137 16 l-124 0 0 -35z"/>
</g>
</svg>
