<?xml version="1.0" standalone="no"?>
<!DOCTYPE svg PUBLIC "-//W3C//DTD SVG 20010904//EN"
 "http://www.w3.org/TR/2001/REC-SVG-20010904/DTD/svg10.dtd">
<svg version="1.0" xmlns="http://www.w3.org/2000/svg"
 width="100.000000pt" height="100.000000pt" viewBox="0 0 100.000000 100.000000"
 preserveAspectRatio="xMidYMid meet">

<g transform="translate(0.000000,100.000000) scale(0.100000,-0.100000)"
fill="#000000" stroke="none">
<path d="M386 939 c-118 -29 -234 -127 -294 -248 -36 -73 -37 -77 -37 -191 0
-114 1 -118 37 -191 48 -98 119 -169 217 -217 73 -36 77 -37 190 -37 110 0
120 2 184 32 95 45 178 127 225 222 36 73 37 77 37 191 0 114 -1 118 -37 191
-48 97 -119 169 -215 216 -66 33 -82 36 -171 39 -53 2 -114 -1 -136 -7z m298
-63 c89 -44 155 -111 199 -204 30 -62 32 -75 32 -172 0 -97 -2 -110 -32 -172
-44 -94 -109 -160 -202 -206 -72 -36 -79 -37 -181 -37 -102 0 -109 1 -181 37
-93 46 -158 112 -202 206 -30 62 -32 75 -32 172 0 97 2 110 32 172 40 85 106
156 182 197 80 42 121 51 224 47 77 -3 97 -8 161 -40z"/>
<path d="M409 847 c-141 -40 -256 -174 -262 -305 -3 -73 15 -68 30 6 35 172
157 276 323 277 66 0 85 -5 142 -33 118 -58 182 -161 182 -292 0 -165 -105
-288 -273 -323 -74 -15 -80 -33 -9 -30 109 5 224 88 281 202 28 58 32 75 32
151 0 76 -4 93 -32 151 -60 121 -170 196 -300 205 -40 2 -87 -2 -114 -9z"/>
<path d="M465 616 c-201 -85 -195 -82 -195 -106 0 -14 14 -24 49 -37 46 -16
50 -20 65 -70 20 -63 38 -74 70 -44 29 27 34 26 76 -9 19 -17 40 -30 47 -30
25 0 41 47 69 198 24 132 26 155 13 163 -8 5 -16 8 -19 8 -3 0 -82 -33 -175
-73z m171 17 c-3 -10 -14 -70 -26 -133 -30 -165 -25 -156 -68 -122 -58 45 -61
46 -88 21 l-24 -22 0 32 c0 29 12 44 80 109 44 41 79 77 76 79 -2 2 -47 -23
-99 -56 -90 -57 -97 -60 -129 -49 -18 6 -37 14 -41 18 -7 6 284 137 311 139 8
1 11 -6 8 -16z"/>
<path d="M150 410 c-21 -13 0 -31 28 -24 12 4 22 13 22 20 0 16 -28 18 -50 4z"/>
<path d="M198 339 c-17 -9 -26 -39 -12 -39 16 0 44 23 44 35 0 17 -8 18 -32 4z"/>
<path d="M240 265 c-10 -12 -10 -19 -2 -27 13 -13 42 6 42 28 0 19 -24 18 -40
-1z"/>
<path d="M312 218 c-17 -17 -15 -38 3 -38 16 0 38 34 28 44 -9 9 -18 7 -31 -6z"/>
<path d="M386 178 c-7 -28 11 -49 24 -28 14 22 12 50 -4 50 -7 0 -16 -10 -20
-22z"/>
</g>
</svg>
