<?xml version="1.0" standalone="no"?>
<!DOCTYPE svg PUBLIC "-//W3C//DTD SVG 20010904//EN"
 "http://www.w3.org/TR/2001/REC-SVG-20010904/DTD/svg10.dtd">
<svg version="1.0" xmlns="http://www.w3.org/2000/svg"
 width="100.000000pt" height="100.000000pt" viewBox="0 0 100.000000 100.000000"
 preserveAspectRatio="xMidYMid meet">

<g transform="translate(0.000000,100.000000) scale(0.100000,-0.100000)"
fill="#000000" stroke="none">
<path d="M413 875 c-64 -20 -125 -59 -195 -125 l-63 -60 29 -24 c26 -20 31
-33 42 -107 10 -72 10 -86 -3 -101 -12 -13 -12 -24 -3 -58 6 -22 17 -43 25
-46 8 -3 17 -22 21 -42 18 -99 75 -159 188 -197 42 -14 50 -14 92 0 113 38
170 98 188 197 4 20 13 39 21 42 21 8 39 84 25 101 -9 11 -9 36 0 102 9 68 9
98 0 132 -13 51 -63 106 -104 117 -14 3 -40 19 -56 34 -29 27 -97 51 -142 49
-13 0 -42 -6 -65 -14z m144 -26 c15 -5 39 -21 53 -34 14 -12 36 -26 50 -30 87
-27 118 -110 91 -250 l-7 -40 -8 48 c-8 50 -50 111 -86 122 -11 3 -33 -4 -54
-19 -38 -26 -114 -46 -171 -46 -74 0 -155 -55 -155 -106 0 -42 -13 1 -20 67
-6 49 -15 81 -31 102 l-22 31 58 54 c101 94 218 133 302 101z m104 -219 c31
-17 49 -64 49 -130 0 -59 0 -60 25 -54 21 5 25 3 25 -16 0 -30 -18 -60 -35
-60 -11 0 -15 -11 -15 -37 0 -24 -12 -58 -30 -90 -24 -42 -40 -57 -91 -82 -34
-17 -73 -31 -85 -31 -30 0 -101 28 -136 53 -36 27 -78 107 -78 151 0 25 -4 36
-15 36 -17 0 -35 30 -35 60 0 19 4 21 25 16 22 -6 25 -3 25 22 0 64 53 99 173
112 53 6 97 18 127 34 55 30 48 28 71 16z"/>
<path d="M630 750 c0 -5 5 -10 10 -10 6 0 10 5 10 10 0 6 -4 10 -10 10 -5 0
-10 -4 -10 -10z"/>
<path d="M630 700 c0 -5 5 -10 10 -10 6 0 10 5 10 10 0 6 -4 10 -10 10 -5 0
-10 -4 -10 -10z"/>
<path d="M383 434 c-8 -21 13 -42 28 -27 13 13 5 43 -11 43 -6 0 -13 -7 -17
-16z"/>
<path d="M583 434 c-8 -21 13 -42 28 -27 13 13 5 43 -11 43 -6 0 -13 -7 -17
-16z"/>
</g>
</svg>
