<?xml version="1.0" standalone="no"?>
<!DOCTYPE svg PUBLIC "-//W3C//DTD SVG 20010904//EN"
 "http://www.w3.org/TR/2001/REC-SVG-20010904/DTD/svg10.dtd">
<svg version="1.0" xmlns="http://www.w3.org/2000/svg"
 width="100.000000pt" height="100.000000pt" viewBox="0 0 100.000000 100.000000"
 preserveAspectRatio="xMidYMid meet">

<g transform="translate(0.000000,100.000000) scale(0.100000,-0.100000)"
fill="#000000" stroke="none">
<path d="M436 918 c-25 -7 -57 -28 -86 -57 -56 -56 -70 -102 -70 -230 l0 -91
-40 0 c-48 0 -90 -34 -90 -73 0 -29 42 -70 66 -65 27 5 28 31 2 43 -13 6 -23
17 -23 25 0 13 41 15 299 18 185 1 303 -1 309 -7 7 -7 6 -16 -3 -26 -11 -13
-48 -15 -246 -15 -227 0 -234 -1 -234 -20 0 -19 7 -20 215 -20 l215 0 0 -52
c-1 -101 -46 -176 -132 -224 -76 -42 -162 -41 -237 2 -68 38 -111 97 -126 172
-8 41 -16 58 -30 60 -16 4 -17 -2 -13 -50 22 -256 362 -350 519 -144 43 56 59
104 59 175 0 46 4 55 30 78 37 31 39 65 5 98 l-24 25 -236 0 -235 0 0 114 c0
101 2 117 23 147 36 54 82 79 144 79 59 0 84 -9 125 -48 26 -24 38 -51 52
-114 6 -28 29 -37 41 -18 4 6 1 34 -6 62 -16 69 -84 139 -151 156 -54 14 -69
14 -122 0z"/>
<path d="M484 277 c-10 -28 0 -82 16 -82 11 0 15 12 15 44 0 44 -19 68 -31 38z"/>
</g>
</svg>
