<?xml version="1.0" standalone="no"?>
<!DOCTYPE svg PUBLIC "-//W3C//DTD SVG 20010904//EN"
 "http://www.w3.org/TR/2001/REC-SVG-20010904/DTD/svg10.dtd">
<svg version="1.0" xmlns="http://www.w3.org/2000/svg"
 width="100.000000pt" height="100.000000pt" viewBox="0 0 100.000000 100.000000"
 preserveAspectRatio="xMidYMid meet">

<g transform="translate(0.000000,100.000000) scale(0.100000,-0.100000)"
fill="#000000" stroke="none">
<path d="M350 940 c-69 -32 -163 -69 -209 -82 l-84 -22 7 -96 c19 -294 154
-551 366 -695 l69 -48 64 46 c137 98 256 257 316 421 32 90 61 242 61 321 l0
52 -82 22 c-45 12 -139 49 -208 81 -69 33 -137 60 -150 60 -14 0 -81 -27 -150
-60z m279 -34 c64 -30 151 -65 194 -77 89 -27 86 -17 62 -169 -37 -245 -159
-458 -331 -576 -51 -35 -52 -35 -83 -20 -17 9 -60 44 -97 78 -162 152 -246
335 -269 588 l-7 76 79 22 c43 13 130 48 193 77 63 30 121 55 129 55 8 0 67
-24 130 -54z"/>
<path d="M450 767 c-35 -18 -70 -74 -70 -113 0 -26 -4 -34 -18 -34 -36 0 -42
-20 -42 -140 0 -77 4 -120 12 -128 17 -17 319 -17 336 0 8 8 12 51 12 128 0
120 -6 140 -42 140 -14 0 -18 8 -18 34 0 18 -10 48 -23 67 -37 55 -93 73 -147
46z m91 -40 c23 -17 39 -52 39 -81 0 -26 -1 -26 -80 -26 -79 0 -80 0 -80 25 0
31 24 81 42 88 23 10 63 7 79 -6z m99 -247 l0 -100 -140 0 -140 0 0 100 0 100
140 0 140 0 0 -100z"/>
<path d="M477 506 c-9 -22 8 -71 23 -71 15 0 32 49 23 71 -3 8 -13 14 -23 14
-10 0 -20 -6 -23 -14z"/>
</g>
</svg>
