<?xml version="1.0" standalone="no"?>
<!DOCTYPE svg PUBLIC "-//W3C//DTD SVG 20010904//EN"
 "http://www.w3.org/TR/2001/REC-SVG-20010904/DTD/svg10.dtd">
<svg version="1.0" xmlns="http://www.w3.org/2000/svg"
 width="100.000000pt" height="100.000000pt" viewBox="0 0 100.000000 100.000000"
 preserveAspectRatio="xMidYMid meet">

<g transform="translate(0.000000,100.000000) scale(0.100000,-0.100000)"
fill="#000000" stroke="none">
<path d="M386 944 c-225 -54 -376 -286 -338 -517 62 -367 512 -513 773 -252
329 330 18 879 -435 769z m219 -39 c312 -81 418 -473 191 -701 -241 -240 -651
-107 -709 230 -50 295 226 546 518 471z"/>
<path d="M356 688 c4 -7 34 -52 65 -100 l58 -86 -57 -84 c-81 -115 -78 -108
-44 -108 24 0 36 11 77 70 27 39 51 70 55 70 4 0 28 -31 54 -70 40 -61 50 -70
77 -70 34 0 36 -6 -33 98 -27 39 -51 79 -54 87 -4 8 22 54 60 110 l66 95 -32
0 c-30 -1 -37 -7 -73 -66 -22 -36 -45 -70 -52 -75 -8 -7 -26 11 -63 65 -44 67
-54 76 -81 76 -21 0 -28 -4 -23 -12z"/>
</g>
</svg>
