<?xml version="1.0" standalone="no"?>
<!DOCTYPE svg PUBLIC "-//W3C//DTD SVG 20010904//EN"
 "http://www.w3.org/TR/2001/REC-SVG-20010904/DTD/svg10.dtd">
<svg version="1.0" xmlns="http://www.w3.org/2000/svg"
 width="100.000000pt" height="100.000000pt" viewBox="0 0 100.000000 100.000000"
 preserveAspectRatio="xMidYMid meet">

<g transform="translate(0.000000,100.000000) scale(0.100000,-0.100000)"
fill="#000000" stroke="none">
<path d="M482 720 c-189 -82 -352 -156 -363 -166 -47 -42 -14 -85 102 -130 38
-15 73 -32 77 -38 4 -6 18 -45 31 -86 43 -139 68 -151 158 -74 l55 47 61 -60
c90 -88 121 -99 160 -55 14 16 137 602 137 655 0 22 -35 57 -57 56 -10 0 -173
-67 -361 -149z m343 38 c-4 -18 -30 -151 -58 -295 l-52 -263 -87 81 -88 81
-52 -46 c-29 -25 -54 -44 -56 -42 -2 2 4 32 13 67 16 61 21 69 137 185 66 67
119 126 117 132 -2 5 -87 -39 -187 -98 l-184 -108 -74 30 c-41 17 -73 33 -71
35 8 8 622 271 635 272 9 1 11 -8 7 -31z"/>
</g>
</svg>
