<?xml version="1.0" standalone="no"?>
<!DOCTYPE svg PUBLIC "-//W3C//DTD SVG 20010904//EN"
 "http://www.w3.org/TR/2001/REC-SVG-20010904/DTD/svg10.dtd">
<svg version="1.0" xmlns="http://www.w3.org/2000/svg"
 width="100.000000pt" height="100.000000pt" viewBox="0 0 100.000000 100.000000"
 preserveAspectRatio="xMidYMid meet">

<g transform="translate(0.000000,100.000000) scale(0.100000,-0.100000)"
fill="#000000" stroke="none">
<path d="M132 535 l3 -335 33 -32 32 -33 300 0 300 0 31 31 c23 23 33 44 36
78 l6 46 -37 0 c-32 0 -36 -3 -36 -25 0 -14 -9 -34 -20 -45 -19 -19 -33 -20
-280 -20 -247 0 -261 1 -280 20 -19 19 -20 33 -20 335 l0 315 -35 0 -36 0 3
-335z"/>
</g>
</svg>
