<svg xmlns="http://www.w3.org/2000/svg" viewBox="0 0 70.03 62.02"><defs><style>.cls-1{fill:#020202;}.cls-2{fill:#151515;}.cls-3{fill:#f4f4f4;}.cls-4{fill:#060606;}.cls-5{fill:#080808;}.cls-6{fill:#040404;}.cls-7{fill:#0e0e0e;}.cls-8{fill:#0f0f0f;}</style></defs><title>资源 6</title><g id="图层_2" data-name="图层 2"><g id="图层_1-2" data-name="图层 1"><path class="cls-1" d="M22,22c2-1.78,4.47-2,7-2,14.61,0,29.23,0,43.84,0,4.21,0,7.83,1.08,10.31,4.74l-.18,2.45c-3.56-4.3-8.11-5.43-13.63-5.28-12.78.35-25.59.15-38.38.09A23.22,23.22,0,0,0,23.1,23Z" transform="translate(-15.98 -19.98)"/><path class="cls-1" d="M81.1,79.26C78.87,81.67,75.93,82,72.9,82q-22,0-43.93,0c-2.51,0-5-.15-7-2l0-1.09c2.77.26,5.4,1.19,8.28,1.17q20.82-.21,41.66,0c3.49,0,6.47-.74,9-3.17Z" transform="translate(-15.98 -19.98)"/><path class="cls-1" d="M81.1,79.26,81,76.88c2.43-2.54,3.13-5.56,3.09-9C83.91,56.88,84,45.93,84,35a21.3,21.3,0,0,0-1.09-7.81l.18-2.45C85.56,26.89,86,29.79,86,32.81q0,18.13,0,36.27C86,73.25,84.89,76.9,81.1,79.26Z" transform="translate(-15.98 -19.98)"/><path class="cls-1" d="M22,78.89,22,80c-4.28-2-5.91-5.71-6-10.07C15.93,57.26,16,44.62,16,32A8.5,8.5,0,0,1,18,26L19,27.1A23.41,23.41,0,0,0,18,34.41c.07,11.11.12,22.22,0,33.33C17.91,72.06,18.88,75.83,22,78.89Z" transform="translate(-15.98 -19.98)"/><path class="cls-2" d="M19,27.1,18,26a6.16,6.16,0,0,1,4-4L23.1,23Z" transform="translate(-15.98 -19.98)"/><path class="cls-3" d="M67.42,33.07c3.19.63,5.42,2.34,5.33,5.28-.07,2.44-1.55,5.09-4.49,5C65.58,43.28,63,42.13,63,38.61,63,35.44,65,34,67.42,33.07Z" transform="translate(-15.98 -19.98)"/><path class="cls-4" d="M66.76,74.94c3.81,1.72,7.62,1.34,11.44,0-1.3,2.27-3.54,2-5.64,2Q51,77,29.43,77c-2.1,0-4.33.22-5.63-2A21.52,21.52,0,0,0,30.54,76c10.61-.09,21.23,0,31.84-.1C63.83,75.92,65.71,77,66.76,74.94Z" transform="translate(-15.98 -19.98)"/><path class="cls-5" d="M23.06,55.77a35,35,0,0,0,0,18.44c-1.72-.88-2-2.5-2-4.17,0-12.77,0-25.55,0-38.32a4.26,4.26,0,0,1,1.43-3.4c-.83,8.82-.34,17.69-.3,26.55C22.14,55.17,22.74,55.47,23.06,55.77Z" transform="translate(-15.98 -19.98)"/><path class="cls-6" d="M24.28,25.74H69.12l0,.28H24.31Z" transform="translate(-15.98 -19.98)"/><path class="cls-7" d="M78.94,74.23c1.2-3.5,1.69-7,0-10.51,2.6-2.67-.19-6.29,2-9.8,0,6.18.06,11.67-.05,17.16A3.26,3.26,0,0,1,78.94,74.23Z" transform="translate(-15.98 -19.98)"/><path class="cls-8" d="M80.41,47.3c1,1.39.66,2.71.31,4.26C79.48,50.11,79.92,48.79,80.41,47.3Z" transform="translate(-15.98 -19.98)"/></g></g></svg>