<svg id="图层_1" data-name="图层 1" xmlns="http://www.w3.org/2000/svg" viewBox="0 0 100 81.78"><defs><style>.cls-1{fill:#fef6e3;}.cls-2{fill:#fef5e2;}.cls-3{fill:#fdf4e0;}.cls-4{fill:#fbf3e0;}.cls-5{fill:#9be6fb;}.cls-6{fill:#fdf4df;}.cls-7{fill:#41c5ed;}.cls-8{fill:#a0e7fb;}.cls-9{fill:#8fe1f7;}.cls-10{fill:#45c1ec;}.cls-11{fill:#49c1ec;}.cls-12{fill:#6dcdec;}.cls-13{fill:#84d3eb;}.cls-14{fill:#6bd3f5;}.cls-15{fill:#67d2f4;}.cls-16{fill:#81dffa;}.cls-17{fill:#94e3fa;}.cls-18{fill:#8ce3fb;}.cls-19{fill:#6ed5f6;}.cls-20{fill:#b7eafb;}.cls-21{fill:#73d7f7;}.cls-22{fill:#7dddf9;}.cls-23{fill:#a5e8fc;}.cls-24{fill:#abe9fc;}.cls-25{fill:#b4ebfc;}.cls-26{fill:#a2e5fb;}.cls-27{fill:#66d1f4;}.cls-28{fill:#62cff3;}.cls-29{fill:#84ddf7;}.cls-30{fill:#8ae0f8;}.cls-31{fill:#47c2ed;}.cls-32{fill:#4ac3ee;}.cls-33{fill:#5bccf1;}.cls-34{fill:#5ecdf2;}.cls-35{fill:#55c9f0;}.cls-36{fill:#63cff3;}.cls-37{fill:#58caf1;}.cls-38{fill:#52c7ef;}.cls-39{fill:#4dc5ee;}.cls-40{fill:#60cef2;}.cls-41{fill:#59cbf1;}.cls-42{fill:#56c9f0;}.cls-43{fill:#4cc5ee;}.cls-44{fill:#82dcf7;}.cls-45{fill:#77d9f8;}.cls-46{fill:#7adbf8;}.cls-47{fill:#f4fbfd;}</style></defs><title>icons8-image-file-100</title><path class="cls-1" d="M-85,1254c-2.3,2-4.7,3.7-8,3a18.07,18.07,0,0,1,.71-5.73c.83-2.56.28-4.54-3.11-4.27a2.7,2.7,0,0,1-2.6-1c4.53.13,9.39-1.13,13,3Z" transform="translate(185 -1202.01)"/><path class="cls-2" d="M-172,1262c-4.53-.12-9.38,1.15-13-3v-4c4.69-4.44,10.54-2.65,16-3-1.14,1.4-2.74.81-4.17,1s-3.58-.81-4.48,1.14.45,3.9,1,5.73C-176,1262-173.11,1260.18-172,1262Z" transform="translate(185 -1202.01)"/><path class="cls-2" d="M-185,1239a17.08,17.08,0,0,1,2.48-1.63c2-.86,3.55-.11,4.78,1.52s.42,3.22-.68,4.48a3.18,3.18,0,0,1-4.84.37A23.8,23.8,0,0,1-185,1242Z" transform="translate(185 -1202.01)"/><path class="cls-3" d="M-172,1262c-1.1-1.8-4,0-4.66-2.09-.54-1.83-1.9-3.76-1-5.73s2.93-.94,4.48-1.14,3,.4,4.17-1c3.67-3.19,3.75-5.15.09-6.83-2.32-1.06-5.64-1.28-4.87-4.92.83-3.94,4.31-3.25,7.21-3.28l1.48,0c.09,1.35.19,2.69.28,4l-.33,33a8.24,8.24,0,0,1-5.86-6C-168.82,1265.56-168.74,1263.49-172,1262Z" transform="translate(185 -1202.01)"/><path class="cls-4" d="M-98,1246a2.7,2.7,0,0,0,2.6,1c3.39-.27,3.94,1.71,3.11,4.27A18.07,18.07,0,0,0-93,1257c-5.78,1.06-6.75,2.61-5,8a4.18,4.18,0,0,1-3.84,4q-.21-15.49-.43-31l0-7,0-1.08.29.14a18.61,18.61,0,0,0,3.81.89c2.66.07,4.69,1,5,3.77.27,2.65-1.4,4.15-3.79,5.17C-101.71,1242-101.78,1242.67-98,1246Z" transform="translate(185 -1202.01)"/><path class="cls-5" d="M-164.89,1212c-.32-9,.65-10,9.76-10,8.15,0,16.3,0,24.45.06,1.61,0,3.36-.47,4.75.85l-.15.12c-4.62,0-9.24.11-13.85-.1-2.78-.14-2.39,1.35-2.06,3,0,.33,0,.66,0,1-5.74,0-11.49.26-17.21-.09-4.09-.25-5.31,1.4-4.79,5.09Z" transform="translate(185 -1202.01)"/><path class="cls-6" d="M-103,1220a3.53,3.53,0,0,0-2.06,2.08,121.91,121.91,0,0,1-13.07-13l12.12,0c.15,2.67,2.31,4,4,5.4C-98.66,1217.12-99.31,1218.72-103,1220Z" transform="translate(185 -1202.01)"/><path class="cls-2" d="M-103,1220c3.68-1.26,4.33-2.86,1-5.58-1.71-1.4-3.87-2.73-4-5.4,2.79,0,5.59.14,8.37,0,3.39-.23,5.59,1.44,6.13,4.44s-1.7,4.71-4.21,5.93S-100.56,1219.81-103,1220Z" transform="translate(185 -1202.01)"/><path class="cls-7" d="M-102.24,1226.21c.11,1.28.22,2.56.34,3.84l-.29-.14-20.8.11-2-1-1.05-4c.06-.73.1-1.46.87-1.85a3.83,3.83,0,0,0,2.93,2c1.57,1.31,3.45.75,5.21.8C-112.08,1226.08-107.16,1226.13-102.24,1226.21Z" transform="translate(185 -1202.01)"/><path class="cls-8" d="M-102.24,1226.21c-4.92-.08-9.84-.13-14.76-.27-1.76,0-3.64.51-5.21-.8l7.2-.17h6c.68-.48,4,.84,1.61-1.73-5-5.49-10.35-10.78-15.83-15.84-2.56-2.36-1.28.9-1.76,1.6v5h-1l0-2,0-6-.08-2.94.15-.12c3.61.74,4.83,4.55,7.81,6.08a121.91,121.91,0,0,0,13.07,13C-104.42,1223.65-102.46,1224.34-102.24,1226.21Z" transform="translate(185 -1202.01)"/><path class="cls-3" d="M-165.1,1226a16.32,16.32,0,0,1-3-.06c-3.05-.63-6-1.73-5.84-5.52s2.61-5.49,6.33-5.42h2.48Z" transform="translate(185 -1202.01)"/><path class="cls-9" d="M-165.1,1226v-11l.21-3,.89,0h8l-1,2c-3.43.13-8.05-1.4-7,5v7l0,3v9l0,3h-.81c-.09-1.34-.19-2.68-.28-4Z" transform="translate(185 -1202.01)"/><path class="cls-10" d="M-161.2,1283.07a2.74,2.74,0,0,1-2.85-2c0-2.35.07-4.71.1-7.06H-103l0,6.83-2.7,2.25Z" transform="translate(185 -1202.01)"/><path class="cls-1" d="M-101.84,1269a4.18,4.18,0,0,0,3.84-4,32.53,32.53,0,0,0,4.65,1.71c2.63.57,3.42,2.1,3.39,4.64,0,2.77-1.75,4-3.93,4.36a59.91,59.91,0,0,1-7.94.29Q-101.84,1272.51-101.84,1269Z" transform="translate(185 -1202.01)"/><path class="cls-2" d="M-171,1268a8.24,8.24,0,0,0,5.86,6c0,1,0,2,0,3-2.66,0-5.32-.17-8,0-3.22.24-5.49-1.11-5.58-4.18s2.2-4.6,5.2-4.85C-172.67,1268-171.84,1268-171,1268Z" transform="translate(185 -1202.01)"/><path class="cls-11" d="M-161.2,1283.07h55.44a12.67,12.67,0,0,1-2.83.68q-24.9.06-49.79,0A12.61,12.61,0,0,1-161.2,1283.07Z" transform="translate(185 -1202.01)"/><path class="cls-12" d="M-101.84,1269q0,3.51,0,7c-.57,1.57.65,3.59-1.23,4.83q0-3.4,0-6.83v-21c0-1,0-2,0-3v-12h.75Q-102,1253.51-101.84,1269Z" transform="translate(185 -1202.01)"/><path class="cls-13" d="M-165.16,1277c0-1,0-2,0-3l.33-33h.81l.06,1v32c0,2.35-.07,4.71-.1,7.06C-165.35,1280-164.84,1278.38-165.16,1277Z" transform="translate(185 -1202.01)"/><path class="cls-14" d="M-102.27,1238H-103c0-1,0-2,0-3-.61-3.07-3.08-2-4.82-2-18.7-.08-37.41,0-56.11,0v-4l39,0,2,1c1.29,1.49,3,.94,4.6,1,5.39.06,10.78,0,16.16,0Z" transform="translate(185 -1202.01)"/><path class="cls-15" d="M-102.23,1231c-5.38,0-10.77,0-16.16,0-1.57,0-3.31.53-4.6-1l20.8-.11C-102.2,1230.27-102.21,1230.63-102.23,1231Z" transform="translate(185 -1202.01)"/><path class="cls-16" d="M-126,1206c0,2,0,4,0,6-9.69.7-19.3-1.13-29-1,2.61-2,5.62-.71,8.43-1,2.19-.19,4.33-.08,4.57-3,0-.33,0-.66,0-1Z" transform="translate(185 -1202.01)"/><path class="cls-17" d="M-142,1207c-.24,3-2.38,2.86-4.57,3-2.81.24-5.82-1.07-8.43,1l-1,1h-8c-.52-3.69.7-5.34,4.79-5.09C-153.49,1207.26-147.74,1207-142,1207Z" transform="translate(185 -1202.01)"/><path class="cls-18" d="M-126,1206h-16c-.33-1.7-.72-3.19,2.06-3,4.61.21,9.23.08,13.85.1C-126.06,1204-126,1205-126,1206Z" transform="translate(185 -1202.01)"/><path class="cls-19" d="M-125,1229l-39,0c0-1,0-2,0-3,5-.49,10.11,1,15-1h7a4.11,4.11,0,0,0,5,0h11Z" transform="translate(185 -1202.01)"/><path class="cls-20" d="M-115,1225l-7.2.17a3.83,3.83,0,0,1-2.93-2c0-.38.08-.75.11-1.12l0-7A58.54,58.54,0,0,1-115,1225Z" transform="translate(185 -1202.01)"/><path class="cls-21" d="M-125,1222c0,.37-.07.74-.11,1.12-.77.39-.81,1.12-.87,1.85h-11c0-.34,0-.67,0-1,3.14-3.61,7.34-1.38,11-2Z" transform="translate(185 -1202.01)"/><path class="cls-22" d="M-156,1212l1-1c9.68-.13,19.29,1.7,29,1l0,2c0,.67,0,1.34,0,2-7.11,0-14.23-.11-21.34.06-2.54,0-5.3-1-7.63.94a3,3,0,0,1-2-3Z" transform="translate(185 -1202.01)"/><path class="cls-23" d="M-125,1209c.48-.7-.8-4,1.76-1.6,5.48,5.06,10.79,10.35,15.83,15.84,2.36,2.57-.93,1.25-1.61,1.73A146,146,0,0,0-125,1209Z" transform="translate(185 -1202.01)"/><path class="cls-24" d="M-125,1209a146,146,0,0,1,16,16h-3a98,98,0,0,0-13-13Z" transform="translate(185 -1202.01)"/><path class="cls-25" d="M-125,1212a98,98,0,0,1,13,13h-3a58.54,58.54,0,0,0-10-10v-3Z" transform="translate(185 -1202.01)"/><path class="cls-26" d="M-125,1214v1l0,7-1,0-.06-3v-3c0-.66,0-1.33,0-2Z" transform="translate(185 -1202.01)"/><path class="cls-27" d="M-103,1235c0,1,0,2,0,3h0c-4.31.42-8.73-1-13,.78-2.05-1.08-3.53,0-5,1.32-.56-3-3-2.06-4.77-2.07-12.75-.07-25.49,0-38.24,0,0-1,0-2,0-3Z" transform="translate(185 -1202.01)"/><path class="cls-28" d="M-164,1238c12.75,0,25.49,0,38.24,0,1.77,0,4.21-1,4.77,2.07-.06.63-.11,1.26-.16,1.89h-42.84l-.06-1C-164,1240-164,1239-164,1238Z" transform="translate(185 -1202.01)"/><path class="cls-15" d="M-103,1235h-60.93v-2c18.7,0,37.41,0,56.11,0C-106.1,1233.05-103.63,1231.93-103,1235Z" transform="translate(185 -1202.01)"/><path class="cls-29" d="M-149,1225c-4.88,2-10,.53-15,1,0-2.34,0-4.68,0-7,3-.23,6.15.67,9-1,3.53,0,7.68-.88,7,5Z" transform="translate(185 -1202.01)"/><path class="cls-30" d="M-155,1218c-2.85,1.67-6,.77-9,1-1.05-6.4,3.57-4.87,7-5a3,3,0,0,0,2,3Z" transform="translate(185 -1202.01)"/><path class="cls-31" d="M-163.95,1274v-4H-103v4Z" transform="translate(185 -1202.01)"/><path class="cls-32" d="M-103,1270h-60.93v-4c3.12-.18,6.36.63,9.28-1.16l41.67.16c3.24,1.2,6.62,1,10,1Z" transform="translate(185 -1202.01)"/><path class="cls-33" d="M-103,1246c0,1.33,0,2.66,0,4-6,.56-12.11-1.24-18,1-1.61-1.2-2.7-.64-4.21.56-2.08,1.65-2.43,6.21-5.71,5-2.16-.77-3.44-4.07-5.06-6.27a16.15,16.15,0,0,1-1.11-2.15c1.55-2.19,3.84-2.23,6.19-2.23C-121.62,1246-112.32,1246-103,1246Z" transform="translate(185 -1202.01)"/><path class="cls-34" d="M-103,1246c-9.29,0-18.59,0-27.88,0-2.35,0-4.64,0-6.19,2.23a4.72,4.72,0,0,1-2.06-2.89c1.09-1.75,2.86-1.3,4.44-1.31,4.92,0,9.83,0,14.75,0a4.46,4.46,0,0,0,5-1H-103Z" transform="translate(185 -1202.01)"/><path class="cls-35" d="M-103,1253c0,1.34,0,2.67,0,4-4.07.35-8.27-.89-12.19,1.06a7.65,7.65,0,0,1-3-3.71C-113.33,1251.52-108,1253.67-103,1253Z" transform="translate(185 -1202.01)"/><path class="cls-36" d="M-103,1243h-11.92c0-1.51.18-3-1-4.23,4.24-1.73,8.66-.36,13-.78Z" transform="translate(185 -1202.01)"/><path class="cls-37" d="M-103,1253c-5,.67-10.3-1.48-15.13,1.34L-121,1251c5.88-2.27,12-.47,18-1C-103,1251-103,1252-103,1253Z" transform="translate(185 -1202.01)"/><path class="cls-38" d="M-115.21,1258.06c3.92-2,8.12-.71,12.19-1.06v4c-3,.45-6.24-1.09-9,1.1A11,11,0,0,1-115.21,1258.06Z" transform="translate(185 -1202.01)"/><path class="cls-39" d="M-112,1262.12c2.79-2.2,6-.66,9-1.11v5c-3.36,0-6.74.2-10-1A3.53,3.53,0,0,0-112,1262.12Z" transform="translate(185 -1202.01)"/><path class="cls-40" d="M-120,1244c-4.92,0-9.83,0-14.75,0-1.58,0-3.35-.44-4.44,1.31-4.73-3.12-4.22,3.09-6.79,3.82-.28-2.37-2.06-2.15-3.71-2.15h-14.29v-5h42.84Z" transform="translate(185 -1202.01)"/><path class="cls-41" d="M-163.95,1247h14.29c1.65,0,3.43-.22,3.71,2.15a9.53,9.53,0,0,1-2.78,3.93c-5-2.14-10.15-.63-15.21-1.08Z" transform="translate(185 -1202.01)"/><path class="cls-42" d="M-163.94,1252c5.06.45,10.26-1.06,15.21,1.08a9.39,9.39,0,0,1-2.86,4.05c-4-2-8.23-.81-12.35-1.12Z" transform="translate(185 -1202.01)"/><path class="cls-38" d="M-163.94,1256c4.12.31,8.38-.89,12.35,1.12-.85,2.47-3.4,4.06-3.57,6.88-1.72-4.55-5.65-2.61-8.79-3Z" transform="translate(185 -1202.01)"/><path class="cls-43" d="M-163.95,1261c3.14.39,7.07-1.55,8.79,3a1.8,1.8,0,0,1,.49.83c-2.92,1.79-6.16,1-9.28,1.16Z" transform="translate(185 -1202.01)"/><path class="cls-44" d="M-137,1224c0,.33,0,.66,0,1a4.11,4.11,0,0,1-5,0,6.71,6.71,0,0,1-1-4,5.25,5.25,0,0,1,6,0Z" transform="translate(185 -1202.01)"/><path class="cls-21" d="M-143,1221a6.71,6.71,0,0,0,1,4h-7l1-2A5,5,0,0,1-143,1221Z" transform="translate(185 -1202.01)"/><path class="cls-45" d="M-137,1224v-3c.23-2,1.72-2,3.22-2H-126l.06,3C-129.66,1222.62-133.86,1220.39-137,1224Z" transform="translate(185 -1202.01)"/><path class="cls-46" d="M-126,1219h-7.74c-1.5,0-3,0-3.22,2a5.25,5.25,0,0,0-6,0,5,5,0,0,0-5,2c.68-5.88-3.47-5-7-5v-1c2.33-2,5.09-.89,7.63-.94,7.11-.17,14.23-.06,21.34-.06C-126,1217-126,1218-126,1219Z" transform="translate(185 -1202.01)"/><path class="cls-47" d="M-120,1244l-1.14-2c0-.63.1-1.26.16-1.89,1.43-1.29,2.91-2.4,5-1.32,1.23,1.19,1.09,2.72,1,4.23A4.44,4.44,0,0,1-120,1244Z" transform="translate(185 -1202.01)"/></svg>