<svg xmlns="http://www.w3.org/2000/svg" viewBox="0 0 82.58 82.58"><defs><style>.cls-1{fill:#454b54;}.cls-2{fill:#e5e6e6;}.cls-3{fill:#464c55;}.cls-4{fill:#51565f;}</style></defs><title>资源 23</title><g id="图层_2" data-name="图层 2"><g id="图层_1-2" data-name="图层 1"><path class="cls-1" d="M51.17,9.71a41.29,41.29,0,1,1-41.46,41A41.11,41.11,0,0,1,51.17,9.71Zm8.88,76.43c8-1.21,14.16-5.72,19.07-11.76,8.75-10.76,11.12-23,6.17-36-4.45-11.74-12.57-19.77-25.24-22.5-13.24-4.15-28,.56-37.45,12a36.57,36.57,0,0,0-2.08,43.58C29.36,84.53,45.77,90.65,60.05,86.14Z" transform="translate(-9.71 -9.71)"/><path class="cls-2" d="M60.05,86.14C65,81.36,70.66,77.58,74.48,71.48c10.57-16.9,6-40.82-10.43-52.12-1.43-1-3.45-1.45-4-3.51,12.67,2.73,20.79,10.76,25.24,22.5,4.95,13.07,2.58,25.27-6.17,36C74.21,80.42,68.08,84.93,60.05,86.14Z" transform="translate(-9.71 -9.71)"/><path class="cls-3" d="M53.22,60.4c0,3.47,0,6.94,0,10.42,0,1.48-.6,2.67-2.25,2.65s-2.19-1.25-2.19-2.71q0-10.43,0-20.84a2.14,2.14,0,0,1,2-2.41c1.63-.13,2.39.94,2.41,2.47,0,3.47,0,6.94,0,10.42Z" transform="translate(-9.71 -9.71)"/><path class="cls-4" d="M53.06,37.55a1.91,1.91,0,0,1-2.19,1.37,2,2,0,0,1-2-2.35,2,2,0,0,1,2.26-2.08C52.41,34.58,53.24,35.37,53.06,37.55Z" transform="translate(-9.71 -9.71)"/></g></g></svg>