<svg xmlns="http://www.w3.org/2000/svg" viewBox="0 0 100 100"><defs><style>.cls-1{fill:#353535;}.cls-2{fill:#373737;}.cls-3{fill:#010101;}.cls-4{fill:#040404;}</style></defs><title>资源 54</title><g id="图层_2" data-name="图层 2"><g id="图层_1-2" data-name="图层 1"><path d="M49,1h4c1.58,1.51,3.44,1.12,5.3.81,13.4,1.56,23.76,8.33,32.18,18.56C96.18,27.3,98.57,35.65,101,44V58c-.9.46-.78,1.35-.93,2.14-3,15-11.11,26.29-24.17,34.19C70.32,97.7,64.05,99,58,101H49c-1.57-1.5-3.44-1.12-5.29-.81-13.55-1.65-24.07-8.48-32.5-18.94C5.7,74.41,3.37,66.2,1,58V44c1-.61.79-1.71,1-2.64C6,20.58,23.81,3.71,43.7,1.81,45.56,2.11,47.42,2.51,49,1Zm1.84,8.28A42,42,0,0,0,9.28,51,42,42,0,0,0,50.9,92.72c22.92.09,42.08-19.15,41.81-42S73.58,9.13,50.84,9.28Z" transform="translate(-1 -1)"/><path class="cls-1" d="M43.7,1.81A1,1,0,0,1,44,1h5C47.42,2.51,45.56,2.11,43.7,1.81Z" transform="translate(-1 -1)"/><path class="cls-1" d="M58,1a1,1,0,0,1,.3.81c-1.86.31-3.72.7-5.3-.81Z" transform="translate(-1 -1)"/><path class="cls-2" d="M44,101a1.06,1.06,0,0,1-.29-.81c1.85-.31,3.72-.69,5.29.81Z" transform="translate(-1 -1)"/><path class="cls-3" d="M46,57.61c0-5.15.22-10.32-.07-15.45-.24-4.07,2.5-3.32,4.52-3s5.73-2.24,5.67,2.83c-.12,10.47-.19,21,0,31.41.09,4-2.43,3.37-4.54,3.06s-5.78,2.09-5.65-2.91C46.06,68.25,46,62.93,46,57.61Z" transform="translate(-1 -1)"/><path class="cls-4" d="M51.13,35c-3.7,0-5.61-1.56-5.5-5.09S48,25.1,51.22,25.13c3.42,0,5.37,1.88,5.28,5.19S54.22,35.25,51.13,35Z" transform="translate(-1 -1)"/></g></g></svg>