<svg xmlns="http://www.w3.org/2000/svg" viewBox="0 0 61.13 100"><defs><style>.cls-1{fill:#444b54;}</style></defs><title>资源 36</title><g id="图层_2" data-name="图层 2"><g id="图层_1-2" data-name="图层 1"><path class="cls-1" d="M30,101c-7.76-2.7-9.7-8.34-9.56-16.17q.61-33.84,0-67.71C20.3,9.29,22.28,3.7,30,1H72c7.72,2.69,9.7,8.3,9.56,16.12-.41,22.56-.15,45.13-.15,67.69,0,11.3-.48,12-10.41,16.19ZM25.14,50.89c0,12.16,0,24.31,0,36.47,0,6.57,1.63,8.19,8.31,8.22q17.49.06,35,0c6.9,0,8.42-1.6,8.43-8.62q0-36,0-71.94a18.81,18.81,0,0,0-.2-4,5.2,5.2,0,0,0-5.73-4.49c-2.16.14-5.59-2-6.08,2.66-.23,2.2-2.42,1.85-4.05,1.86-5.67,0-11.33.12-17,0C41,10.94,37,12.61,36.74,7.35c-.06-1-1.27-.81-2.06-.93-6.53-1-9.51,1.46-9.53,8C25.11,26.58,25.14,38.73,25.14,50.89Z" transform="translate(-20.44 -1)"/></g></g></svg>