<svg xmlns="http://www.w3.org/2000/svg" viewBox="0 0 38.02 70.18"><defs><style>.cls-1{fill:#20222c;}.cls-2{fill:#22242d;}.cls-3{fill:#fdfcee;}.cls-4{fill:#ababbb;}.cls-5{fill:#afaebe;}.cls-6{fill:#21232d;}.cls-7{fill:#66676b;}.cls-8{fill:#4a4b53;}.cls-9{fill:#73737c;}.cls-10{fill:#626368;}.cls-11{fill:#63646c;}</style></defs><title>资源 35</title><g id="图层_2" data-name="图层 2"><g id="图层_1-2" data-name="图层 1"><path class="cls-1" d="M34.71,84.11C32.19,82.62,32,80.18,32,77.62c0-17.8,0-35.6,0-53.39,0-5.66,2.58-8.15,8.28-8.21,7.15-.08,14.3,0,21.46,0,3.17,0,5.92.67,7.2,4l-1.07,1.23c-1.89-1.47-4.34-4.91-6.08-3-4.15,4.6-9,2-13.48,2.66-1.9.27-4.35.86-5.79-.58-1.8-1.79-3.23-3.21-5.84-1.7S34,22.54,34,25.14q.06,26,0,52c0,2.56.24,4.93,2.14,6.84ZM47.94,18.3a7.18,7.18,0,0,0,5.82.21C51.87,17.74,50.41,18,47.94,18.3Z" transform="translate(-31.99 -15.98)"/><path class="cls-1" d="M67.89,21.25,69,20c1.29,1.16,1,2.73,1,4.2q0,26.7,0,53.41c0,2.56-.22,5-2.74,6.49L66,82.88a8.37,8.37,0,0,0,2.1-5.33C67.92,58.78,67.93,40,67.89,21.25Z" transform="translate(-31.99 -15.98)"/><path class="cls-2" d="M66,82.88l1.31,1.24c-4.33,2.73-28.23,2.73-32.56,0l1.4-.15c7.73,0,15.47,0,23.21,0C61.59,84,63.94,84.4,66,82.88Z" transform="translate(-31.99 -15.98)"/><path class="cls-3" d="M66,82.88c-2,1.52-4.37,1.1-6.64,1.11-7.74,0-15.48,0-23.21,0C34.21,82.05,34,79.68,34,77.12q.09-26,0-52c0-2.6.13-5,2.72-6.49s4-.09,5.84,1.7c1.44,1.44,3.89.85,5.79.58,4.47-.64,9.33,1.94,13.48-2.66,1.74-1.93,4.19,1.51,6.08,3,0,18.76,0,37.53.17,56.3A8.37,8.37,0,0,1,66,82.88ZM44.25,49c-.43,2.26-1,4.56,1.74,5.89.81,1.75,1.86,3.15,4.07,3L54,58a3.93,3.93,0,0,0,3.1-2.76c.85-1.5,0-2.51-1-3.48,1.2-3.81.32-6.12-4.2-5.79.15-1.47,3.24-1.85,1.49-4-1-1.28-1.61-.3-2.3.36-1.79,1.71-1,2.8.88,3.61-1.29,1.91-3.42-.18-4.86,1C45.06,46.13,44.85,47.85,44.25,49ZM41.63,81.23v.48H60.31v-.48Z" transform="translate(-31.99 -15.98)"/><path class="cls-4" d="M47.94,18.3c2.47-.35,3.93-.56,5.82.21A7.18,7.18,0,0,1,47.94,18.3Z" transform="translate(-31.99 -15.98)"/><path class="cls-5" d="M51.92,46c4.52-.33,5.4,2,4.2,5.79-1.26,1.62-.13,2.55,1,3.48A3.93,3.93,0,0,1,54,58c-2.1-2.58-2.84-2.59-4-.09-2.21.17-3.26-1.23-4.07-3-.47-1.94-1.18-3.85-.78-5.91a3.29,3.29,0,0,0,1.92-2.1c1.44-1.2,3.57.89,4.86-1Z" transform="translate(-31.99 -15.98)"/><path class="cls-6" d="M41.63,81.23H60.31v.48H41.63Z" transform="translate(-31.99 -15.98)"/><path class="cls-7" d="M52,45.9c-1.91-.81-2.67-1.9-.88-3.61.69-.66,1.28-1.64,2.3-.36,1.75,2.19-1.34,2.57-1.49,4Z" transform="translate(-31.99 -15.98)"/><path class="cls-8" d="M45.21,49c-.4,2.06.31,4,.78,5.91C43.26,53.6,43.82,51.3,44.25,49l.49,0Z" transform="translate(-31.99 -15.98)"/><path class="cls-9" d="M50.06,57.91c1.12-2.5,1.86-2.49,4,.09Z" transform="translate(-31.99 -15.98)"/><path class="cls-10" d="M45.21,49l-.47,0-.49,0c.6-1.19.81-2.91,2.88-2.12A3.29,3.29,0,0,1,45.21,49Z" transform="translate(-31.99 -15.98)"/><path class="cls-11" d="M57.12,55.24c-1.13-.93-2.26-1.86-1-3.48C57.12,52.73,58,53.74,57.12,55.24Z" transform="translate(-31.99 -15.98)"/></g></g></svg>