<svg xmlns="http://www.w3.org/2000/svg" viewBox="0 0 87.83 96.95"><defs><style>.cls-1{fill:#020202;}.cls-2{fill:#fafafa;}.cls-3{fill:#080808;}.cls-4{fill:#050505;}.cls-5{fill:#090909;}.cls-6{fill:#3b3b3b;}.cls-7{fill:#242424;}.cls-8{fill:#1f1f1f;}.cls-9{fill:#131313;}.cls-10{fill:#eee;}</style></defs><title>资源 2</title><g id="图层_2" data-name="图层 2"><g id="图层_1-2" data-name="图层 1"><path class="cls-1" d="M73,1c4.28,2.71,3,7,2.92,10.86-.07,3.31.24,4.93,4.39,5,9,.08,14.38,5.76,14.48,14.91.16,13.82.13,27.63,0,41.45-.07,8.63-4.19,13.43-12.83,15-2.26.43-3.12,1.19-2.93,3.5.37,4.5-2,6.24-6.33,6.22Q51,97.85,29.27,98c-4,0-6.6-1.38-6.29-5.74.19-2.73-.76-3.63-3.46-4.06-7.6-1.2-12.16-6.24-12.28-14C7,59.7,7,45.21,7.27,30.74,7.42,22.47,13,16.9,21.2,16.87c4.52,0,5.1-1.74,4.88-5.52S24.88,3.55,29,1ZM11.45,26H67.24c1.17,0,2.34,0,3.5,0s2,.51,2,1.71c0,.93-.93,1.29-1.83,1.32-1.16,0-2.33,0-3.5,0-17.66,0-35.32.05-53,0-2.84,0-4.19.4-4.15,3.73.18,13.49,0,27,.12,40.49.09,7.7,4.16,12,11.66,12q29,.22,58,0c7.12,0,11.46-4,11.59-11q.39-21.73,0-43.48C91.44,24,87.06,19.92,80.38,19.88c-19.67-.11-39.33,0-59,0C17.26,19.85,14.14,21.63,11.45,26ZM51,16.67H65c8.12,0,7.94,0,8-8.18,0-3.57-1.16-4.55-4.6-4.48-10.13.19-20.26,0-30.4.1s-8.75-2.26-9,9.42c-.06,2.89,1.23,3.22,3.58,3.17C38.73,16.59,44.88,16.67,51,16.67Zm.3,71.89c-7.3,0-14.6,0-21.9,0-1.87,0-3.61-.29-3.51,2.63.09,2.42.64,3.69,3.34,3.67q21.66-.09,43.31,0c2.56,0,3.39-.95,3.52-3.51.16-3.32-1.9-2.79-3.85-2.79Z" transform="translate(-7.07 -1)"/><path class="cls-2" d="M51.33,88.56H72.24c2,0,4-.53,3.85,2.79-.13,2.56-1,3.53-3.52,3.51q-21.64-.09-43.31,0c-2.7,0-3.25-1.25-3.34-3.67-.1-2.92,1.64-2.64,3.51-2.63C36.73,88.57,44,88.56,51.33,88.56Z" transform="translate(-7.07 -1)"/><path class="cls-3" d="M50.51,71.22a22.5,22.5,0,0,1-14.27-4.77c-1.1-.83-3.1-1.71-2-3.44,1.34-2.08,2.53,0,3.61.75,8.76,6,17.39,5.92,26.44-.15,1-.67,2-2.44,3.3-.82C69,64.56,67,65.4,66,66.29,62.3,69.39,56.76,71.19,50.51,71.22Z" transform="translate(-7.07 -1)"/><path class="cls-4" d="M36.77,41.71c3.72.23,6,2,6.29,5.8a6.12,6.12,0,1,1-12.23.25C31,44,33.15,42.09,36.77,41.71Zm3.29,6c-.3-1.57-1.07-2.86-3.12-2.86a2.69,2.69,0,0,0-3,2.62,2.83,2.83,0,0,0,2.74,3.39C38.62,51.07,39.68,49.87,40.06,47.76Z" transform="translate(-7.07 -1)"/><path class="cls-4" d="M65.87,41.78c3.09.38,5.21,2.32,5.29,6.1A6,6,0,0,1,64.81,54a6.08,6.08,0,0,1-5.89-6.65C59.16,44,61.87,41.64,65.87,41.78Zm2.21,6.11c-.14-2-1.17-3-3.16-3A2.71,2.71,0,0,0,62,47.65,2.83,2.83,0,0,0,65,50.9C66.87,51,67.92,49.81,68.08,47.89Z" transform="translate(-7.07 -1)"/><path class="cls-5" d="M80.53,29.15c-1.51-.42-4.23.8-4.21-1.39,0-3.12,3.06-1.52,4.76-1.69,1.41-.14,4.09-.93,3.93,1.51C84.84,30.27,82.05,28.58,80.53,29.15Z" transform="translate(-7.07 -1)"/><path class="cls-6" d="M51.12,7.19c1.79.7,1.72,2.2,1.67,3.66s-.47,2.84-2.18,2.45c-1.51-.35-1.46-1.93-1.41-3.25S49.5,7.46,51.12,7.19Z" transform="translate(-7.07 -1)"/><path class="cls-7" d="M41.58,10.42c.16-1.21-.22-3,1.55-3s1.79,1.5,1.79,2.85.1,2.89-1.61,3C41.37,13.38,41.74,11.65,41.58,10.42Z" transform="translate(-7.07 -1)"/><path class="cls-8" d="M60.41,10.4c-.1,1.49,0,3-1.65,2.86-1.78-.13-1.69-1.72-1.66-3.07s.14-3,1.94-2.75S60.06,9.56,60.41,10.4Z" transform="translate(-7.07 -1)"/><path class="cls-9" d="M33.84,10.54c.06-1.28-.25-3.08,1.5-3.13S37,9.06,37,10.42s.14,2.9-1.78,2.81C33.59,13.15,33.92,11.65,33.84,10.54Z" transform="translate(-7.07 -1)"/><path class="cls-9" d="M68.16,10.35c-.13,1.22.37,3-1.66,2.89C65,13.18,65,11.81,65,10.61s-.19-3,1.5-3.18C68.35,7.29,68.07,9.08,68.16,10.35Z" transform="translate(-7.07 -1)"/><path class="cls-10" d="M40.06,47.76c-.38,2.11-1.44,3.31-3.36,3.15A2.83,2.83,0,0,1,34,47.52a2.69,2.69,0,0,1,3-2.62C39,44.9,39.76,46.19,40.06,47.76Z" transform="translate(-7.07 -1)"/><path class="cls-10" d="M68.08,47.89c-.16,1.92-1.21,3.1-3.13,3A2.83,2.83,0,0,1,62,47.65a2.71,2.71,0,0,1,2.88-2.74C66.91,44.86,67.94,45.91,68.08,47.89Z" transform="translate(-7.07 -1)"/></g></g></svg>