<svg xmlns="http://www.w3.org/2000/svg" viewBox="0 0 90.54 94.13"><defs><style>.cls-1{fill:#444b54;}.cls-2{fill:#71c1fe;}</style></defs><title>资源 40</title><g id="图层_2" data-name="图层 2"><g id="图层_1-2" data-name="图层 1"><path class="cls-1" d="M48.63,25.89c.54-10.42,4.55-17.36,12.86-21.2C69.39,1.05,77.17,1.89,84,7.4c7.45,6,9.93,14.17,7.54,23.29-2.79,10.68-9.27,19.43-16.3,27.72-2.34,2.76-6,3.52-8.39.81C57.87,49.27,50.11,38.54,48.63,25.89ZM78.2,24.6a7.68,7.68,0,0,0-15.35-.33,7.68,7.68,0,1,0,15.35.33Z" transform="translate(-5.7 -2.48)"/><path class="cls-1" d="M30.62,86.13c23.57,14.65,55.57.2,60.34-27.24,0-.17,0-.34.07-.5.44-2.14,0-5.55,3.36-4.87,2.82.56,1.67,3.63,1.32,5.59A45.35,45.35,0,1,1,39.17,7.77c1.89-.49,4.25-1.75,5.07,1s-1.84,2.92-3.7,3.51c-16.67,5.24-28,18.24-29.41,33.53A39.11,39.11,0,0,0,30.62,86.13Z" transform="translate(-5.7 -2.48)"/><path class="cls-2" d="M30.62,86.13A39.11,39.11,0,0,1,11.13,45.8c1.16-.06,2.32-.15,3.48-.17,4.26-.06,5.42,1.62,3.84,5.56-.37.92-1,1.75-1.38,2.66-1,2.31-.5,4.29,1.68,5.55s4.22,1.23,5.91-.67a18.53,18.53,0,0,0,4.53-9.27c.5-2.84,1.5-5.47,4-7.21,2.79-1.93,5.7-2,8.23.26,2.35,2.1,2.76,4.75,1.15,7.66-1.33,2.41-3.6,3.89-5.34,5.88-1.44,1.66-2.42,3.66,0,5,4.85,2.71,6.67,6.58,5.85,12s-4.5,8.66-9,11.19C33,84.91,31.79,85.51,30.62,86.13Z" transform="translate(-5.7 -2.48)"/></g></g></svg>