<svg xmlns="http://www.w3.org/2000/svg" viewBox="0 0 90.15 93.7"><defs><style>.cls-1{fill:#444b54;}.cls-2{fill:#acf8d1;}.cls-3{fill:#adf7d1;}</style></defs><title>资源 39</title><g id="图层_2" data-name="图层 2"><g id="图层_1-2" data-name="图层 1"><path class="cls-1" d="M64.13,57c-5-7.39-10.55-14.51-13.65-23.06C47.64,26,48.05,18.5,53,11.59A21.43,21.43,0,0,1,79.72,4.68,22.47,22.47,0,0,1,91.48,31.09C89.25,39.26,84.32,46,79.9,53c-.85,1-1.73,1.93-2.54,3C72.49,62.06,70,62.26,64.13,57ZM78.2,24.31a7.68,7.68,0,0,0-15.35.25,7.68,7.68,0,1,0,15.35-.25Z" transform="translate(-5.81 -2.59)"/><path class="cls-1" d="M29.73,85.13c22.61,16.1,56.38,1.09,61.19-27.21.11-.65.08-1.33.21-2,.28-1.52.68-3.13,2.68-2.91,2.32.26,2.29,2.08,2,3.8a46.42,46.42,0,0,1-8,20.24c-11.53,16.53-33.6,23.51-52.29,16.56C15.78,86.26,4.14,67.5,6,46,7.7,26.63,23.74,9.62,43.38,6.37c1.81-.3,4-.91,4.47,1.63S46,10.63,44.2,11C25.87,14.8,13,28.05,11.09,45,8.59,61.39,16.28,77.94,29.73,85.13Z" transform="translate(-5.81 -2.59)"/><path class="cls-2" d="M29.73,85.13C16.28,77.94,8.59,61.39,11.09,45c1.17,0,2.33,0,3.49,0,4.33.21,5.84,2.46,3.55,6.11-2,3.21-2.58,6,.84,8.07,3.79,2.32,5.68-.81,7.54-3.41S29,50.05,29.8,47a8.22,8.22,0,0,1,4.35-5.71c3-1.52,5.62-1,7.65,1.23s1.79,5.2.25,7.85a9.92,9.92,0,0,1-1.67,1.83c-5.45,5.63-5.46,5.63.09,10.86,3.82,3.6,3.72,11.63-.58,16.39C37.22,82.4,34,84.9,29.73,85.13Z" transform="translate(-5.81 -2.59)"/><path class="cls-3" d="M64.13,57c5.82,5.31,8.36,5.11,13.23-1,.81-1,1.69-2,2.54-3,3.89,1.89,3.92,4.82,1.58,7.73a47.16,47.16,0,0,1-7.12,6.93c-2.88,2.33-5.63.67-8.21-1-3-1.87-6.33-3.88-6.67-7.57C59.22,56.33,62.3,57.2,64.13,57Z" transform="translate(-5.81 -2.59)"/></g></g></svg>