<svg xmlns="http://www.w3.org/2000/svg" viewBox="0 0 88.77 90.38"><defs><style>.cls-1{fill:#010101;}.cls-2{fill:#0f0f0f;}</style></defs><title>资源 19</title><g id="图层_2" data-name="图层 2"><g id="图层_1-2" data-name="图层 1"><path class="cls-1" d="M50.81,5.82A43.81,43.81,0,0,1,81.3,17.45c1.26,1.13,3.5,2.25,1.77,4.41-2,2.56-3.48.12-4.87-1.05C54.4.76,19.44,11.33,11.77,40.92a40.57,40.57,0,0,0,65,41.54c.65-.53,1.24-1.12,1.88-1.65,1.24-1,2.46-2.76,4.21-1,2,2,.13,3.2-1.17,4.48C68.79,96.88,47.28,99.88,30.58,91.39A45.36,45.36,0,0,1,7.06,40.09C11.76,20.21,30,5.91,50.81,5.82Z" transform="translate(-5.79 -5.82)"/><path class="cls-1" d="M85.51,53.25c-6.94,0-13.87,0-20.8,0-1.75,0-4.14.47-4.12-2.25s2.42-2.2,4.16-2.21c6.93-.05,13.85,0,20.78,0l1-1.43c-2.11-1.76-4.28-3.46-6.33-5.3-1.24-1.1-2.67-2.44-1.09-4.2s3-.37,4.16.81c3.32,3.28,6.56,6.64,9.92,9.87,1.85,1.78,1.79,3.28,0,5-3.36,3.24-6.61,6.59-9.92,9.88-1.2,1.19-2.49,2.58-4.17.74-1.38-1.52-.31-2.8.8-3.86,2.09-2,4.27-3.93,6.41-5.89Z" transform="translate(-5.79 -5.82)"/><path class="cls-2" d="M51.07,53.2c-1.67-.19-2.32-1-2.23-2.39a2.16,2.16,0,1,1,2.23,2.39Z" transform="translate(-5.79 -5.82)"/></g></g></svg>