<svg xmlns="http://www.w3.org/2000/svg" viewBox="0 0 90.41 88.85"><defs><style>.cls-1{fill:#010101;}.cls-2{fill:#0f0f0f;}</style></defs><title>资源 20</title><g id="图层_2" data-name="图层 2"><g id="图层_1-2" data-name="图层 1"><path class="cls-1" d="M5.83,51A45.27,45.27,0,0,1,87.94,24.73,45.37,45.37,0,0,1,87,78.31a51,51,0,0,1-4,4.48,2.09,2.09,0,0,1-3.12.11,2,2,0,0,1-.21-3.06c.73-.9,1.54-1.74,2.29-2.64A40.6,40.6,0,0,0,23.33,21.28C7.71,35.77,6.15,60.19,19.62,76.93c1.32,1.64,5.34,3.34,2.32,5.89S17.45,81.26,16,79.55A42.91,42.91,0,0,1,5.83,51Z" transform="translate(-5.83 -5.74)"/><path class="cls-1" d="M48.73,85.52c0-6.91,0-13.83,0-20.74,0-1.74-.49-4.14,2.2-4.19s2.29,2.33,2.3,4.08c0,6.93,0,13.87,1.16,21.63,2.07-2.25,4.11-4.53,6.22-6.75,1.19-1.25,2.66-1.61,3.87-.18,1.09,1.27.31,2.48-.71,3.5-3.53,3.53-7.08,7-10.58,10.61-1.69,1.71-3.12,1.32-4.66-.25C45.17,89.78,41.72,86.4,38.32,83c-1.12-1.12-2.09-2.39-.56-3.83s2.79-.5,3.87.65c2,2.13,3.9,4.34,5.85,6.52Z" transform="translate(-5.83 -5.74)"/><path class="cls-2" d="M50.81,53.17a2,2,0,0,1-2-2.36,2.16,2.16,0,1,1,4.31.38C53.05,52.61,52.18,53.2,50.81,53.17Z" transform="translate(-5.83 -5.74)"/></g></g></svg>