<svg xmlns="http://www.w3.org/2000/svg" viewBox="0 0 88.31 84.34"><defs><style>.cls-1{fill:#e4f3fe;}.cls-2{fill:#444b54;}.cls-3{fill:#72c2fe;}.cls-4{fill:#464d56;}.cls-5{fill:#74c3fe;}</style></defs><title>资源 44</title><g id="图层_2" data-name="图层 2"><g id="图层_1-2" data-name="图层 1"><path class="cls-1" d="M80,1.88,80,1h8c0,.32,0,.64,0,1Z" transform="translate(-9.61 -1)"/><path class="cls-2" d="M51.12,85.32c-9.82,0-19.64.06-29.45,0-8.42-.07-11.92-3.51-12-11.78q-.12-17,0-33.95c0-1.79-.86-4.6,2.21-4.62s2.22,2.79,2.23,4.58c.08,11,0,22,0,33,0,6.6,1.67,8.26,8.27,8.27q28.71,0,57.42,0c6.28,0,7.9-1.7,7.91-8,0-8.66,0-17.31,0-26,0-1.74-.46-4.13,2.3-4.06s2.16,2.5,2.17,4.21c.06,9.15.09,18.3,0,27.46-.06,7.08-3.6,10.79-10.72,10.91-10.15.16-20.3,0-30.46,0Z" transform="translate(-9.61 -1)"/><path class="cls-3" d="M69.94,22.9A13.87,13.87,0,0,1,87.17,9.2c2.2.51,4.21,1.93,6.66.8.71-.33,2,.25,1.92,1.06-.9,5.69,4.13,10.76,1.29,16.81-2.72,5.8-9.14,10-15.16,8.93A14.21,14.21,0,0,1,69.94,22.9Zm14.17-9.08c-5.55-.09-9.76,3.9-9.72,9.18a9.33,9.33,0,0,0,18.66,0C93.18,17.64,89.55,13.9,84.11,13.82Z" transform="translate(-9.61 -1)"/><path class="cls-4" d="M49.51,54.93a39.23,39.23,0,0,1-26.09-11c-1.28-1.23-3.2-2.61-1.23-4.51,1.56-1.51,3.08-.21,4.3,1,12.46,12.33,33.29,13,46.58,2,1.28-1.06,2.8-2.44,4.32-.72,1.76,2,0,3.22-1.46,4.43C69.7,51.46,59.88,54.94,49.51,54.93Z" transform="translate(-9.61 -1)"/><path class="cls-2" d="M40.5,16.68c6.17,0,12.33-.08,18.5.05,1.9,0,5-1.05,4.93,2.39-.09,2.95-2.94,2.07-4.75,2.08-11.83.08-23.66.11-35.49,0-4.64-.05-8.83.16-9.66,6.07a2,2,0,0,1-2.64,1.63C10,28.59,9.83,27.4,9.76,26.17c-.24-4.69,4.16-9.18,9.75-9.36,7-.23,14-.06,21-.06Z" transform="translate(-9.61 -1)"/><path class="cls-5" d="M80,1.88,88,2c1.24,1.43,1.83,3.33-.33,3.87-2.76.69-6,1.28-8.53-.47C77.45,4.22,78.63,2.81,80,1.88Z" transform="translate(-9.61 -1)"/></g></g></svg>