<svg xmlns="http://www.w3.org/2000/svg" viewBox="0 0 49.79 100"><defs><style>.cls-1{fill:#e1e1e1;}</style></defs><title>资源 56</title><g id="图层_2" data-name="图层 2"><g id="图层_1-2" data-name="图层 1"><path d="M34.65,101c-7-3.52-9.36-9.2-9-17,.46-10.78.39-21.61,0-32.4-.36-11,3-20.89,8.07-30.35,1.12-2.11,1.65-3.73.73-6.28C32.38,9.24,34.34,4.63,39.6,1H61.39c5.4,3.73,7.23,8.35,5,14.45-.84,2.27-.26,3.59.7,5.38,5.32,9.9,8.73,20.25,8.28,31.79-.4,10.62-.42,21.29,0,31.9.32,7.65-2.32,13-9,16.48ZM67.08,65.55c-.43-6.11.79-14-.57-21.72a61.56,61.56,0,0,0-2.8-10c-4.44-12.43-5.33-12.91-18.43-12-1.65.12-2.78.53-3.57,2-4,7.52-7.45,15.34-7.7,24-.37,13,0,26-.12,39,0,4.21,1.86,6.06,6,6q10.63-.12,21.26,0c4.16,0,6-1.87,6-6C67,80.23,67.08,73.73,67.08,65.55ZM50.34,13.65h6.43c1.49,0,2-.83,2-2.21s-.37-2.27-1.92-2.26q-6.18,0-12.36,0c-1.37,0-2.18.42-2.22,2s.36,2.58,2.15,2.55C46.38,13.63,48.36,13.66,50.34,13.65Z" transform="translate(-25.6 -1)"/><path class="cls-1" d="M50.34,13.66c-2,0-4,0-5.94,0-1.79,0-2.2-1-2.15-2.55s.85-2,2.22-2q6.18,0,12.36,0c1.55,0,1.91.92,1.92,2.26s-.49,2.22-2,2.21C54.63,13.64,52.48,13.65,50.34,13.66Z" transform="translate(-25.6 -1)"/></g></g></svg>