<svg xmlns="http://www.w3.org/2000/svg" viewBox="0 0 95.06 95.46"><defs><style>.cls-1{fill:#dbd4f1;}.cls-2{fill:#a49cd0;}.cls-3{fill:#8f7aa4;}.cls-4{fill:#9c8ab5;}.cls-5{fill:#a08fb4;}.cls-6{fill:#a18fb5;}.cls-7{fill:#ae9fc2;}.cls-8{fill:#a290b5;}.cls-9{fill:#9b88b0;}.cls-10{fill:#9d8bb3;}.cls-11{fill:#8c77a2;}.cls-12{fill:#ad9ec0;}.cls-13{fill:#907ca6;}.cls-14{fill:#b2a5c4;}.cls-15{fill:#917ca6;}.cls-16{fill:#8d79a3;}.cls-17{fill:#8c77a1;}.cls-18{fill:#8d77a2;}.cls-19{fill:#907ba5;}.cls-20{fill:#a49ccf;}.cls-21{fill:#a298ca;}.cls-22{fill:#8e7aa6;}.cls-23{fill:#8e79a6;}.cls-24{fill:#907aa6;}.cls-25{fill:#9986b0;}.cls-26{fill:#8f7aa6;}.cls-27{fill:#9b89b2;}.cls-28{fill:#9b88b2;}</style></defs><title>资源 8</title><g id="图层_2" data-name="图层 2"><g id="图层_1-2" data-name="图层 1"><path class="cls-1" d="M89.15,78.07c-3.41,3.85-5.56,9-10.85,10.92-1.64.26-3.06.74-2.88,2.86a1.93,1.93,0,0,1-.88.21c-2.13-1-3.18.42-4.2,1.91l-4.81,1c-2.35.82-5,.53-7.2,1.94l-3.84.23-6,0L42.58,97c-1.67-1.63-3.78-1.92-6-2l-5-1.08c-.18-2.36-2.14-2.39-3.73-2.89a36.77,36.77,0,0,1-16-16,7.76,7.76,0,0,0-2-4.29q-1.44-3.3-2.9-6.59L6,53.85a.94.94,0,0,1,0-.62c0-1.49,0-3,0-4.46,0-2.2,0-4.41-.07-6.61,1.55-1.44,1.59-3.46,2-5.33.05-1,.1-2,.14-3.07,2-.91,2.28-2.84,2.8-4.64.18-3.05,3.25-4.45,4-7.16,2.61-.27,5.4,1.12,7.83-.85L23.79,19a2.9,2.9,0,0,0,2-2.83c6.84-2.26,13.89-2.59,21-2.14,11.8.74,21.39,6.33,29.24,14.82,9.2,10,13.18,22,12.24,35.66-.2,2.81-1.26,6,.86,8.63a2.11,2.11,0,0,1,0,.83C86,75.33,86.08,76.7,89.15,78.07ZM38.65,22.18a3.81,3.81,0,0,0-2.79,2.87c-2,2.94-2.39,5.93-.2,9l3,3c3.18,1.61,6.25,2.33,8.86-1l2-1.19A5.12,5.12,0,0,0,51.4,30a9.31,9.31,0,0,0-6.78-8C42.57,20,40.61,21.11,38.65,22.18Zm5,57.65c2.26,1.24,4.53,2,6.86.18A9.53,9.53,0,0,0,56.36,71a4.82,4.82,0,0,0-1.85-3.81L51.7,64.86C49,63.49,46.26,63.1,43.58,65l-3,3.88c-2,2.36-1.73,4.78-.16,7.23A4.57,4.57,0,0,0,43.65,79.83Zm-12.12-24c-.69-2.49-2.45-4.27-4.75-4.14s-4.92,1.67-4.69,4.66a4.39,4.39,0,0,0,4.6,4.24A5.41,5.41,0,0,0,31.53,55.85Zm44.84,15c1.95-1.21,4.71-2,4.53-5a4.36,4.36,0,0,0-4.62-4.1c-2.42.14-4.92,1.66-4.68,4.66C71.8,68.87,73.78,70.28,76.37,70.82Z" transform="translate(-3.97 -3.24)"/><path class="cls-2" d="M89.15,73.11c-2.12-2.67-1.06-5.82-.86-8.63.94-13.71-3-25.7-12.24-35.66C68.2,20.33,58.61,14.74,46.81,14c-7.09-.45-14.14-.12-21,2.14L24.7,12.88C28.28,9,33,7.25,37.78,5.43A16,16,0,0,1,46.35,5l8.13,0c1.62-.17,3.4.64,4.82-.79,15,3.2,26,11.93,33.76,25.1a35.69,35.69,0,0,1,4.78,13.83,6.35,6.35,0,0,0,.06,6.75l0,2.33a6.27,6.27,0,0,0-.1,6.69C97,64.92,95.66,70.61,89.15,73.11Z" transform="translate(-3.97 -3.24)"/><path class="cls-3" d="M6,53.85l1,10.3C4.27,61,4.1,57.5,6,53.85Z" transform="translate(-3.97 -3.24)"/><path class="cls-4" d="M54.48,5,46.35,5c2.48-2.09,5.23-2.07,8.09-1C54.46,4.29,54.47,4.63,54.48,5Z" transform="translate(-3.97 -3.24)"/><path class="cls-5" d="M58.33,96.93c2.2-1.41,4.85-1.12,7.2-1.94-1.1,3.13-4.09,2-6.21,2.8Z" transform="translate(-3.97 -3.24)"/><path class="cls-6" d="M22.72,21.11c-2.43,2-5.22.58-7.83.85C17.26,19.37,20.07,21,22.72,21.11Z" transform="translate(-3.97 -3.24)"/><path class="cls-7" d="M24.7,12.88l1.13,3.26a2.9,2.9,0,0,1-2,2.83C24.16,17,22.82,14.66,24.7,12.88Z" transform="translate(-3.97 -3.24)"/><path class="cls-8" d="M36.62,95c2.18.07,4.29.36,6,2,0,.27,0,.54,0,.8C40.63,96.83,37.8,97.73,36.62,95Z" transform="translate(-3.97 -3.24)"/><path class="cls-9" d="M48.48,97.14l6,0c0,.3,0,.59-.05.89-2,1.17-3.94.5-5.92,0C48.51,97.74,48.5,97.44,48.48,97.14Z" transform="translate(-3.97 -3.24)"/><path class="cls-5" d="M7.93,36.83c-.45,1.87-.49,3.89-2,5.33C5.35,39.91,5.21,37.81,7.93,36.83Z" transform="translate(-3.97 -3.24)"/><path class="cls-10" d="M6,48.77c0,1.48,0,3,0,4.46C3.32,51.74,3.31,50.25,6,48.77Z" transform="translate(-3.97 -3.24)"/><path class="cls-11" d="M10.87,29.12c-.52,1.8-.83,3.73-2.8,4.64C7.8,31.48,9,30.09,10.87,29.12Z" transform="translate(-3.97 -3.24)"/><path class="cls-12" d="M89.15,78.07c-3.07-1.37-3.14-2.74,0-4.13C89.14,75.32,89.15,76.7,89.15,78.07Z" transform="translate(-3.97 -3.24)"/><path class="cls-13" d="M97.9,49.86a6.35,6.35,0,0,1-.06-6.75l.3,4.76Z" transform="translate(-3.97 -3.24)"/><path class="cls-14" d="M97.9,49.86l.24-2a7.93,7.93,0,0,1,0,7.28c-.08-1-.15-2-.23-3C97.91,51.41,97.91,50.64,97.9,49.86Z" transform="translate(-3.97 -3.24)"/><path class="cls-15" d="M97.92,52.19c.08,1,.15,2,.23,3l-.33,3.73A6.27,6.27,0,0,1,97.92,52.19Z" transform="translate(-3.97 -3.24)"/><path class="cls-16" d="M9.84,70.74a7.76,7.76,0,0,1,2,4.29C10.17,74.1,9,72.92,9.84,70.74Z" transform="translate(-3.97 -3.24)"/><path class="cls-17" d="M27.84,91c1.59.5,3.55.53,3.73,2.89C30.14,93.19,28.39,92.91,27.84,91Z" transform="translate(-3.97 -3.24)"/><path class="cls-17" d="M70.34,94c1-1.49,2.07-2.89,4.2-1.91A6.14,6.14,0,0,1,70.34,94Z" transform="translate(-3.97 -3.24)"/><path class="cls-18" d="M48.48,97.14c0,.3,0,.6,0,.9l-5.9-.25c0-.26,0-.53,0-.8Z" transform="translate(-3.97 -3.24)"/><path class="cls-19" d="M54.48,5c0-.34,0-.68,0-1l4.86.23C57.88,5.61,56.1,4.8,54.48,5Z" transform="translate(-3.97 -3.24)"/><path class="cls-17" d="M75.42,91.85c-.18-2.12,1.24-2.6,2.88-2.86A6.58,6.58,0,0,1,75.42,91.85Z" transform="translate(-3.97 -3.24)"/><path class="cls-3" d="M54.44,98.05c0-.3,0-.59.05-.89l3.84-.23,1,.86Z" transform="translate(-3.97 -3.24)"/><path class="cls-20" d="M51.7,64.86l2.81,2.28c.07,1.54-.73,3.51,1.85,3.82A9.53,9.53,0,0,1,50.51,80l-6-1-3.06-3c-1.29-2.24-.8-4.7-.91-7.09l3-3.88Z" transform="translate(-3.97 -3.24)"/><path class="cls-20" d="M38.67,37q-1.5-1.51-3-3a23.92,23.92,0,0,1,1-9,3.16,3.16,0,0,0,2-2l6-1A9.31,9.31,0,0,1,51.4,30c-3,.65-1.56,3.05-1.82,4.78l-2,1.19A24.81,24.81,0,0,1,38.67,37Z" transform="translate(-3.97 -3.24)"/><path class="cls-21" d="M31.53,55.85a5.41,5.41,0,0,1-4.84,4.76,4.39,4.39,0,0,1-4.6-4.24c-.23-3,2.27-4.52,4.69-4.66S30.84,53.36,31.53,55.85Z" transform="translate(-3.97 -3.24)"/><path class="cls-21" d="M76.37,70.82c-2.59-.54-4.57-1.95-4.77-4.44-.24-3,2.26-4.52,4.68-4.66a4.36,4.36,0,0,1,4.62,4.1C81.08,68.78,78.32,69.61,76.37,70.82Z" transform="translate(-3.97 -3.24)"/><path class="cls-22" d="M36.62,25a23.92,23.92,0,0,0-1,9c-2.19-3-1.77-6,.2-9Z" transform="translate(-3.97 -3.24)"/><path class="cls-23" d="M38.67,37a24.81,24.81,0,0,0,8.86-1C44.92,39.37,41.85,38.65,38.67,37Z" transform="translate(-3.97 -3.24)"/><path class="cls-22" d="M51.7,64.86,43.58,65C46.26,63.1,49,63.49,51.7,64.86Z" transform="translate(-3.97 -3.24)"/><path class="cls-22" d="M40.58,68.87c.11,2.39-.38,4.85.91,7.09l-1.07.14C38.85,73.65,38.56,71.23,40.58,68.87Z" transform="translate(-3.97 -3.24)"/><path class="cls-24" d="M44.55,79l6,1c-2.33,1.84-4.6,1.06-6.86-.18Z" transform="translate(-3.97 -3.24)"/><path class="cls-25" d="M49.58,34.82c.26-1.73-1.21-4.13,1.82-4.78A5.12,5.12,0,0,1,49.58,34.82Z" transform="translate(-3.97 -3.24)"/><path class="cls-26" d="M44.62,22l-6,1c0-.28,0-.56,0-.84C40.61,21.11,42.57,20,44.62,22Z" transform="translate(-3.97 -3.24)"/><path class="cls-27" d="M44.55,79l-.9.83a4.57,4.57,0,0,1-3.23-3.73L41.49,76Z" transform="translate(-3.97 -3.24)"/><path class="cls-25" d="M56.36,71c-2.58-.31-1.78-2.28-1.85-3.82A4.86,4.86,0,0,1,56.36,71Z" transform="translate(-3.97 -3.24)"/><path class="cls-28" d="M38.65,22.18c0,.28,0,.56,0,.84a3.16,3.16,0,0,1-2,2l-.76.05A3.81,3.81,0,0,1,38.65,22.18Z" transform="translate(-3.97 -3.24)"/></g></g></svg>