<svg xmlns="http://www.w3.org/2000/svg" viewBox="0 0 100 82.89"><defs><style>.cls-1{fill:#010101;}.cls-2{fill:#020202;}</style></defs><title>资源 13</title><g id="图层_2" data-name="图层 2"><g id="图层_1-2" data-name="图层 1"><path class="cls-1" d="M101,67c-.16,0-.44.06-.46.15C96.85,81.25,87,85.37,73.45,84.78c-12.11-.53-24.27-.1-36.41-.11-19.39,0-30.23-8.47-35-27.27C1.92,56.73,1.79,56.14,1,56V50c1.87-1.32,1.38-3.54,1.88-5.32a31.68,31.68,0,0,1,57.87-7.53c.41.72.81,1.45,1.16,2.2.75,1.62,1.18,3.38-.88,4.22-1.81.73-2.6-.79-3.3-2.19-3.62-7.2-9.21-12.22-17-14.3-10.8-2.88-20.2-.09-27.53,8.28S4.5,53.24,8.68,63.3C13,73.6,21.15,79.44,32.22,79.78c16.13.5,32.29.3,48.44.08A14.81,14.81,0,0,0,95.29,66.72,15.24,15.24,0,0,0,85.17,50.25c-7.07-2.36-14.5.61-18.31,7.33a8.74,8.74,0,0,0-.69,1.32c-.55,1.62-1.58,2.76-3.33,2.1-2.22-.84-1.45-2.57-.84-4.17,2.71-7.19,10.6-12.15,19-12A19.87,19.87,0,0,1,99.16,58.2c.58,1.6,0,3.68,1.84,4.8Z" transform="translate(-1 -1.94)"/><path class="cls-2" d="M65.06,2.16c3.32-.85,4,.91,4,3.77,0,2.43-1.31,5.9.67,7.08,3.18,1.89,7,2.63,10.27,4.78,1,.65,1.65-.78,2.33-1.42,1.71-1.58,3.29-3.3,5-4.84a2,2,0,0,1,3.09.32,2.21,2.21,0,0,1,.13,2.76,2.06,2.06,0,0,1-.65.75C83.72,19.17,84.59,24,87.2,29.77,88.39,32.42,89.39,33.33,92,33c1.48-.17,3,0,4.49,0,2.86-.12,4,1.14,3.37,4-2.49,1.4-5.21.66-7.82.88-1.29.1-2.83-.6-3.79.47S86.54,41,84.72,40.14c-2.23-1-1.34-3.09-1.33-4.85.07-11.91-10.6-20-22.13-16.76-1.77.49-4.15,2.22-5.13-.5-1.07-3,1.94-3.66,3.88-3.91,3.61-.46,4.78-2.13,4.32-5.61A10.55,10.55,0,0,1,65.06,2.16Z" transform="translate(-1 -1.94)"/></g></g></svg>