<svg xmlns="http://www.w3.org/2000/svg" viewBox="0 0 100.53 100.53"><defs><style>.cls-1{fill:#010101;}.cls-2{fill:#020202;}</style></defs><title>资源 26</title><g id="图层_2" data-name="图层 2"><g id="图层_1-2" data-name="图层 1"><path class="cls-1" d="M1,75c2.43-2.4,4.88-4.77,7.28-7.2,3.16-3.2,6.33-3.53,9.32.08,1.8,2.17,3,2.11,5,0,7-7.31,14.21-14.47,21.46-21.55,1.83-1.77,2.13-3,.91-5.46-8.25-16.45-1.1-33.18,16.41-39A8.62,8.62,0,0,0,63,1H73q21.24,6.77,28,28V39c-1.44.75-1,2.33-1.5,3.5-6.12,15.84-23,22.49-38,14.65-2.89-1.51-4.29-.86-6.28,1.16Q37,76.78,18.53,95.05c-2.08,2.08-4.35,4-6.53,6-3.67,0-8.76,1.43-10.6-.4S1,93.67,1,90ZM97,34.22C97.07,22.52,86.69,9.48,74.51,6A22.91,22.91,0,0,0,45.76,24.18C43.45,38,56,53.91,71.05,56.26,84,58.29,96.88,47.38,97,34.22ZM55,52.71A54.65,54.65,0,0,0,49.5,48c-1.6-1.06-2.27.88-3.1,1.7Q26.91,69.12,7.49,88.57c-2.2,2.19-3.86,4.53-1,7.22,2.6,2.46,4.83.86,6.87-1.19Q32.92,75,52.54,55.37C53.21,54.7,53.82,54,55,52.71Z" transform="translate(-0.47 -1)"/><path class="cls-2" d="M73.75,49.1C63.65,49.19,53,38.78,52.93,28.66c-.09-8.43,7.36-16.13,15.71-16.22C78.53,12.34,89.42,23,89.57,33,89.69,41.25,82.08,49,73.75,49.1Zm-.37-4A12.35,12.35,0,0,0,85.45,33.58c.25-7.91-8.49-17-16.43-17.1C62.87,16.4,57.09,21.92,56.94,28,56.75,35.91,65.5,45,73.38,45.09Z" transform="translate(-0.47 -1)"/></g></g></svg>