<svg xmlns="http://www.w3.org/2000/svg" viewBox="0 0 75.15 75.17"><title>资源 52</title><g id="图层_2" data-name="图层 2"><g id="图层_1-2" data-name="图层 1"><path d="M42.76,50.85c0,11.32-.08,22.63.05,33.95,0,2.72-.61,3.84-3.56,3.77-7.48-.18-15-.17-22.46,0-2.71.06-3.35-.94-3.34-3.47q.11-33.95,0-67.89c0-2.7.57-3.85,3.56-3.77q11,.29,22,0c3.13-.09,3.91,1,3.86,4C42.66,28.56,42.76,39.71,42.76,50.85Z" transform="translate(-13.44 -13.42)"/><path d="M88.51,51c0,11.14-.13,22.29.08,33.44.06,3.35-1,4.25-4.23,4.14-7.15-.23-14.31-.17-21.46,0-2.74.06-3.73-.68-3.72-3.61q.18-33.95,0-67.89c0-2.38.35-3.68,3.19-3.62,7.65.16,15.31.17,23,0,2.88-.06,3.21,1.27,3.19,3.62C88.46,28.37,88.51,39.68,88.51,51Z" transform="translate(-13.44 -13.42)"/></g></g></svg>