<svg xmlns="http://www.w3.org/2000/svg" viewBox="0 0 79.73 81.98"><defs><style>.cls-1{fill:#464c55;}.cls-2{fill:#545962;}.cls-3{fill:#555a63;}.cls-4{fill:#4e535c;}.cls-5{fill:#50555e;}.cls-6{fill:#4d535c;}.cls-7{fill:#4c525a;}.cls-8{fill:#494f58;}.cls-9{fill:#4a5058;}.cls-10{fill:#4b515a;}.cls-11{fill:#a98e9c;}.cls-12{fill:#f38985;}</style></defs><title>资源 46</title><g id="图层_2" data-name="图层 2"><g id="图层_1-2" data-name="图层 1"><path class="cls-1" d="M47,62.38a17.35,17.35,0,0,1-3.28,10.3c-4.35,6.09-8.89,12-13.26,18.13-1.95,2.7-3.68,3.07-5.77.15C20.16,84.61,15.24,78.5,11,72c-4.72-7.19-3.75-16.21,1.8-22.72a19.41,19.41,0,0,1,21.76-5.48A19.24,19.24,0,0,1,47,62.38ZM27.58,87C32,80.91,36.27,75.4,40.07,69.57a14.48,14.48,0,0,0-3-18.94,14.58,14.58,0,0,0-18.83-.19,14.37,14.37,0,0,0-3.4,18.86C18.7,75.26,23.12,80.85,27.58,87Z" transform="translate(-7.94 -11.16)"/><path class="cls-1" d="M86.15,23.87c-.87,6.49-6.27,11.24-10.57,16.58-1,1.3-2.53.22-3.35-.89-2.76-3.73-5.76-7.35-8-11.36-2.53-4.44-1.82-9,1.46-13a11.34,11.34,0,0,1,13.11-3.17C83.48,14.06,85.91,17.74,86.15,23.87Zm-12-7.9a6.69,6.69,0,0,0-5.72,3.42c-2,3.35,1.79,12.91,5.51,14.13a1.4,1.4,0,0,0,1.69-.58c2.07-2.57,4.51-5,5.34-8.28C82.13,20,79.19,16.12,74.15,16Z" transform="translate(-7.94 -11.16)"/><path class="cls-2" d="M65.25,55.07c-.46,1.72-1.37,3.37-3.36,3.72a2,2,0,0,1-2.36-2.44c.37-2,1.41-3.88,3.83-3.87C64.66,52.48,65.3,53.58,65.25,55.07Z" transform="translate(-7.94 -11.16)"/><path class="cls-3" d="M72.16,73.65c.1,1.53-.4,2.59-1.78,2.64-2.36.08-3.54-1.61-4.1-3.55a2,2,0,0,1,1.84-2.44C70.47,70.16,71.45,71.94,72.16,73.65Z" transform="translate(-7.94 -11.16)"/><path class="cls-4" d="M77.83,85a4.65,4.65,0,0,1-3.63-3.94A1.86,1.86,0,0,1,76.32,79,4,4,0,0,1,80,82.79C80.2,84.08,79.34,84.88,77.83,85Z" transform="translate(-7.94 -11.16)"/><path class="cls-2" d="M87.67,90.71a2.37,2.37,0,0,1-2.55,2.41C83,93.18,82.21,91.9,82.05,90c-.15-1.62.79-2.67,2.27-2.56C86.12,87.61,87.14,89,87.67,90.71Z" transform="translate(-7.94 -11.16)"/><path class="cls-5" d="M72.29,45.67c-.59,1.67-1.34,3.4-3.43,3.6a1.91,1.91,0,0,1-2.24-2.43c.47-1.91,1.46-3.79,3.86-3.72C71.86,43.15,72.24,44.35,72.29,45.67Z" transform="translate(-7.94 -11.16)"/><path class="cls-6" d="M38.66,93.13c-1.61,0-3.12-.32-3.1-2.23,0-2.27,1.86-2.32,3.52-2.31s3.1.2,3.07,2.24C42.11,93.17,40.32,93.12,38.66,93.13Z" transform="translate(-7.94 -11.16)"/><path class="cls-7" d="M60.9,61.72a4.33,4.33,0,0,1,3.26,3.81c.09,1.27-.75,2.46-2.09,2.21a4.33,4.33,0,0,1-3.71-4.09C58.28,62.36,59.43,61.71,60.9,61.72Z" transform="translate(-7.94 -11.16)"/><path class="cls-8" d="M50.45,93.13c-1.58,0-3.17-.29-3.19-2.18,0-2.26,1.84-2.36,3.5-2.34,1.5,0,3.17.14,3.17,2.16C53.94,93.07,52.13,93.1,50.45,93.13Z" transform="translate(-7.94 -11.16)"/><path class="cls-9" d="M65.79,90.64c-.26,2-1.48,2.5-3.12,2.48s-3.48.11-3.64-2.19c-.15-2.06,1.45-2.26,3-2.33C63.7,88.52,65.27,88.74,65.79,90.64Z" transform="translate(-7.94 -11.16)"/><path class="cls-10" d="M77.38,90.45c0,2.16-1.26,2.71-3,2.68s-3.54.11-3.62-2.31c-.05-1.74,1.23-2.19,2.68-2.21C75.12,88.58,76.89,88.41,77.38,90.45Z" transform="translate(-7.94 -11.16)"/><path class="cls-11" d="M74.15,16c5,.15,8,4,6.82,8.69-.83,3.3-3.27,5.71-5.34,8.28a1.4,1.4,0,0,1-1.69.58c-3.72-1.22-7.53-10.78-5.51-14.13A6.69,6.69,0,0,1,74.15,16Z" transform="translate(-7.94 -11.16)"/><path class="cls-12" d="M35.14,61.75a7.62,7.62,0,1,1-7.51-7.66A7.72,7.72,0,0,1,35.14,61.75Z" transform="translate(-7.94 -11.16)"/></g></g></svg>