<svg xmlns="http://www.w3.org/2000/svg" viewBox="0 0 77.69 77.73"><defs><style>.cls-1{fill:#010101;}.cls-2{fill:#020202;}.cls-3{fill:#f6f6f6;}.cls-4{fill:#030303;}.cls-5{fill:#222;}</style></defs><title>资源 37</title><g id="图层_2" data-name="图层 2"><g id="图层_1-2" data-name="图层 1"><path class="cls-1" d="M42,71.55A29.68,29.68,0,1,1,71.55,42.09,29.84,29.84,0,0,1,42,71.55ZM17,42a25,25,0,1,0,25-25A25,25,0,0,0,17,42Z" transform="translate(-12.19 -12.19)"/><path class="cls-2" d="M89.88,83.19A7.22,7.22,0,0,1,86,89c-2.47,1.26-5,1.26-7-.52A127.8,127.8,0,0,1,67.22,76.94c-2.55-3-.66-7.6-3.09-11-.63-.9,1.12-2,2.74-1.79,9.35,1.47,15.62,7.5,21.35,14.34A7,7,0,0,1,89.88,83.19ZM73.27,70.64c-1.22,0-2,.27-2.37,1.12a2.67,2.67,0,0,0,.66,3.16q4.36,4.39,8.77,8.74c1.12,1.1,2.37,2.08,3.85.69,1.74-1.65.49-3-.69-4.2-2.67-2.71-5.35-5.4-8.08-8A13.75,13.75,0,0,0,73.27,70.64Z" transform="translate(-12.19 -12.19)"/><path class="cls-3" d="M73.27,70.64a13.75,13.75,0,0,1,2.14,1.47c2.73,2.64,5.41,5.33,8.08,8,1.18,1.21,2.43,2.55.69,4.2-1.48,1.39-2.73.41-3.85-.69q-4.39-4.35-8.77-8.74a2.67,2.67,0,0,1-.66-3.16C71.28,70.91,72.05,70.65,73.27,70.64Z" transform="translate(-12.19 -12.19)"/><path class="cls-4" d="M21.85,39.43c.57-9,9.65-17.72,18.6-17.75,1.48,0,3.26-.24,3.53,1.81.32,2.34-1.43,2.5-3.21,2.76C32.76,27.41,27.93,32,26.48,40c-.3,1.61-.4,3.61-2.78,3.32S21.8,41.05,21.85,39.43Z" transform="translate(-12.19 -12.19)"/><path class="cls-5" d="M30.74,53.33c-.36,1.41-1.12,2.48-2.68,2.29a2.12,2.12,0,0,1-2-2.31A2.21,2.21,0,0,1,28.6,51C30,51.14,30.43,52.2,30.74,53.33Z" transform="translate(-12.19 -12.19)"/></g></g></svg>