<svg xmlns="http://www.w3.org/2000/svg" preserveAspectRatio="none" viewBox="0 0 181.93 35"><path d="M181.9 33.5c-.06-2.14-1-10-1.22-12.12-.21-1.79-.36-3.38-.5-5.32h-.07c-.19-1.94-.43-7.82 0-9.34a8.34 8.34 0 0 0 .18-2.63 6.55 6.55 0 0 1 .6-2.24c.54-1.7-.3-1.45-2.25-1.28a39.63 39.63 0 0 1-4.36 0 22.43 22.43 0 0 0-3.55-.19c-1.76.27-2.18 2.66-3.22 3.57A19.93 19.93 0 0 0 166 1.88c-.85-.8-1.91-.72-3.21-.71-3.39 0-6.69.41-10.05.47-6.45.12-12.86.36-19.32.25-6.3-.1-12.74.09-19-.39-1.53-.11-3.15-.17-4.65-.43-1.29-.22-2-.78-2.49.24-.38.75-.38 1.75-1.31 2.28-.61.34-2.51 1-3.11.45s-.19-2.32-1.37-2.64a9.15 9.15 0 0 0-2.09.27 26.91 26.91 0 0 1-2.84 0c-1.78 0-2.83-.4-3.43.89a6.19 6.19 0 0 1-1.7 2.74c-.46-.88-.9-1.76-1.32-2.65s-.49-1-2-1.07a71.37 71.37 0 0 0-8.66.18c-6.32.67-12.38.11-18.69-.16-2.76-.1-5.49-.26-8.26-.34-3-.09-6.19-.47-9 .22a21.43 21.43 0 0 1-3.5.39 14 14 0 0 1-2 .06 11.09 11.09 0 0 0-1.56-.27c-1.07.16-1.88 1.69-2.88 1.69s-2.07-1.42-2.74-1.84C28.89.33 25 .68 22.59.59c-3.14-.12-6.28-.2-9.41-.32C10.51.16 8 .26 5.29.2c-1 0-3.37-.39-4.23-.08S.47 1.8.46 2.62c0 2 .49 4.14.57 6.18v7.26H.9C.78 17 .66 18.79.51 20.2.3 22.08.5 29.68.39 31.56c0 .7-.74 2.37-.16 3s3.2.4 4.77.41c3.89 0 7.78-.35 11.67-.41l9.13-.08c2.07 0 3.65.1 5.3-.54s3-.49 4.93-.5c1.66 0 3.33 0 5-.06a19.52 19.52 0 0 1 2.52-.1c1.37.16.57.14 1.13.66.29.28-.21.32.36.53a12.69 12.69 0 0 0 2.62 0c1.73 0-.29.2 1.36.16a12.76 12.76 0 0 0 4-.42 30.34 30.34 0 0 0 3-1.74c.88-.47 1.19-.71 1.93-.12A3.44 3.44 0 0 1 59 34c.22.52 0 .55 1.38.69 1.91.2 4.78 0 6.78.05 7.49.08 49.91-.13 57.75.2 2 .09 4 .05 6 .05 2.56 0 2.75 0 3.84-1.23.38-.43 1.17-1.63 2.38-1.67 1 0 2.2 1.41 3.18 1.74 2.3.76 6.15.49 8.82.59 4.55.17 9.13 0 13.69.15 3.7.12 7.35.32 11.07.33 2 0 4.06.07 6.1.1 2.28 0 1.94-.36 1.91-1.5z" fill="#d3c8ac"/></svg>