<svg xmlns="http://www.w3.org/2000/svg" viewBox="0 0 88.07 100"><defs><style>.cls-1{fill:#010101;}.cls-2{fill:#515151;}.cls-3{fill:#121212;}</style></defs><title>资源 27</title><g id="图层_2" data-name="图层 2"><g id="图层_1-2" data-name="图层 1"><path class="cls-1" d="M50,101c-8.65-6.07-17-12.39-23.56-20.9-13.65-17.73-19.1-38-19.42-60,0-1.43-.38-2.81,1.9-3.26,12.85-2.51,24.41-8.38,36-14.22a14.91,14.91,0,0,1,2.86-.8h6.52c3.72.53,6.79,2.63,10,4.3,8.58,4.47,17.42,8.24,26.94,10.16,2.88.58,4,1.73,3.84,4.87-1.24,33.22-14,60.19-42.31,78.82-.34.22-.5.71-.74,1.07ZM11,24c.68,5.28,1.11,10.61,2.1,15.83C17.27,62.16,28,80.51,46.72,93.86c3,2.15,5.34,2.14,8.37-.09,24-17.61,34.27-42,35.81-70.92.11-2.19-.83-2.77-2.7-3.24A124,124,0,0,1,58.26,7.49c-5-2.75-9.66-2.69-14.63.06a117.16,117.16,0,0,1-30,12C10.72,20.28,11.05,22,11,24Z" transform="translate(-6.99 -1)"/><path class="cls-2" d="M54.26,1.78H47.74A.62.62,0,0,1,48,1h6A.65.65,0,0,1,54.26,1.78Z" transform="translate(-6.99 -1)"/><path d="M50.54,67c-4.15,0-8.31-.07-12.46,0-3.28.07-5-1.35-5.06-4.67,0-6.31,0-12.63,0-18.94,0-2.07.94-4.1,2.83-4.11,3.67,0,3.07-2.27,3.23-4.52.49-6.71,5.63-11.72,11.88-11.75a12.13,12.13,0,0,1,12,11.64c.18,2.56-.08,4.68,3.63,4.8,1.87.06,2.5,2.32,2.48,4.33,0,6.15,0,12.3,0,18.45C69,65.58,67.24,67,64,67,59.51,67,55,67,50.54,67Zm.22-4.39V63c3.83,0,7.67-.12,11.49,0,2.21.09,2.86-.63,2.8-2.82-.15-4.82-.16-9.66,0-14.48.07-2.22-.64-2.84-2.82-2.8a187.72,187.72,0,0,1-19-.07c-5.22-.42-7,1.2-6.32,6.39.58,4.4-1.82,10.55.88,12.87S46.31,62.61,50.76,62.61ZM50.61,39H57.1c1.08,0,1.7-.15,2-1.54.76-4.13-2.13-9.21-6.19-10.22a7.47,7.47,0,0,0-7.67,2.48c-2.21,2.4-3.09,5.66-1.93,8.35,1,2.26,4.18.46,6.34.92A4.76,4.76,0,0,0,50.61,39Z" transform="translate(-6.99 -1)"/><path class="cls-3" d="M53.78,52.31c-1.8,1.44.49,5.48-2.62,5.54-3.58.07-1.69-3.91-2.75-5.91-.78-1.47.93-3.07,2.92-2.86C53,49.25,53.79,50.5,53.78,52.31Z" transform="translate(-6.99 -1)"/></g></g></svg>