<svg xmlns="http://www.w3.org/2000/svg" viewBox="0 0 75.29 75.11"><defs><style>.cls-1{fill:#617d8b;}.cls-2{fill:#2196f2;}</style></defs><title>资源 21</title><g id="图层_2" data-name="图层 2"><g id="图层_1-2" data-name="图层 1"><path class="cls-1" d="M21.91,46.36c0,9.16.12,18.31-.05,27.46-.09,4.42,1.51,6.38,6.09,6.34,15.47-.13,31-.08,46.43,0,3.59,0,5.85-1.21,5.7-5.14-.2-4.89,3.48-2.72,5.64-3.06,3.12-.48,3,1.66,2.79,3.82-.6,7.58-4.51,12.33-12.2,12.54-16.78.44-33.6.5-50.39,0-8.62-.24-12.41-5.25-12.5-14.82-.15-14.31,0-28.63,0-42.94,0-4.16.2-8.33-.07-12.48-.22-3.51,1-4.53,4.52-4.55S22,14.77,22,17.9C21.81,27.39,21.91,36.88,21.91,46.36Z" transform="translate(-13.29 -13.53)"/><path class="cls-2" d="M70.32,14C76,18.33,81,22.33,86.22,26.21c1.83,1.38,1.89,2.31,0,3.72C81.06,33.8,76,37.82,70.71,41.9c-.36-.58-.77-.93-.8-1.31-.52-8.6-.51-8.6-9.4-8.42-11,.21-17.59,6.88-17.72,17.86,0,4.66-.18,9.33.05,14,.16,3.27-1.33,3.95-4.17,3.82-2.45-.12-4.71.17-4.49-3.49.37-6.3-.52-12.64.5-18.92C36.76,32.62,46.62,24.14,59.53,24,69.15,23.84,69.15,23.84,70.32,14Z" transform="translate(-13.29 -13.53)"/></g></g></svg>