<svg xmlns="http://www.w3.org/2000/svg" viewBox="0 0 71.27 70.22"><defs><style>.cls-1{fill:#010101;}</style></defs><title>资源 22</title><g id="图层_2" data-name="图层 2"><g id="图层_1-2" data-name="图层 1"><path class="cls-1" d="M76.23,39.25c-20-3.37-37.74,9.66-40.48,28.74-.24,1.65.87,4.2-2,4.92-4,1-5,0-4.41-4.42,2.8-21.18,19.43-35.94,40.91-36.31,1.76,0,3.51,0,6.35,0C72.34,27.93,68.93,24.37,65.36,21c-1.73-1.63-1.83-2.71,0-4.37,1.56-1.4,2.49-2.22,4.36-.28,5.53,5.78,11.22,11.4,16.94,17,1.51,1.48,1.67,2.42.06,4C80.88,43,75.08,48.77,69.43,54.66c-1.81,1.88-2.71.84-3.9-.46s-2.65-2.12-.61-4C68.66,46.79,72.23,43.15,76.23,39.25Z" transform="translate(-16.61 -15.2)"/><path class="cls-1" d="M51.09,85.34c-10.15,0-20.31-.1-30.46,0-2.85,0-4.07-.42-4-3.72.2-14.15.12-28.29.06-42.44,0-2.41,0-4,3.32-4,3.67,0,2.93,2.29,2.93,4.33,0,11.82.12,23.64-.06,35.45-.05,3.14.64,4.2,4,4.16q24.21-.28,48.43,0c3.1,0,4.2-.74,3.81-3.84-.25-2,.1-4-.08-6-.27-2.92,1.63-2.57,3.49-2.69,2.22-.15,2.89.74,2.81,2.88-.13,4-.23,8,0,12,.19,3-.66,4-3.83,3.93C71.4,85.2,61.24,85.34,51.09,85.34Z" transform="translate(-16.61 -15.2)"/></g></g></svg>