<svg xmlns="http://www.w3.org/2000/svg" viewBox="0 0 98.08 92.17"><defs><style>.cls-1{fill:#dff9fe;}.cls-2{fill:#2cb0ee;}.cls-3{fill:#dcf8fe;}.cls-4{fill:#dbf8fe;}.cls-5{fill:#2babed;}.cls-6{fill:#279bea;}.cls-7{fill:#2592e8;}.cls-8{fill:#29a3ec;}.cls-9{fill:#2697e9;}.cls-10{fill:#2da8ed;}.cls-11{fill:#e0f9fe;}.cls-12{fill:#2eb3ef;}.cls-13{fill:#2caeee;}.cls-14{fill:#2eb1ee;}.cls-15{fill:#2ba7ec;}.cls-16{fill:#2cabed;}.cls-17{fill:#2084e5;}.cls-18{fill:#2289e6;}.cls-19{fill:#2080e4;}.cls-20{fill:#1e7be3;}.cls-21{fill:#238de7;}.cls-22{fill:#1e78e3;}.cls-23{fill:#1e75e2;}.cls-24{fill:#2ba0eb;}.cls-25{fill:#299feb;}</style></defs><title>资源 31</title><g id="图层_2" data-name="图层 2"><g id="图层_1-2" data-name="图层 1"><path class="cls-1" d="M101,29c-2.27,3.2-5.6,3.2-9,3-2.39-4.16-3.68-9.21-9-11,6.07.56,12.63-1.86,18,3Z" transform="translate(-2.92 -3.9)"/><path class="cls-2" d="M14,38c.4-1.58.8-3.17,1.21-4.75q1.34-2.14,2.69-4.29L83.94,29a13.66,13.66,0,0,1,3.36,6.9l-20.58.18c-1.58-2.25-3.45-2.46-6-1.46C56.17,36.42,51.87,38.9,47,39.85c-1.52-1.19-3.19-1.09-5.06-1.06C32.62,38.9,23.26,39.82,14,38Z" transform="translate(-2.92 -3.9)"/><path class="cls-3" d="M87.3,35.92A13.66,13.66,0,0,0,83.94,29a32.34,32.34,0,0,0-15-14q-18-9.54-36,0C26.44,18,21.62,22.9,17.89,29q-1.35,2.14-2.69,4.29C14.48,32,13.22,32,12,32c.74-4.36,4.5-7,6-11l2-3c5.41-2.16,9.67-6.26,15-8.67C38.93,7.56,43.67,8.23,47,5H57c.79,1.86,2.51,1.67,4.11,2.1,7,1.88,14,4,18.9,9.91.06,2,1.41,3.12,3,4,5.31,1.76,6.6,6.81,9,11-2.63,4.11-2.33,5.81,1.94,6.73,3.58.77,5.38,2.3,5,6s-2.91,4.36-6,4.36a9.29,9.29,0,0,0-2.79.94L89.83,48c.13-1.72.42-3.47-.69-5,0-1.4.11-2.83-.87-4A4.38,4.38,0,0,0,87.3,35.92Z" transform="translate(-2.92 -3.9)"/><path class="cls-4" d="M8,51l3.84,0L12.2,51c-.19,1.8-.42,3.61.71,5.24,0,1.43-.1,2.86.9,4.06a3.88,3.88,0,0,0,1,3A7.75,7.75,0,0,0,17,68a5.44,5.44,0,0,0,1.91,3.13A5.21,5.21,0,0,0,21,74,10.19,10.19,0,0,0,25,78.1a7.84,7.84,0,0,0,3.91,3.18A8.79,8.79,0,0,0,33,83.84,9.46,9.46,0,0,0,38,86a34.67,34.67,0,0,0,26,0,9.43,9.43,0,0,0,5-2.09c1.91-.2,2.73-1.88,4-2.94,2,0,3-1.43,4.09-2.81A10.25,10.25,0,0,0,81,74a5.23,5.23,0,0,0,2.09-2.84A5.32,5.32,0,0,0,85,68a2.69,2.69,0,0,1,.75-.14l.34.16c5,1.48,4.27,4.1,1.35,7.06A4.79,4.79,0,0,0,86,79l-2,2c-2.25,1.4-4.54,2.73-6.73,4.21-15.56,10.51-31.49,10.63-47.88,2C26,85.46,23.79,82,20,81c-.66-.67-1.32-1.33-2-2-1-4.79-5.25-8.1-6-13-.07-2-1.39-3.14-3-4C9,58.3,7.38,54.76,8,51Z" transform="translate(-2.92 -3.9)"/><path class="cls-1" d="M20,81c3.81,1,6,4.45,9.4,6.22,16.39,8.61,32.32,8.49,47.88-2C79.45,83.73,81.74,82.4,84,81c-.8,4.15,3.23,3.44,5,5-2.28,4.39-7.47,5.87-10,10H25c-3.65-3.76-7-7.83-12-10C15.15,84.1,20.15,86.17,20,81Z" transform="translate(-2.92 -3.9)"/><path class="cls-1" d="M57,5H47c-11-.57-19.27,5.16-27,12l-2-2c2.22-4.42,7.89-5.12,10.49-9.4C26.53,4.52,24.72,5.22,23,5H19V4Q52.42,4,85.85,4c1.75,0,3.7-.64,5.18,1-2.63,0-5.26,0-7.89,0-.93,0-2.17-.33-2.56.87s.78,1.56,1.52,2.17c2.35,2,5.18,3.55,5.9,6.92-2.36.11-4.82-.38-7,1C74.56,9,66.93,4.47,57,5Z" transform="translate(-2.92 -3.9)"/><path class="cls-5" d="M14,38c9.27,1.82,18.63.9,27.95.79,1.87,0,3.54-.13,5.06,1.06-4.24,2-8.33,4.31-12.92,5.43-1.77-2.25-4.25-1-6.4-1.27-4.91-.72-10,1.44-14.8-1.21A7.31,7.31,0,0,1,14,38Z" transform="translate(-2.92 -3.9)"/><path class="cls-6" d="M89.08,56.21c0,1.43.12,2.86-.91,4A2.81,2.81,0,0,0,85.64,59l-27.5,0c.67-1.66,1.35-3.33,2-5H89Z" transform="translate(-2.92 -3.9)"/><path class="cls-1" d="M12,66c.74,4.92,5,8.23,6,13-3.14,0-6.3.12-9.44-.07-2.74-.16-5.33-.84-5.55-4.37s1.45-5.86,4.79-6.43A7,7,0,0,0,12,66Z" transform="translate(-2.92 -3.9)"/><path class="cls-7" d="M85.74,67.83A2.69,2.69,0,0,0,85,68C84.49,65.2,82.27,66,80.62,66c-8.46-.06-16.93,0-25.39,0L57,62c8.38,0,16.77,0,25.16,0,1.72,0,3.69-.62,5,1.24Z" transform="translate(-2.92 -3.9)"/><path class="cls-1" d="M18,21c-1.5,3.94-5.26,6.63-6,11-7.44,0-9.09-.94-9-5.17S5.82,21,12.57,21Z" transform="translate(-2.92 -3.9)"/><path class="cls-8" d="M89.08,56.21c0-.73-.09-1.46-.13-2.2,0-1.35,0-3-1.81-2.9-8.7.32-17.46-1.26-26.09.88a11.21,11.21,0,0,1,2-5c3.49,0,7-.17,10.48,0,5.42.33,11-1.09,16.28.93L90.16,50C89.68,52.07,90.4,54.32,89.08,56.21Z" transform="translate(-2.92 -3.9)"/><path class="cls-1" d="M86,79a4.79,4.79,0,0,1,1.43-4c2.92-3,3.63-5.58-1.35-7.06,1.83,0,3.66,0,5.49,0,5,0,7.5,2,7.42,6-.11,5.17-4,4.9-7.49,5C89.67,79.05,87.83,79,86,79Z" transform="translate(-2.92 -3.9)"/><path class="cls-4" d="M13,86c5,2.17,8.36,6.24,12,10-3.48,0-7,0-10.43,0-2.8.06-5-.72-5.48-3.78S9.27,86.57,13,86Z" transform="translate(-2.92 -3.9)"/><path class="cls-4" d="M88,15c-.72-3.37-3.55-5-5.9-6.92-.74-.61-1.92-1-1.52-2.17S82.21,5,83.14,5C85.77,5,88.4,5,91,5c3.11.56,4.16,2.85,3.58,5.45C93.89,13.66,91.61,15.51,88,15Z" transform="translate(-2.92 -3.9)"/><path class="cls-9" d="M87.15,63.26c-1.3-1.86-3.27-1.22-5-1.24C73.77,62,65.38,62,57,62l1.14-3,27.5,0a2.81,2.81,0,0,1,2.53,1.24A3.73,3.73,0,0,1,87.15,63.26Z" transform="translate(-2.92 -3.9)"/><path class="cls-4" d="M19,5h4c0,1.89-1.27,3-2.71,3.84A21.53,21.53,0,0,0,14,15C7.93,12.3,7.29,9.1,12,5Z" transform="translate(-2.92 -3.9)"/><path class="cls-8" d="M11.84,51,12.17,48c2.69-2.18,13.81-2.9,16.48-1,.32.23.34.88.5,1.34,0,.88,0,1.76,0,2.64l-17,0Z" transform="translate(-2.92 -3.9)"/><path class="cls-4" d="M79,96c2.53-4.14,7.72-5.62,10-10,3.3.54,4.4,2.69,3.87,5.7s-2.2,4.59-5.49,4.36C84.6,95.85,81.79,96,79,96Z" transform="translate(-2.92 -3.9)"/><path class="cls-1" d="M20,17C27.73,10.16,36,4.43,47,5c-3.33,3.23-8.07,2.56-12,4.33-5.34,2.41-9.6,6.51-15,8.67C20,17.67,20,17.35,20,17Z" transform="translate(-2.92 -3.9)"/><path class="cls-1" d="M57,5c9.93-.53,17.56,4,24,11l-1,1c-4.93-5.9-11.88-8-18.9-9.91C59.51,6.67,57.79,6.86,57,5Z" transform="translate(-2.92 -3.9)"/><path class="cls-10" d="M29.15,48.31C29,47.85,29,47.2,28.65,47,26,45.06,14.86,45.78,12.17,48c-.16-1.77-.36-3.55.71-5.16,4.75,2.65,9.89.49,14.8,1.21,2.15.32,4.63-1,6.4,1.27Z" transform="translate(-2.92 -3.9)"/><path class="cls-11" d="M8,51c-.62,3.74,1,7.28,1,11-3.21-.2-5.85-.86-6.06-5C2.73,53.18,4.51,51.48,8,51Z" transform="translate(-2.92 -3.9)"/><path class="cls-1" d="M14,15a21.53,21.53,0,0,1,6.29-6.14C21.73,8,23,6.89,23,5c1.72.22,3.53-.48,5.48.61-2.6,4.28-8.27,5-10.49,9.4Z" transform="translate(-2.92 -3.9)"/><path class="cls-1" d="M19,5H12c2.12-1.89,4.68-.62,7-1Z" transform="translate(-2.92 -3.9)"/><path class="cls-12" d="M17.89,29C21.62,22.9,26.44,18,33,15.08c.3,2.11,1.9,1.92,3.39,1.92H65.62c1.49,0,3.09.17,3.37-1.95a32.34,32.34,0,0,1,15,14Z" transform="translate(-2.92 -3.9)"/><path class="cls-13" d="M66.23,39c.16-1,.32-1.93.49-2.9l20.58-.18a4.38,4.38,0,0,1,1,3Z" transform="translate(-2.92 -3.9)"/><path class="cls-14" d="M69,15.05C68.71,17.17,67.11,17,65.62,17H36.4c-1.49,0-3.09.19-3.39-1.92Q51,5.47,69,15.05Z" transform="translate(-2.92 -3.9)"/><path class="cls-15" d="M63.07,47a11.5,11.5,0,0,1,2-5c8,2.07,16,.52,24,.93,1.11,1.55.82,3.3.69,5C84.5,46,79,47.37,73.55,47,70.07,46.83,66.56,47,63.07,47Z" transform="translate(-2.92 -3.9)"/><path class="cls-16" d="M89.14,43c-8-.41-16.1,1.14-24-.93l1.14-3,22-.07C89.25,40.12,89.13,41.55,89.14,43Z" transform="translate(-2.92 -3.9)"/><path class="cls-17" d="M25,78.1A10.19,10.19,0,0,1,21,74c1.13-1.4,2.71-1,4.16-1Q51,73,76.84,73c1.44,0,3-.41,4.16,1a10.25,10.25,0,0,1-3.94,4.11C76,76.63,74.39,77,72.94,77Q51,77,29.07,77C27.63,77,26,76.63,25,78.1Z" transform="translate(-2.92 -3.9)"/><path class="cls-18" d="M81,74c-1.13-1.4-2.72-1-4.16-1Q51,73,25.16,73c-1.45,0-3-.41-4.16,1a5.21,5.21,0,0,1-2.1-2.84C20.28,69.37,22.26,70,24,70c8-.07,16,0,24,0,1.91,1.47,3.78,1.55,5.62-.13,8.13,0,16.25,0,24.38.16,1.73,0,3.7-.65,5.08,1.13A5.23,5.23,0,0,1,81,74Z" transform="translate(-2.92 -3.9)"/><path class="cls-6" d="M31.24,52.91c3.52.71,7,1.51,10.55,2.1,2.36.39,3.6,1.48,3.31,4-8.76,0-17.52,0-26.27.05-1.74,0-3.71-.59-5,1.25-1-1.2-.93-2.63-.9-4.06.38-2.67,2.44-2.19,4.18-2.2C21.84,54,26.6,54.24,31.24,52.91Z" transform="translate(-2.92 -3.9)"/><path class="cls-19" d="M25,78.1C26,76.63,27.63,77,29.07,77Q51,77,72.94,77c1.45,0,3-.38,4.12,1.1C76,79.49,75,81,73,80.92A3.17,3.17,0,0,0,70.26,80H32.39c-1.32,0-2.69-.1-3.53,1.28A7.84,7.84,0,0,1,25,78.1Z" transform="translate(-2.92 -3.9)"/><path class="cls-20" d="M28.86,81.28C29.7,79.9,31.07,80,32.39,80H70.26a3.17,3.17,0,0,1,2.71.92c-1.28,1.06-2.1,2.74-4,2.94-5.83-1.91-11.82-.75-17.71-.75-6.06,0-12.21-1.18-18.21.73A8.79,8.79,0,0,1,28.86,81.28Z" transform="translate(-2.92 -3.9)"/><path class="cls-7" d="M45.89,62l1,4c-8.53,0-17.06,0-25.58,0-1.66,0-3.83-.73-4.27,2a7.75,7.75,0,0,1-2.15-4.77C16.16,61.39,18.15,62,19.9,62,28.56,62,37.22,62,45.89,62Z" transform="translate(-2.92 -3.9)"/><path class="cls-21" d="M83.09,71.16C81.71,69.38,79.74,70.05,78,70c-8.13-.11-16.25-.12-24.38-.16.53-1.29,1.07-2.58,1.6-3.86,8.46,0,16.93,0,25.39,0C82.27,66,84.49,65.2,85,68A5.32,5.32,0,0,1,83.09,71.16Z" transform="translate(-2.92 -3.9)"/><path class="cls-21" d="M17,68c.44-2.73,2.61-2,4.27-2,8.52-.06,17.05,0,25.58,0L48,70c-8,0-16,0-24,0-1.75,0-3.73-.66-5.11,1.13A5.44,5.44,0,0,1,17,68Z" transform="translate(-2.92 -3.9)"/><path class="cls-9" d="M45.89,62c-8.67,0-17.33,0-26,0-1.75,0-3.74-.64-5.06,1.23a3.88,3.88,0,0,1-1-3c1.31-1.84,3.28-1.24,5-1.25C27.58,59,36.34,59,45.1,59A3.51,3.51,0,0,1,45.89,62Z" transform="translate(-2.92 -3.9)"/><path class="cls-22" d="M33,83.84c6-1.91,12.15-.72,18.21-.73,5.89,0,11.88-1.16,17.71.75A9.43,9.43,0,0,1,64,86a72.19,72.19,0,0,0-26,0A9.46,9.46,0,0,1,33,83.84Z" transform="translate(-2.92 -3.9)"/><path class="cls-23" d="M38,86a72.19,72.19,0,0,1,26,0A34.67,34.67,0,0,1,38,86Z" transform="translate(-2.92 -3.9)"/><path class="cls-24" d="M31.24,52.91C26.6,54.24,21.84,54,17.09,54c-1.74,0-3.8-.47-4.18,2.2-1.13-1.63-.9-3.44-.71-5.24l17,0Z" transform="translate(-2.92 -3.9)"/><path class="cls-25" d="M60.16,54l.89-2c8.63-2.14,17.39-.56,26.09-.88C89,51,88.94,52.66,89,54Z" transform="translate(-2.92 -3.9)"/></g></g></svg>