<svg xmlns="http://www.w3.org/2000/svg" viewBox="0 0 79.88 73.24"><title>资源 29</title><g id="图层_2" data-name="图层 2"><g id="图层_1-2" data-name="图层 1"><path d="M90.92,21.71c-2.39,12.36-4.84,25.08-7.3,37.79q-2,10.27-4,20.54c-.63,3.22-1.8,6-5.29,7.21s-6-.74-8.32-3c-2.84-2.8-5.87-5.42-8.63-8.3-1.7-1.78-2.93-2.1-4.82-.17a64.1,64.1,0,0,1-7.16,6.19C42,84.57,38.64,83.82,37,79.79a146.48,146.48,0,0,1-4.9-14.61,6.42,6.42,0,0,0-4.46-4.76c-3.9-1.39-7.71-3-11.53-4.65-2.72-1.15-5-2.84-5.07-6.13s2.06-5.14,4.8-6.33q32.66-14.06,65.35-28C87.06,12.81,91.26,15.58,90.92,21.71ZM72.58,81.16c4-20.44,7.74-39.81,11.65-59.92L18.59,49.46c3.8,1.61,7.09,2.79,10.18,4.37,3.4,1.74,6.19,1.59,9.58-.55C47.61,47.42,57.16,42,66.64,36.49,67.93,35.74,69.1,34.4,72,35c-6,6.21-11.14,12.3-17.08,17.45-6.7,5.82-10.07,12.92-11.16,22.17,3.27-2.82,6.24-5.18,9-7.79,1.8-1.72,3-1.81,4.81.07C62.18,71.57,67.1,76,72.58,81.16Z" transform="translate(-11.06 -14.38)"/></g></g></svg>