<svg xmlns="http://www.w3.org/2000/svg" viewBox="0 0 90.4 90.39"><defs><style>.cls-1{fill:#010101;}.cls-2{fill:#020202;}.cls-3{fill:#1e1e1e;}.cls-4{fill:#191919;}.cls-5{fill:#1a1a1a;}.cls-6{fill:#1c1c1c;}.cls-7{fill:#171717;}</style></defs><title>资源 30</title><g id="图层_2" data-name="图层 2"><g id="图层_1-2" data-name="图层 1"><path class="cls-1" d="M51,96.2A45.2,45.2,0,1,1,96.2,51.25,45,45,0,0,1,51,96.2Zm42.1-44.95A42.09,42.09,0,1,0,50.62,93.09,42,42,0,0,0,93.09,51.25Z" transform="translate(-5.8 -5.8)"/><path class="cls-2" d="M51.11,15A36.15,36.15,0,0,1,86.92,49.55c.7,19.13-14,35.79-32.92,37.26-1.47.12-3.93,1.1-4.2-1.21C49.5,83,52.13,84,53.55,83.78,71.3,81.48,83.8,68,83.86,51.09c0-16.57-12.12-30.23-29.15-32.71C37.53,15.88,21.22,28.8,18.42,47.14c-.17,1.15-.24,2.32-.31,3.48-.05,1-.5,1.71-1.43,1.7a1.59,1.59,0,0,1-1.6-2,70.15,70.15,0,0,1,1.3-8.85A36.09,36.09,0,0,1,51.11,15Z" transform="translate(-5.8 -5.8)"/><path class="cls-2" d="M68.08,36.38c-1.92,9.6-3.79,19.55-6,29.44-.69,3.12-3.08,3.71-5.79,2a19.59,19.59,0,0,1-3.57-2.7c-2.22-2.2-4.13-2.85-6.5,0-2.63,3.13-5.18,2.43-5.94-1.42-1.15-5.83-3.41-10.14-10-11a3,3,0,0,1-2.59-3.21c.08-1.52,1.16-2.26,2.47-2.81,11-4.61,22-9.26,33-13.86C66.32,31.57,68,32.54,68.08,36.38ZM59.2,65.2C61.08,55.61,63,45.91,65,35.45l-33.28,14c4.89,3,9.26,4.17,13.87.12a44.58,44.58,0,0,1,7.16-4.51c.71-.41,1.44-1.56,2.5-.28s-.39,1.64-.9,2.15c-2.37,2.33-4.86,4.55-7.28,6.83-3.08,2.92-3.3,3.68-2.46,8.78C51.22,54.14,53.86,64.92,59.2,65.2Z" transform="translate(-5.8 -5.8)"/><path class="cls-3" d="M40.58,87c-1.54-.57-1.87-1.64-1.33-2.83s.35-3.3,2.44-3.14c1.63.12,1.53,1.54,1.15,2.66C42.4,85,42.29,86.64,40.58,87Z" transform="translate(-5.8 -5.8)"/><path class="cls-4" d="M21,60.9c-.94,1.59-2.75,1.79-4.48,1.89a1.29,1.29,0,0,1-1.3-1.67c.81-1.95,2.74-2.07,4.51-2.12C20.59,59,21.09,59.67,21,60.9Z" transform="translate(-5.8 -5.8)"/><path class="cls-5" d="M29.17,74.27a5,5,0,0,1-3.44,3.57,1.28,1.28,0,0,1-1.62-1.34,4.51,4.51,0,0,1,3.43-3.65C28.45,72.57,29.06,73.13,29.17,74.27Z" transform="translate(-5.8 -5.8)"/><path class="cls-6" d="M32.65,83.2c-1.1-.08-1.89-.66-1.59-1.55.57-1.66,1-3.71,3.3-3.82a1.21,1.21,0,0,1,1.17,1.74C34.88,81,34.5,82.81,32.65,83.2Z" transform="translate(-5.8 -5.8)"/><path class="cls-7" d="M24.21,68c-.48,1.76-2.17,2.23-3.65,2.85a1.22,1.22,0,0,1-1.75-1.17c.07-2.33,2.22-2.66,3.82-3.3C23.42,66,24.07,66.89,24.21,68Z" transform="translate(-5.8 -5.8)"/></g></g></svg>