<svg xmlns="http://www.w3.org/2000/svg" viewBox="0 0 79.79 66.94"><defs><style>.cls-1{fill:#020202;}.cls-2{fill:#050505;}.cls-3{fill:#0b0b0b;}</style></defs><title>资源 5</title><g id="图层_2" data-name="图层 2"><g id="图层_1-2" data-name="图层 1"><path class="cls-1" d="M36.16,21c5.16,0,10.31,0,15.46,0,3.4,0,6.62.32,9.72-2.33,2.39-2,5.81-1.24,8,1.41s2.32,5.87-.11,8.6c-2.23,2.5-5.36,3.5-8,1.29s-5.67-2.22-8.79-2.21q-17,0-33.92,0c-1.16,0-2.33,0-3.49,0-2.2-.14-4.06-.95-4-3.48S12.94,21,15.21,21C22.19,21,29.18,21,36.16,21Z" transform="translate(-11.06 -17.51)"/><path class="cls-1" d="M29.77,74.24c3.48,0,7,0,10.45,0,2.61,0,5,0,7.31-2,2.71-2.34,6-1.6,8.41,1.13a6,6,0,0,1,0,8.57c-2.37,2.77-5.76,3.43-8.4,1.14s-5-2-7.79-2q-11.7,0-23.39,0c-2.62,0-5.43,0-5.28-3.56.13-3.09,2.79-3.21,5.22-3.21C20.81,74.25,25.29,74.24,29.77,74.24Z" transform="translate(-11.06 -17.51)"/><path d="M66.72,54.25c-6.49,0-13-.13-19.46.06-2.71.08-3.09-.85-3.2-3.38-.12-2.88.93-3.24,3.34-3.22,12.82.08,25.63,0,38.44,0,2.42,0,5.08,0,5,3.32s-2.78,3.18-5.16,3.18Z" transform="translate(-11.06 -17.51)"/><path class="cls-1" d="M30.89,44.27c3,.43,5.23,1.59,6.29,4.44a6.17,6.17,0,0,1-1.44,6.86c-2,2.09-5,3.21-7.17,1.37-3.9-3.32-8.24-2.63-12.59-2.68-2.44,0-5-.12-4.9-3.39.06-2.92,2.38-3.13,4.66-3.13,4.54,0,9.22.73,13-2.84C29.28,44.4,30.3,44.43,30.89,44.27Z" transform="translate(-11.06 -17.51)"/><path class="cls-2" d="M76.36,81c-2.66,0-5.32.09-8,0-2-.08-4.44,1.2-4.41-3,0-3.89,1.72-3.79,4.42-3.74,5.8.11,11.61,0,17.42,0,2.48,0,5.05.36,5,3.43s-2.53,3.41-5,3.36C82.66,81,79.51,81,76.36,81Z" transform="translate(-11.06 -17.51)"/><path class="cls-3" d="M83.21,20.91c2.88.53,7.52-1.37,7.52,3.32,0,4.92-4.78,3.65-7.74,3.38-1.77-.17-5.2,2.7-5.57-2.7C77,18.91,80.88,21.56,83.21,20.91Z" transform="translate(-11.06 -17.51)"/></g></g></svg>