<svg xmlns="http://www.w3.org/2000/svg" viewBox="0 0 63.08 77.58"><defs><style>.cls-1{fill:#030303;}.cls-2{fill:#050505;}</style></defs><title>资源 25</title><g id="图层_2" data-name="图层 2"><g id="图层_1-2" data-name="图层 1"><path class="cls-1" d="M16.78,32.26C25,23.05,33.68,14.69,46.49,12.55c6.79-1.13,12.91.48,17.76,5.64a7.09,7.09,0,0,0,3.19,2c8.46,2.72,12.68,9,12.32,18.23a67.43,67.43,0,0,1-1.21,9.9c-.52,2.79-.89,5.19.64,8a6.9,6.9,0,0,1-1.78,8.19c-2.34,1.81-2.72,3.83-3.22,6.18A22.75,22.75,0,0,1,59.35,88.17c-13.75,5.31-28.57-3-31.59-17.56-.44-2.16-.7-4.07-2.93-5.79a7.57,7.57,0,0,1-2.07-8.64C25.89,48.05,23.44,37.4,16.78,32.26ZM77,59.18c0-1.44.22-3.64-2-2.94-3.66,1.16-2.82-1.14-2.87-3-.1-4.12.57-8.39-2-12.07C67.86,38,65.64,35.66,61.34,39c-3.86,3-8.74,3.82-13.65,4.1a48.67,48.67,0,0,0-7.9.93c-6.38,1.4-8.84,4.18-9.95,10.66-.13.77.52,2.31-1.31,1.85-1.46-.37-3.2-1.21-3.49,1.1-.25,1.94,0,5,1.66,5.32,3.73.73,3.06,3.14,3.27,5.5.89,10,12.86,21,21.72,19.83,11.22-1.43,19.3-10,20.45-21.73.12-1.24-.39-2.87,1.66-3C76.7,63.43,76.21,60.9,77,59.18Zm-1.55-8.25c1.13-5.36,1.89-10.08,1.63-14.9-.4-7.41-3.75-11.76-10.85-13.61a6.13,6.13,0,0,1-3.61-2.23c-3-3.71-7.16-5.22-11.87-5.31-10.88-.2-18.66,6-26.19,12.7-2.6,2.33-4.77,4.24-1,7.73,2.13,2,2.5,5.32,2.48,8.41,0,2.82,0,5.67,1.42,8.69,2.32-8.46,8.69-11,16.23-11.5,6-.43,12.32-.46,17-4.48,4.24-3.62,6.76-1.42,9.7,1.19C74.21,41,74.28,45.86,75.46,50.93Z" transform="translate(-16.78 -12.21)"/><path class="cls-2" d="M43.34,58.37c-.15,1.44-.76,2.55-2.42,2.53a2.14,2.14,0,0,1-2.21-2.23,2.2,2.2,0,0,1,2.36-2.57C42.46,56.11,43.08,57.07,43.34,58.37Z" transform="translate(-16.78 -12.21)"/><path class="cls-2" d="M63.34,58.38c-.15,1.44-.78,2.54-2.43,2.52a2.15,2.15,0,0,1-2.2-2.25,2.21,2.21,0,0,1,2.37-2.56C62.47,56.11,63.08,57.09,63.34,58.38Z" transform="translate(-16.78 -12.21)"/></g></g></svg>