<svg xmlns="http://www.w3.org/2000/svg" viewBox="0 0 62.36 75.96">
    <defs>
        <style>
            .cls-1 {
                fill: #444b54;
            }

            .cls-2 {
                fill: #dee7f3;
            }

            .cls-3 {
                fill: #454c55;
            }
        </style>
    </defs>
    <title>资源 24</title>
    <g id="图层_2" data-name="图层 2">
        <g id="图层_1-2" data-name="图层 1">
            <path class="cls-1"
                d="M71.37,41.88c-.17,3.49,0,7-.59,10.44C69.05,61.49,60.52,68.1,51,68.09a20.25,20.25,0,0,1-19.8-15.85,22.79,22.79,0,0,1-.31-4c0-1.29.47-2.3,1.91-2.45a2,2,0,0,1,2.42,1.92c.24,1.31.42,2.63.74,3.92A15.39,15.39,0,0,0,66,51a51.82,51.82,0,0,0,.54-7c0-.81.06-2.15-.37-2.37-3.81-2-6.6-3.88-3.59-8.89.64-1.06-2.07-2.36-3.69-.9-8.28,7.48-18.49,6.27-28.41,6.48-2.83.06-3.88-1.16-3.61-3.94A17.43,17.43,0,0,1,34,21.72c7.22-5.51,20-5.06,26.78.87.25.21.41.64.68.71C71.42,26,72,33.58,71.37,41.88Z"
                transform="translate(-19.79 -17.85)" />
            <path class="cls-2"
                d="M79.32,93.79l-56.61,0c.92-1.15,1.89-2.28,2.75-3.48,13-18,38-18,51.08,0C77.41,91.53,78.39,92.64,79.32,93.79Z"
                transform="translate(-19.79 -17.85)" />
            <path class="cls-3"
                d="M79.32,93.79c-.93-1.15-1.91-2.26-2.78-3.46-13-18-38.11-18-51.08,0-.86,1.2-1.83,2.33-2.75,3.48-4.49-1-2.86-3.52-1.33-5.9,9-13.89,27.71-19.57,43.18-13.06A35.33,35.33,0,0,1,81.12,88.71C82.71,91.21,82.7,93.09,79.32,93.79Z"
                transform="translate(-19.79 -17.85)" />
        </g>
    </g>
</svg>