<svg xmlns="http://www.w3.org/2000/svg" viewBox="0 0 91.97 91.98"><defs><style>.cls-1{fill:#010101;}</style></defs><title>资源 34</title><g id="图层_2" data-name="图层 2"><g id="图层_1-2" data-name="图层 1"><path class="cls-1" d="M51,5A46,46,0,1,1,5,51.08,46.1,46.1,0,0,1,51,5ZM93,51A42,42,0,1,0,51.17,93,42,42,0,0,0,93,51Z" transform="translate(-5.01 -5.01)"/><path class="cls-1" d="M68.29,69.86c-4.08,1.36-6.55.44-8.38-2.94-1.66-3.06-4-5.73-5.71-8.78-1.86-3.37-3-2.51-4.59.16-1.78,3-4.07,5.71-5.75,8.76s-4,4.12-8,2.82c3.38-5,6.47-10.06,10-14.75,2.43-3.2,2.77-5.62.11-9C42.36,41.51,39.34,36.37,36,31.36c4.65-1.42,7.16.45,9.17,4.09s4.65,7.23,7.24,11.19c2.77-4.14,5.45-7.75,7.69-11.62,1.89-3.26,4.06-5.19,8.48-3.52-3.71,5.42-7.29,10.93-11.19,16.21-1.69,2.28-1.61,3.9,0,6.13C61.06,58.94,64.48,64.23,68.29,69.86Z" transform="translate(-5.01 -5.01)"/></g></g></svg>